<svg width="202" height="171" viewBox="0 0 202 171" fill="none" xmlns="http://www.w3.org/2000/svg">
<path d="M110.182 151.404C148.842 151.404 180.182 119.84 180.182 80.9044C180.182 41.9683 148.842 10.4044 110.182 10.4044C71.522 10.4044 40.1819 41.9683 40.1819 80.9044C40.1819 119.84 71.522 151.404 110.182 151.404Z" fill="#1FA294"/>
<path d="M162.353 108.7C156.99 107.159 152.346 103.768 149.244 99.1297C146.141 94.4912 144.781 88.9043 145.404 83.3588C146.027 77.8134 148.594 72.6676 152.648 68.8334C156.702 64.9991 161.983 62.7239 167.555 62.411C165.52 60.52 163.751 58.361 162.298 55.9934C161.685 54.8757 161.524 53.5648 161.85 52.3322C162.177 51.0996 162.964 50.0395 164.05 49.3715C165.136 48.7034 166.437 48.4785 167.685 48.7433C168.932 49.008 170.03 49.7422 170.751 50.7938C172.496 53.6513 174.924 56.0307 177.816 57.7185C179.212 58.5261 180.702 59.1605 182.252 59.6074C185.427 60.4853 188.76 60.6281 191.998 60.0251C192.767 59.8932 193.555 59.9388 194.303 60.1585C195.373 60.4768 196.305 61.1463 196.947 62.0589C197.59 62.9716 197.907 64.0742 197.847 65.189C197.787 66.3038 197.352 67.3657 196.615 68.2035C195.877 69.0414 194.878 69.6063 193.78 69.8071C191.387 70.2408 188.952 70.4039 186.522 70.2933C189.907 74.1219 191.96 78.9442 192.375 84.0378C192.789 89.1314 191.542 94.2221 188.82 98.5475C186.098 102.873 182.048 106.2 177.277 108.03C172.505 109.86 167.269 110.096 162.353 108.7Z" fill="white"/>
<path d="M175.976 67.954L177.782 64.0777C178.725 64.4768 179.69 64.8174 180.674 65.0973C184.698 66.2272 188.926 66.4195 193.035 65.6593C193.23 65.623 193.403 65.5108 193.515 65.3473C193.627 65.1838 193.67 64.9824 193.634 64.7875C193.616 64.6909 193.579 64.5989 193.526 64.5165C193.472 64.4342 193.403 64.3632 193.322 64.3077C193.158 64.1954 192.957 64.1527 192.762 64.189C186.917 65.3012 180.866 64.3036 175.688 61.3736C172.215 59.3293 169.298 56.4622 167.194 53.0249C167.102 52.8576 166.948 52.7332 166.765 52.679C166.583 52.6248 166.386 52.6452 166.218 52.7357C166.193 52.749 166.169 52.764 166.146 52.7805C166.06 52.8237 165.983 52.8835 165.92 52.9563C165.857 53.0292 165.809 53.1137 165.779 53.2051C165.748 53.2966 165.736 53.393 165.743 53.4891C165.751 53.5851 165.776 53.6788 165.82 53.7648C165.828 53.7818 165.838 53.7991 165.848 53.8168C168.09 57.4703 171.199 60.514 174.9 62.6779C175.401 62.9638 175.897 63.2294 176.387 63.4746L174.517 67.4899L174.165 67.3888C169.294 66.0026 164.074 66.5762 159.62 68.9869C155.166 71.3977 151.832 75.4545 150.329 80.2907C148.826 85.127 149.274 90.3592 151.576 94.8697C153.879 99.3802 157.855 102.811 162.654 104.43C167.452 106.049 172.694 105.727 177.258 103.533C181.823 101.34 185.349 97.4478 187.082 92.6895C188.816 87.9311 188.621 82.6834 186.537 78.0673C184.454 73.4513 180.648 69.833 175.933 67.9852L175.976 67.954Z" fill="#E1B588"/>
<path d="M163.514 104.651C173.813 107.604 184.555 101.649 187.508 91.3508C190.461 81.0526 184.506 70.3104 174.208 67.3574C163.91 64.4045 153.168 70.359 150.215 80.6572C147.262 90.9554 153.216 101.698 163.514 104.651Z" fill="#FCE313"/>
<path d="M180.676 65.0978C178.671 64.5258 176.744 63.706 174.941 62.6574C171.227 60.4943 168.107 57.4462 165.857 53.7847C165.756 53.6187 165.725 53.4195 165.771 53.2308C165.817 53.0421 165.936 52.8793 166.102 52.7782C166.118 52.7684 166.136 52.7588 166.154 52.7494C166.31 52.6392 166.504 52.5955 166.692 52.628C166.881 52.6604 167.049 52.7663 167.16 52.9225C167.176 52.9457 167.191 52.9698 167.205 52.9946C169.318 56.4409 172.249 59.3124 175.738 61.3546C180.9 64.2799 186.93 65.2846 192.762 64.1908C192.859 64.1706 192.959 64.17 193.057 64.1891C193.154 64.2082 193.247 64.2465 193.33 64.3019C193.412 64.3572 193.483 64.4285 193.537 64.5115C193.592 64.5945 193.63 64.6876 193.648 64.7853C193.666 64.8829 193.665 64.9833 193.643 65.0804C193.622 65.1775 193.582 65.2695 193.525 65.3509C193.468 65.4322 193.395 65.5014 193.311 65.5544C193.227 65.6073 193.133 65.6429 193.035 65.6592C188.927 66.4193 184.699 66.2272 180.676 65.0978Z" fill="#42ACA0"/>
<path d="M174.1 70.5098L173.986 70.477C173.809 70.3967 173.671 70.2494 173.602 70.0675C173.534 69.8856 173.541 69.6839 173.621 69.5069L173.626 69.4887L176.732 62.7778C176.824 62.6141 176.975 62.4912 177.154 62.434C177.333 62.3768 177.527 62.3895 177.697 62.4695C177.867 62.5494 178.001 62.6908 178.071 62.8652C178.141 63.0396 178.142 63.234 178.075 63.4095L174.971 70.0927C174.897 70.2531 174.77 70.3827 174.611 70.4589C174.452 70.5351 174.271 70.5531 174.1 70.5098Z" fill="#42ACA0"/>
<path d="M169.42 92.1846L169.247 92.1349C169.198 92.0951 169.156 92.0458 169.126 91.99C169.095 91.9341 169.076 91.8728 169.069 91.8094C169.062 91.7461 169.068 91.682 169.086 91.6209C169.104 91.5597 169.133 91.5027 169.173 91.4532L175.192 83.9431C175.272 83.8429 175.39 83.7789 175.517 83.7651C175.645 83.7514 175.774 83.789 175.874 83.8697C175.974 83.9505 176.038 84.0677 176.052 84.1956C176.065 84.3236 176.028 84.4517 175.947 84.5519L169.93 92.0499C169.868 92.1203 169.787 92.1707 169.696 92.1947C169.605 92.2187 169.509 92.2151 169.42 92.1846Z" fill="#E1B588"/>
<path d="M171.79 94.3994L171.616 94.3495C171.516 94.2659 171.453 94.1466 171.44 94.0172C171.426 93.8877 171.464 93.7582 171.545 93.6562L177.561 86.1579C177.642 86.0577 177.759 85.9937 177.887 85.98C178.015 85.9662 178.143 86.0038 178.243 86.0846C178.343 86.1653 178.407 86.2825 178.421 86.4105C178.435 86.5384 178.397 86.6665 178.316 86.7667L172.308 94.234C172.249 94.3114 172.168 94.3688 172.075 94.3984C171.982 94.428 171.883 94.4283 171.79 94.3994Z" fill="#E1B588"/>
<path d="M177.694 92.3818L168.443 89.7291C168.32 89.6936 168.215 89.6105 168.153 89.498C168.09 89.3855 168.075 89.2528 168.111 89.1292C168.146 89.0055 168.229 88.901 168.342 88.8387C168.454 88.7763 168.587 88.7612 168.711 88.7966L177.962 91.4494C178.085 91.4848 178.19 91.568 178.252 91.6805C178.315 91.793 178.33 91.9256 178.294 92.0493C178.259 92.1729 178.176 92.2774 178.063 92.3398C177.951 92.4021 177.818 92.4173 177.694 92.3818Z" fill="#E1B588"/>
<path d="M178.817 89.3633L169.567 86.7108C169.464 86.6579 169.382 86.5709 169.336 86.4647C169.29 86.3584 169.283 86.2395 169.315 86.1282C169.346 86.0169 169.416 85.9202 169.511 85.8545C169.607 85.7887 169.722 85.7581 169.837 85.7678L179.088 88.4206C179.191 88.4734 179.273 88.5604 179.319 88.6667C179.365 88.7729 179.372 88.8918 179.34 89.0031C179.309 89.1144 179.239 89.2112 179.144 89.2769C179.048 89.3426 178.933 89.3733 178.818 89.3636L178.817 89.3633Z" fill="#E1B588"/>
<path d="M138.445 101.519C149.209 92.1666 160.225 73.1514 153.062 62.0632L153.654 61.5489C153.807 61.3881 153.945 61.2148 154.069 61.0306C154.674 60.1498 154.969 59.093 154.908 58.0262C154.847 56.9594 154.434 55.943 153.733 55.1364C153.033 54.3298 152.084 53.7788 151.036 53.5697C149.988 53.3606 148.9 53.5054 147.944 53.9812C147.672 54.1177 147.418 54.2857 147.186 54.4818L146.027 55.4887C145.738 54.9211 145.568 54.5029 145.392 54.1049C145.099 53.3745 144.748 52.6684 144.344 51.9931C142.149 48.3297 138.762 45.5314 134.75 44.0666C130.738 42.6017 126.345 42.5593 122.306 43.9462C121.866 44.0851 121.46 44.3148 121.114 44.6205C120.413 45.2266 119.976 46.0815 119.895 47.0043C119.646 49.9494 120.176 52.9081 121.432 55.5837C121.834 56.4436 122.312 57.2662 122.859 58.0418C120.654 59.2531 118.592 60.7071 116.711 62.3769C114.22 64.5783 111.926 66.9929 109.854 69.5931C105.304 75.2819 101.335 81.4128 98.0086 87.8937C93.0899 97.8648 92.5819 105.196 96.4175 109.611C104.319 118.688 122.777 115.133 138.445 101.519Z" fill="white"/>
<path d="M99.0803 107.297C105.579 114.777 122.174 110.997 136.137 98.8653C147.052 89.3815 156.045 71.7153 149.671 63.3403C145.306 57.6111 134.811 57.6326 128.127 59.6309C126.089 60.2373 120.28 62.2466 112.604 71.7804C106.767 79.1185 92.5039 99.728 99.0803 107.297Z" fill="#F65E37"/>
<path d="M145.242 61.0033C144.534 59.9843 143.882 58.928 143.288 57.8388C142.085 55.6417 142.128 55.147 141.301 53.7419C139.266 50.4073 136.03 47.9799 132.259 46.9593C129.351 46.2223 126.291 46.344 123.45 47.3097C123.249 49.65 123.665 52.0021 124.656 54.1317C125.799 56.4982 127.601 58.4845 129.846 59.8521C131.674 61.2026 133.864 61.976 136.135 62.0729C137.546 62.1331 138.954 61.9043 140.274 61.4005C141.885 60.9295 143.576 60.7943 145.242 61.0033V61.0033Z" fill="#3BCCA0"/>
<path d="M128.486 48.2877C128.612 48.6269 128.715 48.9745 128.792 49.328C128.869 49.6702 128.922 49.9859 128.968 50.2925C129.013 50.5991 128.809 50.9605 129.057 51.1751C129.415 51.4931 129.839 51.7266 130.299 51.8584C130.336 51.8767 130.377 51.8839 130.418 51.8793C130.458 51.8748 130.497 51.8586 130.528 51.8327C130.761 51.6877 130.956 51.4895 131.097 51.2546C131.239 51.0196 131.322 50.7545 131.341 50.481C131.387 50.0319 130.935 49.7478 130.691 49.4669C130.429 49.1646 130.129 48.898 129.798 48.674C129.455 48.4594 129.085 48.2905 128.699 48.1715C128.666 48.1707 128.634 48.1822 128.609 48.2039C128.584 48.2255 128.568 48.2556 128.564 48.2883L128.486 48.2877Z" fill="#42ACA0"/>
<path d="M131.443 48.6292C131.669 49.0874 131.852 49.5652 131.992 50.0566C132.122 50.4896 132.218 50.932 132.28 51.3799C132.349 51.8392 132.165 52.3148 132.399 52.6934C132.694 53.2006 133.083 53.6478 133.544 54.0117C133.573 54.0528 133.618 54.0806 133.668 54.0889C133.718 54.0971 133.769 54.0853 133.81 54.0559C133.828 54.0423 133.844 54.026 133.857 54.0074C134.136 53.8107 134.369 53.554 134.536 53.256C134.704 52.958 134.802 52.6263 134.825 52.2852C134.775 51.6742 134.515 51.0993 134.089 50.6589C133.775 50.1702 133.391 49.7293 132.951 49.3497C132.533 48.9823 132.065 48.6753 131.561 48.4376C131.546 48.4307 131.529 48.4269 131.511 48.4266C131.494 48.4263 131.477 48.4294 131.461 48.4357C131.445 48.442 131.43 48.4514 131.418 48.4634C131.405 48.4754 131.395 48.4897 131.389 48.5056C131.388 48.5289 131.392 48.5521 131.402 48.5735C131.411 48.5949 131.425 48.6139 131.443 48.6292Z" fill="#42ACA0"/>
<path d="M126.053 53.6739C126.853 54.0137 127.724 54.1539 128.59 54.0824C129.021 54.0538 129.561 54.1667 129.908 53.787C130.102 53.5897 130.25 53.3507 130.339 53.0881C130.428 52.8256 130.456 52.5462 130.422 52.2711C130.414 52.2321 130.397 52.1958 130.37 52.1658C130.344 52.1359 130.311 52.1133 130.273 52.1005C129.831 51.8516 129.334 51.7157 128.827 51.7048C128.467 51.688 128.295 52.0886 127.999 52.2918C127.703 52.4951 127.395 52.6841 127.082 52.8847C126.74 53.1018 126.386 53.2992 126.022 53.476C125.991 53.491 125.968 53.5173 125.956 53.5493C125.945 53.5813 125.946 53.6165 125.96 53.6475L125.966 53.6551C125.994 53.6678 126.023 53.6742 126.053 53.6739Z" fill="#42ACA0"/>
<path d="M135.264 49.5134C135.388 50.1438 135.529 50.7599 135.623 51.3876L135.933 53.2115C136.034 53.817 135.844 54.4814 136.151 55.0213C136.476 55.6725 136.98 56.217 137.605 56.5901C137.641 56.6144 137.685 56.6236 137.728 56.6159C137.77 56.6082 137.808 56.5841 137.834 56.5487C138.254 55.9286 138.468 55.1917 138.446 54.4428C138.367 53.7773 138.115 53.144 137.715 52.6063C137.423 52.014 137.083 51.4464 136.698 50.9093C136.331 50.3911 135.934 49.8954 135.508 49.4248C135.484 49.4022 135.453 49.3892 135.42 49.3885C135.387 49.3878 135.355 49.3993 135.331 49.4209C135.299 49.4436 135.275 49.4761 135.264 49.5134Z" fill="#42ACA0"/>
<path d="M128.412 56.1904C128.91 56.3265 129.42 56.4104 129.935 56.4406C130.473 56.468 131.013 56.4321 131.542 56.3335C132.061 56.2423 132.699 56.2892 133.099 55.8635C133.332 55.6371 133.513 55.3631 133.631 55.0602C133.748 54.7572 133.798 54.4325 133.779 54.1083C133.773 54.0663 133.755 54.0269 133.728 53.995C133.7 53.9631 133.663 53.94 133.623 53.9286C133.081 53.7566 132.507 53.716 131.947 53.8103C131.498 53.8547 131.272 54.3188 130.891 54.57C130.511 54.8212 130.133 55.0556 129.713 55.2785C129.292 55.5246 128.854 55.7417 128.404 55.9283C128.388 55.9347 128.373 55.9442 128.361 55.9563C128.349 55.9684 128.339 55.9828 128.332 55.9987C128.326 56.0146 128.322 56.0317 128.322 56.0489C128.322 56.0661 128.326 56.0832 128.332 56.0991C128.347 56.1382 128.375 56.1708 128.412 56.1904Z" fill="#42ACA0"/>
<path d="M131.097 58.3561C131.7 58.5029 132.314 58.6017 132.933 58.6515C133.537 58.7071 134.145 58.7057 134.749 58.6471C135.368 58.5969 136.048 58.7113 136.582 58.3291C137.158 57.9437 137.576 57.3631 137.758 56.6944C137.766 56.6529 137.761 56.6097 137.742 56.5717C137.724 56.5336 137.693 56.5029 137.655 56.4844C137.047 56.2212 136.384 56.1114 135.723 56.1645C135.167 56.1765 134.764 56.6361 134.26 56.8531C133.755 57.0701 133.251 57.3041 132.723 57.5116C132.194 57.7191 131.649 57.9248 131.08 58.1202C131.05 58.134 131.026 58.1577 131.011 58.1873C130.997 58.217 130.993 58.2507 131.001 58.2827C131.025 58.3164 131.058 58.342 131.097 58.3561Z" fill="#42ACA0"/>
<path d="M139.187 52.7231C139.265 53.2079 139.306 53.6978 139.312 54.1888C139.297 54.6429 139.379 55.1534 139.388 55.6171C139.397 56.0807 139.166 56.5813 139.401 56.9905C139.666 57.529 140.066 57.9895 140.562 58.3269C140.597 58.3514 140.638 58.365 140.681 58.3657C140.724 58.3664 140.766 58.3543 140.801 58.3309C141.065 58.1393 141.287 57.8969 141.456 57.618C141.625 57.339 141.736 57.0292 141.783 56.7068C141.89 56.1421 141.486 55.6402 141.252 55.1538C141.032 54.6629 140.763 54.1953 140.449 53.7582C140.136 53.3252 139.785 52.921 139.4 52.5502C139.377 52.5282 139.346 52.5161 139.315 52.5166C139.283 52.517 139.253 52.5299 139.231 52.5525L139.22 52.5617C139.199 52.5818 139.184 52.6082 139.178 52.6371C139.172 52.666 139.175 52.696 139.187 52.7231Z" fill="#42ACA0"/>
<path d="M134.029 60.1541C134.628 60.297 135.238 60.3933 135.852 60.4423C136.461 60.4959 137.073 60.4909 137.681 60.4274C138.299 60.3779 138.99 60.5022 139.522 60.1184C140.128 59.7313 140.566 59.1291 140.748 58.4327C140.761 58.3921 140.759 58.3482 140.742 58.3089C140.726 58.2697 140.695 58.2377 140.657 58.2186C140.043 57.9483 139.37 57.8349 138.701 57.8885C138.144 57.9005 137.734 58.351 137.229 58.5849C136.723 58.8189 136.203 59.0348 135.678 59.2397C135.152 59.4445 134.595 59.6607 134.033 59.8652C134.004 59.8789 133.979 59.9027 133.965 59.9323C133.951 59.962 133.947 59.9957 133.955 60.0277C133.962 60.0779 133.989 60.1233 134.029 60.1541Z" fill="#42ACA0"/>
<path d="M147.806 59.2009L145.252 58.2787L142.742 57.0859C142.326 56.8965 141.895 56.6728 141.417 56.4116L139.996 55.6462L137.299 54.3538C133.677 52.6846 130.019 51.0468 126.408 49.4634C129.521 51.9052 132.626 54.3549 135.676 56.851L137.971 58.7441L139.045 59.6965C139.39 60.0535 139.764 60.3816 140.162 60.6774L142.602 62.7011L145.257 64.5634C145.915 64.9877 146.712 65.1389 147.479 64.9849C148.246 64.8309 148.923 64.3839 149.366 63.7388C149.809 63.0937 149.983 62.3013 149.851 61.5301C149.719 60.7588 149.291 60.0693 148.659 59.6082C148.454 59.4713 148.234 59.3566 148.004 59.2659L147.806 59.2009Z" fill="#42ACA0"/>
<path d="M147.445 62.6623L151.119 59.0292C151.284 58.7883 151.365 58.4991 151.349 58.2072C151.332 57.9153 151.219 57.6371 151.028 57.4164C150.836 57.1957 150.576 57.0449 150.289 56.9878C150.003 56.9307 149.705 56.9705 149.443 57.1009L145.551 60.4826C145.477 60.8126 145.493 61.1567 145.598 61.4783C145.703 61.7999 145.893 62.0872 146.148 62.3096C146.52 62.5866 146.984 62.7126 147.445 62.6623V62.6623Z" fill="#C96346"/>
<path d="M127.543 97.1414C127.186 97.4512 127.148 97.9913 127.458 98.3478C127.768 98.7043 128.308 98.7422 128.665 98.4325C129.021 98.1227 129.059 97.5826 128.749 97.2261C128.439 96.8695 127.899 96.8316 127.543 97.1414Z" fill="#FFB36A"/>
<path d="M123.03 95.9158C122.674 96.2256 122.636 96.7657 122.946 97.1222C123.255 97.4787 123.796 97.5166 124.152 97.2069C124.509 96.8971 124.546 96.357 124.237 96.0005C123.927 95.644 123.387 95.6061 123.03 95.9158Z" fill="#FFB36A"/>
<path d="M116.797 99.066C116.441 99.3757 116.403 99.9159 116.713 100.272C117.023 100.629 117.563 100.667 117.919 100.357C118.276 100.047 118.314 99.5071 118.004 99.1506C117.694 98.7941 117.154 98.7562 116.797 99.066Z" fill="#FFB36A"/>
<path d="M121.368 100.65C121.012 100.96 120.974 101.5 121.284 101.856C121.593 102.213 122.133 102.251 122.49 101.941C122.846 101.631 122.884 101.091 122.575 100.735C122.265 100.378 121.725 100.34 121.368 100.65Z" fill="#FFB36A"/>
<path d="M114.347 103.619C113.99 103.928 113.952 104.468 114.262 104.825C114.572 105.182 115.112 105.219 115.468 104.91C115.825 104.6 115.863 104.06 115.553 103.703C115.243 103.347 114.703 103.309 114.347 103.619Z" fill="#FFB36A"/>
<path d="M110.579 97.6894C109.812 97.9878 108.995 98.1317 108.172 98.1129C107.35 98.0941 106.539 97.9129 105.787 97.5797C105.035 97.2466 104.357 96.768 103.79 96.1716C103.224 95.5751 102.781 94.8726 102.487 94.1044L88.454 58.4574C88.158 57.6906 88.016 56.8731 88.036 56.0515C88.056 55.2299 88.2377 54.4203 88.5706 53.6689C88.9035 52.9175 89.3811 52.239 89.9762 51.6722C90.5713 51.1053 91.2723 50.6613 92.039 50.3654C92.8057 50.0694 93.6232 49.9274 94.4448 49.9474C95.2664 49.9674 96.076 50.1491 96.8275 50.4819C97.5789 50.8148 98.2574 51.2925 98.8242 51.8876C99.391 52.4827 99.835 53.1836 100.131 53.9504L114.165 89.6994C114.458 90.4591 114.598 91.2694 114.576 92.0834C114.554 92.8974 114.371 93.699 114.038 94.4419C113.704 95.1849 113.227 95.8544 112.633 96.4117C112.04 96.9691 111.341 97.4034 110.579 97.6894Z" fill="#F2E4D8"/>
<path d="M92.9611 116.844C83.5371 127.599 51.2711 120.224 47.9931 107.728C47.1741 104.757 48.7101 104.04 50.2471 97.4854C54.4471 80.2764 46.5591 71.9794 52.1931 61.8394C55.3414 56.3355 59.9035 51.7731 65.4071 48.6244H92.9611C94.7749 50.4115 96.3266 52.4464 97.5701 54.6684C103.716 65.9364 97.0581 75.0524 95.3161 100.046C94.4981 112.03 95.5221 113.873 92.9611 116.844Z" fill="#548790"/>
<path d="M82.5129 53.7454C86.038 53.7454 89.4839 52.7001 92.4149 50.7417C95.3458 48.7832 97.6303 45.9997 98.9792 42.7429C100.328 39.4862 100.681 35.9026 99.9935 32.4453C99.3058 28.988 97.6083 25.8122 95.1157 23.3196C92.6231 20.827 89.4474 19.1295 85.99 18.4418C82.5327 17.7541 78.9491 18.1071 75.6924 19.4561C72.4356 20.805 69.6521 23.0895 67.6937 26.0204C65.7352 28.9514 64.6899 32.3973 64.6899 35.9224C64.6899 40.6493 66.5677 45.1827 69.9102 48.5251C73.2526 51.8676 77.786 53.7454 82.5129 53.7454Z" fill="#F2E4D8"/>
<path d="M98.391 27.7274C96.547 30.3904 86.509 23.5274 80.465 28.2394C77.597 30.4934 76.88 34.4874 73.807 34.6924C71.656 34.7924 70.734 32.9514 69.3 33.4634C66.329 34.4874 67.866 43.8094 66.739 44.0144C65.407 44.3214 57.93 33.2594 62.339 23.2204C66.231 14.3084 77.499 10.8264 85.796 13.3864C94.502 15.9484 99.928 25.3714 98.391 27.7274Z" fill="#666666"/>
<path d="M45.536 84.6803C43.988 84.0547 42.7517 82.8402 42.0986 81.3036C41.4456 79.767 41.4291 78.034 42.053 76.4853L51.682 52.5163C51.9703 51.7206 52.416 50.9911 52.9925 50.3714C53.569 49.7517 54.2645 49.2546 55.0373 48.9096C55.8102 48.5646 56.6447 48.3789 57.4909 48.3636C58.3371 48.3482 59.1778 48.5036 59.9627 48.8203C60.7476 49.137 61.4606 49.6086 62.0591 50.207C62.6577 50.8054 63.1296 51.5182 63.4466 52.303C63.7636 53.0877 63.9192 53.9283 63.9042 54.7746C63.8891 55.6208 63.7037 56.4553 63.359 57.2283L53.731 81.1973C53.4248 81.9666 52.9692 82.6676 52.3906 83.2597C51.8119 83.8519 51.1216 84.3235 50.3597 84.6474C49.5977 84.9712 48.7791 85.1409 47.9511 85.1466C47.1232 85.1522 46.3023 84.9938 45.536 84.6803Z" fill="#F2E4D8"/>
<path d="M77.1869 105.064L68.7869 99.9424L71.3479 93.8984L78.1089 92.9764C78.343 92.9589 78.5772 93.0078 78.7848 93.1174C78.9924 93.2269 79.165 93.3928 79.2826 93.596C79.4002 93.7991 79.4583 94.0313 79.45 94.2659C79.4417 94.5005 79.3675 94.728 79.2359 94.9224L78.4169 95.9464L80.8749 96.6634C82.0902 97.0008 83.1249 97.8013 83.7568 98.8929C84.3887 99.9845 84.5675 101.28 84.2549 102.502C83.9863 103.559 83.3273 104.474 82.4109 105.063C81.6234 105.541 80.72 105.794 79.799 105.794C78.878 105.794 77.9745 105.542 77.1869 105.064Z" fill="#F2E4D8"/>
<path d="M72.476 98.9185C71.452 100.352 68.993 99.9425 68.686 99.9425C67.7519 99.8213 66.8861 99.3883 66.229 98.7135C58.545 93.6905 50.965 88.5725 43.282 83.5535C42.0459 82.589 41.2437 81.173 41.0516 79.617C40.8596 78.0611 41.2935 76.4925 42.258 75.2565C43.2224 74.0204 44.6384 73.2181 46.1944 73.0261C47.7504 72.8341 49.3189 73.268 50.555 74.2325C57.418 80.7905 64.281 87.3435 71.246 93.8995C72.988 95.4355 73.398 97.6905 72.476 98.9185Z" fill="#F2E4D8"/>
<path d="M107.814 11.9534C108.327 12.7534 108.633 13.6684 108.705 14.6161C108.776 15.5638 108.611 16.5144 108.224 17.3824C104.741 26.2934 82.6199 27.2154 61.1049 28.1374C53.1149 28.4444 47.2769 28.2374 45.4329 25.6794C43.5889 22.9134 47.1739 18.9184 47.6869 18.3044C51.2719 14.2044 57.2129 12.4654 66.9439 10.9294C81.5909 8.5724 103.204 5.19239 107.814 11.9534Z" fill="#FFDA4E"/>
<path d="M77.142 21.7964C87.184 20.4964 94.701 14.6214 93.931 8.67441C93.161 2.72741 84.397 -1.04359 74.354 0.256409C64.311 1.55641 56.795 7.43641 57.565 13.3824C58.335 19.3284 67.1 23.0964 77.142 21.7964Z" fill="#FFDA4E"/>
<path d="M90.4009 107.42C90.0229 106.951 89.7459 106.408 89.5873 105.827C89.4286 105.245 89.3917 104.637 89.4789 104.04C89.5042 103.717 89.5998 103.402 89.7591 103.119C89.9183 102.836 90.1373 102.591 90.4009 102.401L102.385 88.8804C104.024 87.4464 106.994 88.2654 109.146 90.7244C111.298 93.1834 111.809 96.2554 110.17 97.6894C104.946 101.069 99.7219 104.45 94.4979 107.932C93.8763 108.379 93.1087 108.575 92.349 108.48C91.5892 108.385 90.8934 108.007 90.4009 107.42Z" fill="#F2E4D8"/>
<path d="M86.3041 112.438L94.2941 108.238L92.3481 101.99L86.2021 100.351C85.9775 100.329 85.7513 100.371 85.5493 100.471C85.3473 100.572 85.1777 100.727 85.06 100.92C84.9423 101.112 84.8813 101.334 84.884 101.56C84.8867 101.785 84.9529 102.006 85.0751 102.195L85.7921 103.219L83.5381 103.629C82.7228 103.877 81.9867 104.334 81.4031 104.955C80.8196 105.576 80.4089 106.339 80.212 107.168C80.0151 107.997 80.039 108.863 80.2811 109.68C80.5233 110.497 80.9753 111.237 81.5921 111.824C82.1975 112.436 82.9895 112.828 83.8428 112.939C84.6961 113.051 85.5622 112.874 86.3041 112.438Z" fill="#F2E4D8"/>
<path d="M105.381 104.444C104.696 104.587 103.887 104.653 102.858 104.76L102.09 104.834C100.634 104.955 99.1848 105.155 97.75 105.433C96.9109 105.619 96.0532 105.709 95.1938 105.7C93.3058 105.694 92.426 105.469 86.694 104.004L84.5438 103.45C82.107 102.814 81.1729 102.587 80.6932 102.488C80.2135 102.388 80.137 102.348 79.6543 102.211C76.8957 101.441 74.4568 100.616 71.3868 99.5955C69.37 98.9295 67.0905 98.1511 64.1954 97.2307C58.1628 95.293 50.9443 92.5197 48.4907 88.2747C47.7411 87.1084 47.293 85.7741 47.1869 84.3917L46.8864 84.4737L46.654 84.5243C46.4337 84.5422 46.2152 84.5767 46.0001 84.6275C45.6245 84.7064 45.254 84.808 44.8908 84.9318C43.921 85.2964 43.0254 85.8341 42.2477 86.5186C41.0976 87.5593 39.7031 88.2922 38.1938 88.6493L37.7981 88.7207C36.49 88.9354 35.1474 88.7265 33.9664 88.1244C33.9551 88.1024 33.9412 88.0818 33.925 88.0631C33.534 88.3933 33.1974 88.7831 32.9275 89.2181C31.8339 91.0591 30.0558 92.3921 27.982 92.9255L27.909 92.9747C26.7505 93.1838 25.5571 93.0807 24.4516 92.6759C24.169 93.2 23.7789 93.6586 23.3069 94.0215C22.8349 94.3845 22.2916 94.6437 21.7125 94.7822C21.5394 94.8243 21.3635 94.8539 21.1861 94.8706C20.5145 94.8958 19.847 94.7566 19.2416 94.4649C18.6361 94.1733 18.1111 93.7381 17.7122 93.1973C17.6354 93.0915 17.5424 92.9983 17.4368 92.9212C17.2172 92.8789 16.9919 92.8746 16.7709 92.9083C15.999 93.0774 15.1928 92.9851 14.4791 92.646C13.7654 92.3069 13.1846 91.7402 12.8281 91.035C12.1098 89.5477 12.5668 88.0131 13.9983 86.604C14.3128 86.3519 14.5644 86.0303 14.7335 85.6645C14.7828 85.407 14.791 85.1434 14.758 84.8834C14.6557 84.1419 14.7647 83.3865 15.0727 82.7042C15.3806 82.0219 15.8748 81.4404 16.4986 81.0265C16.8427 80.8103 17.2246 80.6612 17.6241 80.5871C18.2518 80.4767 18.8974 80.5304 19.4982 80.7428L19.8635 80.3904C19.0463 79.9561 18.3452 79.3321 17.819 78.5709C17.7023 78.3745 17.5362 78.2121 17.3373 78.0997C17.0051 77.8968 16.7403 77.8993 15.8979 77.9681C15.0904 78.1179 14.2606 78.0997 13.4604 77.9148C12.6602 77.7299 11.9066 77.3822 11.2466 76.8934C8.73055 74.8395 8.4365 70.7157 9.69923 67.9492C10.1704 67.0028 10.8258 66.16 11.627 65.4702C12.4282 64.7805 13.359 64.2576 14.365 63.9324C15.63 63.5397 16.7515 62.7834 17.5898 61.7579C17.8676 61.3857 18.1206 60.9955 18.3471 60.59C18.6698 59.8928 19.1438 59.2762 19.7346 58.785C20.3253 58.2938 21.0181 57.9404 21.7625 57.7503L21.963 57.7043C22.785 57.6239 23.6147 57.7149 24.3996 57.9718C25.1846 58.2286 25.9076 58.6456 26.523 59.1964C26.9833 58.6967 27.5707 58.3314 28.2224 58.1397C28.4747 58.086 28.7323 58.0612 28.9902 58.0658C29.6909 58.0616 30.3783 58.258 30.971 58.6319C30.9962 57.8743 31.195 57.1326 31.5519 56.4638C31.734 56.1276 31.9242 55.857 32.0744 55.6291C32.2482 55.3975 32.3869 55.1415 32.4858 54.8693C32.5558 54.5522 32.6482 54.2404 32.7624 53.9364C33.4225 52.3509 34.6229 51.0505 36.1507 50.266C36.9436 49.7911 37.8038 49.4388 38.702 49.2209C39.2507 49.0846 39.8221 49.0654 40.3787 49.1646C40.9354 49.2638 41.4649 49.4793 41.9327 49.7968C44.1602 51.3868 43.2666 53.9623 42.731 55.5125L42.4898 56.2082C43.0516 56.5017 43.5366 56.9232 43.9056 57.4387C44.2759 57.9514 44.5265 58.5407 44.6388 59.1631C44.751 59.7856 44.7222 60.4253 44.5543 61.0351C45.2252 61.2872 45.8293 61.6899 46.3201 62.2122C46.8109 62.7344 47.1753 63.3624 47.3852 64.0476C47.5603 64.6383 47.6449 65.2522 47.6361 65.8682C47.6375 66.0277 47.6381 66.2396 47.6597 66.5095C47.7214 67.4319 47.9561 68.3345 48.3515 69.1701L51.1718 74.9622L51.6967 75.3185C52.4784 74.8253 53.3212 74.4362 54.2037 74.1611C54.6006 74.0248 55.0056 73.9128 55.4163 73.8258C57.9823 73.3933 60.6175 73.6601 63.0448 74.5982C83.9247 81.847 91.0092 85.6344 95.1806 88.4726C97.635 89.9487 99.9072 91.7084 101.95 93.7156L102.345 94.1431C102.812 94.672 103.311 95.1726 103.838 95.6422C104.571 96.2816 105.357 96.8572 106.188 97.3627C107.136 97.9504 109.107 99.2148 108.625 101.583C108.453 102.34 108.047 103.024 107.465 103.537C106.883 104.051 106.154 104.368 105.381 104.444Z" fill="white"/>
<path d="M101.76 97.913C101.021 97.2391 100.321 96.5252 99.6605 95.7746C97.7977 93.9018 95.7209 92.2547 93.473 90.8674C89.2656 88.0365 82.0952 84.3239 62.0903 77.398C59.8849 76.5182 57.4531 76.3802 55.1623 77.0047C54.2174 77.3161 53.3307 77.782 52.5381 78.3834C52.4698 78.7461 52.379 79.1042 52.2662 79.4556C51.0034 78.5307 49.7028 77.6302 48.4278 76.8197L48.4424 76.4192L45.5301 70.4406C44.9843 69.2439 44.6698 67.9547 44.6032 66.641C44.6307 66.0486 44.5837 65.4552 44.4636 64.8744C44.0642 63.4916 42.0071 63.8657 41.3904 62.5041C40.7737 61.1424 42.1669 60.2041 41.4562 59.2037C40.9704 58.4833 40.0754 58.9444 39.5091 58.3459C38.2473 56.9754 40.982 52.8401 40.1917 52.2708C39.6222 51.8733 38.2732 52.5876 37.7109 52.9125C36.8165 53.3662 36.1031 54.1106 35.6876 55.0233C35.5426 55.3876 35.6036 55.3995 35.4245 55.9243C35.1369 56.6356 34.7601 57.3075 34.303 57.9238C33.5347 59.4187 34.9661 60.4614 34.3081 61.9892C34.08 62.5383 33.6863 63.0025 33.1818 63.3171C32.6774 63.6317 32.0874 63.7812 31.494 63.7445C30.1437 63.4286 30.0174 61.1863 28.9918 61.1676C28.2635 61.1606 28.2096 62.3522 27.2589 62.6556C25.6624 63.1907 24.2131 60.3295 22.41 60.6046C21.3256 60.7848 21.1752 61.9353 19.9532 63.5227C17.1107 67.2158 13.7556 66.2981 12.476 69.2219C12.0686 70.0772 11.9209 71.0332 12.0512 71.9716C12.1816 72.91 12.5842 73.7895 13.2093 74.5014C14.6673 75.689 16.4758 74.0752 18.8373 75.4687C20.3825 76.3635 20.1548 77.4227 21.6927 77.8846C23.2307 78.3466 24.1014 77.4507 25.4372 78.1672C26.4077 78.6318 27.3006 79.7181 27.0523 80.3835C26.804 81.049 24.5924 80.4251 22.729 81.8769C21.4776 82.8414 21.4568 83.9962 20.3753 84.1575C19.2938 84.3188 18.6588 83.3252 18.1048 83.6625C17.5508 83.9999 18.1288 85.0681 17.7113 86.5038C17.1535 88.4379 15.3513 89.1382 15.6127 89.6904C15.8741 90.2425 17.2044 89.4166 18.6996 90.1317C20.1948 90.8467 20.1669 91.8605 20.9638 91.803C21.7608 91.7456 21.8673 90.3762 23.0776 89.6674C24.4774 88.8441 25.4219 90.2718 27.2423 89.915C30.2752 89.3266 30.491 85.4331 33.4313 84.9952C35.1908 84.7325 35.2413 85.8357 37.2014 85.5269C39.7174 85.1449 40.3718 83.0876 43.736 81.8852C44.5205 81.6066 45.3335 81.416 46.1601 81.3167C46.2913 81.2108 46.4159 81.097 46.5332 80.9758C47.5302 80.9789 48.5193 81.0222 49.5027 81.0875C49.626 81.0916 49.7483 81.0643 49.8581 81.0082L51.2074 81.6661C50.782 82.1428 50.449 82.6945 50.2254 83.293C50.1324 83.8689 50.1543 84.4575 50.29 85.0249C50.4256 85.5922 50.6723 86.1271 51.0157 86.5986C53.2303 90.4355 62.1973 93.2732 65.0792 94.2796C72.4994 96.6673 76 97.985 80.4075 99.2241C81.3729 99.4969 80.6616 99.2843 85.2599 100.465C92.8298 102.468 93.4638 102.645 95.1437 102.684C97.1825 102.678 96.5927 102.329 101.75 101.783C104.001 101.563 105.424 101.509 105.541 101.003C105.659 100.497 104.083 99.8824 101.76 97.913Z" fill="#D7856A"/>
<path d="M46.151 81.3228C45.3245 81.4221 44.5115 81.6127 43.7269 81.8913C40.362 83.0943 39.7073 85.1529 37.1923 85.5331C35.2306 85.8429 35.1818 84.7386 33.4222 85.0013C30.4822 85.4378 30.2662 89.3327 27.2332 89.9211C25.3967 90.2538 24.47 88.8527 23.0686 89.6735C21.8953 90.3585 21.8617 91.7306 20.9548 91.8091C20.0478 91.8877 19.9846 90.687 18.6906 90.1378C17.3965 89.5886 15.8834 90.1651 15.6622 89.71C15.441 89.255 17.1997 88.4598 17.7577 86.5207C18.1747 85.0842 17.5973 84.0168 18.1513 83.6794C18.7052 83.3421 19.3605 84.3389 20.4217 84.1744C21.483 84.0099 21.5263 82.8616 22.7755 81.8938C24.6638 80.4252 26.8138 81.321 27.0987 80.4005C27.3837 79.4799 26.4523 78.6512 25.4836 78.1841C24.099 77.5006 23.25 78.4288 21.7392 77.9015C20.2284 77.3743 20.4317 76.3846 18.8837 75.4856C16.5296 74.1281 14.7041 75.7148 13.2594 74.5219C12.6223 73.8133 12.2083 72.9326 12.0689 71.99C11.9296 71.0473 12.0712 70.0845 12.4761 69.2218C13.7563 66.2989 17.0781 67.2727 19.9524 63.5233C21.1731 61.9356 21.3385 60.811 22.4079 60.6049C24.2039 60.3176 25.6533 63.1787 27.2604 62.6631C28.2111 62.3597 28.2617 61.1703 28.9933 61.175C30.011 61.1821 30.1458 63.4368 31.4955 63.752C32.0889 63.7886 32.6789 63.6392 33.1833 63.3245C33.6878 63.0099 34.0815 62.5457 34.3096 61.9967C34.9671 60.468 33.5237 59.4346 34.3045 57.9313C34.74 57.3183 35.0974 56.6535 35.3687 55.9523C35.5456 55.4242 35.4862 55.4112 35.6318 55.0513C36.0464 54.1367 36.7601 53.3905 37.6553 52.9355C38.1925 52.5733 39.5661 51.8955 40.1361 52.2938C40.9281 52.862 38.1917 56.9984 39.4535 58.3689C40.0166 58.9661 40.8883 58.5205 41.4006 59.2266C42.0429 60.1792 40.7821 61.3139 41.3348 62.527C41.8875 63.7402 44.0081 63.5138 44.408 64.8974C44.5483 65.4692 44.6161 66.0564 44.6097 66.6451C44.6958 67.9714 45.0343 69.2691 45.6068 70.4685L48.5191 76.447C48.5204 77.3608 48.3228 78.2639 47.9402 79.0937C47.5189 79.9618 46.9074 80.7237 46.151 81.3228Z" fill="#3BB5A0"/>
<path d="M51.5832 80.8411C48.8977 78.6955 46.0586 76.7494 43.0889 75.0184C41.6015 74.1557 40.0285 73.4039 38.4871 72.5415C36.9456 71.6792 35.4354 71.0454 33.8418 70.3436C32.274 69.6491 30.6517 69.0849 28.9913 68.6568C27.3328 68.2629 25.6245 68.1212 23.9239 68.2364C22.2092 68.3926 20.5324 68.8329 18.9621 69.5393C17.3897 70.2564 15.9301 71.1988 14.6294 72.3367C15.8949 71.1458 17.3262 70.1445 18.8788 69.364C20.4439 68.5913 22.1275 68.0867 23.8596 67.871C25.6314 67.6902 27.4206 67.791 29.1609 68.1697C30.88 68.5326 32.5643 69.0439 34.195 69.6978C35.8367 70.3672 37.4299 71.0704 38.9986 71.789C40.5673 72.5076 42.1382 73.2258 43.7098 74.0847C46.7971 75.7303 49.7608 77.5978 52.5776 79.6725C52.7407 79.7958 52.849 79.9781 52.8791 80.1803C52.9093 80.3825 52.8589 80.5885 52.7389 80.754C52.6205 80.9193 52.4414 81.0308 52.2408 81.064C52.0403 81.0973 51.8347 81.0495 51.6694 80.9313L51.666 80.9263L51.5832 80.8411Z" fill="#4295A0"/>
<path d="M53.0948 82.2386C51.1848 80.851 49.1967 79.5745 47.1401 78.4153C45.0721 77.262 42.937 76.2336 40.7462 75.3356C38.5462 74.4376 36.2889 73.6872 33.9892 73.0891C31.684 72.4791 29.3423 72.0164 26.9783 71.7037C29.3619 71.8844 31.7311 72.2204 34.0709 72.7096C36.4271 73.1925 38.7493 73.8285 41.0227 74.6136C43.2973 75.4054 45.5212 76.3359 47.6819 77.3999C49.8605 78.4727 51.977 79.6674 54.0213 80.9783C54.1209 81.0304 54.2084 81.1028 54.2781 81.191C54.3478 81.2791 54.3982 81.381 54.4259 81.4899C54.4536 81.5988 54.458 81.7123 54.4389 81.8231C54.4198 81.9338 54.3776 82.0393 54.315 82.1326C54.2524 82.226 54.1709 82.3051 54.0757 82.3648C53.9805 82.4245 53.8738 82.4635 53.7625 82.4792C53.6512 82.4949 53.5379 82.487 53.4298 82.4559C53.3218 82.4249 53.2216 82.3715 53.1356 82.2991L53.0948 82.2386Z" fill="#4295A0"/>
<path d="M51.9859 82.0444C49.8397 80.9256 47.617 79.9601 45.3345 79.1552C43.046 78.3457 40.7009 77.7061 38.3183 77.2415C35.9302 76.7729 33.5111 76.48 31.0802 76.3651C28.6356 76.2555 26.1863 76.3216 23.7512 76.5629C26.1817 76.1891 28.6358 75.9892 31.0947 75.9645C33.5771 75.9392 36.058 76.0954 38.5176 76.4318C40.9692 76.7796 43.3918 77.3077 45.7658 78.0117C48.1456 78.7115 50.4739 79.5757 52.7339 80.5981C52.9005 80.6961 53.0249 80.8524 53.083 81.0367C53.141 81.2211 53.1286 81.4205 53.0482 81.5962C52.9678 81.772 52.825 81.9117 52.6476 81.9883C52.4701 82.0649 52.2705 82.0729 52.0875 82.0109L51.9859 82.0444Z" fill="#4295A0"/>
<path d="M49.5037 81.1049C46.7579 80.8906 43.9973 80.9656 41.2672 81.3286C38.5179 81.7271 35.8086 82.3649 33.1702 83.2346C27.9141 84.9433 22.6962 86.9102 17.5164 89.1351C22.5494 86.7181 27.7111 84.5171 32.9613 82.5795C35.5903 81.5566 38.3043 80.7669 41.0717 80.2195C43.8607 79.7178 46.694 79.5045 49.5267 79.5832C49.7302 79.5917 49.9224 79.6794 50.0622 79.8275C50.2019 79.9757 50.2783 80.1726 50.2749 80.3762C50.2702 80.5793 50.185 80.7722 50.0382 80.9125C49.8914 81.0529 49.6949 81.1293 49.4919 81.125L49.4827 81.1239L49.5037 81.1049Z" fill="#4295A0"/>
<path d="M51.6695 80.8903C48.4828 78.8956 45.7073 76.3093 43.4929 73.2712C42.3837 71.7732 41.4265 70.1686 40.6354 68.4809C39.8679 66.7887 39.2731 65.0234 38.86 63.2118L37.8707 56.0789L39.1827 63.1896C39.6995 64.9357 40.3872 66.6265 41.2359 68.2376C42.0881 69.8307 43.1009 71.3327 44.2584 72.72C46.5291 75.5236 49.3155 77.8667 52.467 79.6229C52.6469 79.7232 52.7798 79.8906 52.8367 80.0886C52.8936 80.2866 52.8699 80.499 52.7707 80.6795C52.7218 80.7675 52.6561 80.8449 52.5773 80.9074C52.4985 80.9699 52.4082 81.0163 52.3114 81.0439C52.2147 81.0715 52.1135 81.0798 52.0135 81.0683C51.9136 81.0568 51.8169 81.0257 51.729 80.9768L51.6695 80.8903Z" fill="#4295A0"/>
<path d="M50.2503 83.2907C50.5391 82.2434 51.3581 81.8503 52.0897 80.274C52.3406 79.6873 52.5228 79.0736 52.6327 78.445C53.4259 77.8428 54.3135 77.3763 55.2594 77.0646C57.5502 76.4401 59.982 76.5782 62.1874 77.4579C82.0958 84.3247 89.2782 88.0461 93.4996 90.9085C95.7475 92.2958 97.8243 93.9429 99.6871 95.8157C100.347 96.5663 101.048 97.2802 101.786 97.9541C104.056 99.9774 105.722 100.417 105.61 100.991C105.499 101.564 104.085 101.575 101.819 101.771C96.6285 102.268 97.2182 102.617 95.2124 102.672C93.5658 102.68 92.8968 102.457 85.3286 100.452C80.7297 99.2709 81.4578 99.5083 80.4762 99.2115C76.0811 97.964 72.569 96.6542 65.1479 94.267C62.26 93.3286 53.2852 90.4793 51.0819 86.5805C50.7335 86.1139 50.4807 85.5831 50.338 85.0185C50.1953 84.4539 50.1655 83.8668 50.2503 83.2907Z" fill="#EF8825"/>
<path d="M76.2876 83.1956C76.2299 84.1912 75.9576 85.1626 75.4895 86.0432C75.0623 86.8492 74.4588 87.5484 73.7238 88.0888C74.109 87.3405 74.3238 86.5162 74.3525 85.675C74.3993 84.9179 74.2663 84.1605 73.9643 83.4647L76.2876 83.1956Z" fill="#D7856A"/>
<path d="M78.9244 84.3661C78.8668 85.3549 78.5957 86.3194 78.1295 87.1933C77.6951 88.001 77.0916 88.7053 76.3601 89.2584C76.7553 88.5181 76.9799 87.6987 77.0174 86.8603C77.057 86.1043 76.9246 85.3491 76.6303 84.6516L78.9244 84.3661Z" fill="#D7856A"/>
<path d="M85.9333 86.8538C85.8759 87.8496 85.6038 88.8213 85.1358 89.7021C84.6997 90.508 84.0924 91.2085 83.3566 91.7545C83.7538 91.019 83.9812 90.2038 84.0223 89.3689C84.0595 88.613 83.9273 87.8583 83.6352 87.1601L85.9333 86.8538Z" fill="#D7856A"/>
<path d="M71.3365 81.1484C71.3928 82.9574 71.0538 84.7568 70.3432 86.4213C69.6728 88.0155 68.6702 89.4485 67.4022 90.6245C68.3235 89.261 68.9487 87.7196 69.2375 86.0996C69.5049 84.5551 69.4367 82.9711 69.0375 81.4553L71.3365 81.1484Z" fill="#D7856A"/>
<path d="M94.3579 108.587H90.2429V90.1003C90.1926 89.4999 90.38 88.9037 90.7646 88.44C91.1493 87.9762 91.7005 87.6819 92.2999 87.6204C92.8995 87.6817 93.451 87.9759 93.8359 88.4397C94.2208 88.9035 94.4082 89.4998 94.3579 90.1003V108.587Z" fill="white"/>
<path d="M102.588 108.587H98.4729V90.1003C98.4226 89.4998 98.6101 88.9035 98.995 88.4397C99.3798 87.9759 99.9313 87.6817 100.531 87.6204C101.13 87.6819 101.682 87.9762 102.066 88.44C102.451 88.9037 102.638 89.4999 102.588 90.1003V108.587Z" fill="white"/>
<path d="M110.817 108.587H106.702V90.1003C106.652 89.4998 106.839 88.9035 107.224 88.4397C107.609 87.9759 108.16 87.6817 108.76 87.6204C109.359 87.6819 109.911 87.9762 110.295 88.44C110.68 88.9037 110.867 89.4999 110.817 90.1003V108.587Z" fill="white"/>
<path d="M119.047 108.587H114.932V90.1003C114.882 89.4998 115.069 88.9035 115.454 88.4397C115.839 87.9759 116.39 87.6817 116.99 87.6204C117.589 87.6819 118.14 87.9762 118.525 88.44C118.91 88.9037 119.097 89.4999 119.047 90.1003V108.587Z" fill="white"/>
<path d="M127.277 108.587H123.162V90.1003C123.112 89.4998 123.299 88.9035 123.684 88.4397C124.069 87.9759 124.62 87.6817 125.22 87.6204C125.819 87.6819 126.371 87.9762 126.755 88.44C127.14 88.9037 127.327 89.4999 127.277 90.1003V108.587Z" fill="white"/>
<path d="M125.219 92.7664H90.2429V95.2474H125.219V92.7664Z" fill="white"/>
<path d="M125.219 100.209H90.2429V102.69H125.219V100.209Z" fill="white"/>
<path d="M61.4389 108.587H57.322V90.1003C57.2717 89.4999 57.4589 88.9037 57.8436 88.44C58.2283 87.9762 58.7796 87.6819 59.379 87.6204C59.9786 87.6817 60.53 87.9759 60.9149 88.4397C61.2998 88.9035 61.4873 89.4998 61.437 90.1003L61.4389 108.587Z" fill="white"/>
<path d="M69.6688 108.587H65.5578V90.1003C65.5075 89.4999 65.6949 88.9037 66.0796 88.44C66.4642 87.9762 67.0155 87.6819 67.6148 87.6204C68.2144 87.6817 68.766 87.9759 69.1509 88.4397C69.5357 88.9035 69.7231 89.4998 69.6728 90.1003L69.6688 108.587Z" fill="white"/>
<path d="M77.893 108.587H73.7781V90.1003C73.7278 89.4999 73.915 88.9037 74.2997 88.44C74.6843 87.9762 75.2356 87.6819 75.8349 87.6204C76.4345 87.6817 76.9861 87.9759 77.371 88.4397C77.7558 88.9035 77.9433 89.4998 77.893 90.1003V108.587Z" fill="white"/>
<path d="M86.1289 108.587H82.0139V90.1003C81.9636 89.4999 82.1508 88.9037 82.5355 88.44C82.9202 87.9762 83.4715 87.6819 84.0709 87.6204C84.6705 87.6817 85.222 87.9759 85.6069 88.4397C85.9918 88.9035 86.1792 89.4998 86.1289 90.1003V108.587Z" fill="white"/>
<path d="M94.3579 108.587H90.2429V90.1003C90.1926 89.4999 90.38 88.9037 90.7646 88.44C91.1493 87.9762 91.7005 87.6819 92.2999 87.6204C92.8995 87.6817 93.451 87.9759 93.8359 88.4397C94.2208 88.9035 94.4082 89.4998 94.3579 90.1003V108.587Z" fill="white"/>
<path d="M92.3 92.7664H57.324V95.2474H92.3V92.7664Z" fill="white"/>
<path d="M92.3 100.209H57.324V102.69H92.3V100.209Z" fill="white"/>
<path d="M28.519 108.587H24.405V90.1003C24.3547 89.4999 24.5421 88.9037 24.9267 88.44C25.3114 87.9762 25.8626 87.6819 26.462 87.6204C27.0614 87.6819 27.6126 87.9762 27.9973 88.44C28.382 88.9037 28.5693 89.4999 28.519 90.1003V108.587Z" fill="white"/>
<path d="M36.75 108.587H32.635V90.1003C32.5847 89.4999 32.7721 88.9037 33.1567 88.44C33.5414 87.9762 34.0926 87.6819 34.692 87.6204C35.2916 87.6817 35.8431 87.9759 36.228 88.4397C36.6129 88.9035 36.8003 89.4998 36.75 90.1003V108.587Z" fill="white"/>
<path d="M44.9801 108.587H40.865V90.1003C40.8147 89.4999 41.002 88.9037 41.3867 88.44C41.7714 87.9762 42.3226 87.6819 42.922 87.6204C43.5215 87.6817 44.0731 87.9759 44.458 88.4397C44.8429 88.9035 45.0304 89.4998 44.9801 90.1003V108.587Z" fill="white"/>
<path d="M53.209 108.587H49.094V90.1003C49.0437 89.4999 49.2309 88.9037 49.6156 88.44C50.0002 87.9762 50.5516 87.6819 51.151 87.6204C51.7505 87.6817 52.302 87.9759 52.6869 88.4397C53.0717 88.9035 53.2593 89.4998 53.209 90.1003V108.587Z" fill="white"/>
<path d="M61.4389 108.587H57.322V90.1003C57.2717 89.4999 57.4589 88.9037 57.8436 88.44C58.2283 87.9762 58.7796 87.6819 59.379 87.6204C59.9786 87.6817 60.53 87.9759 60.9149 88.4397C61.2998 88.9035 61.4873 89.4998 61.437 90.1003L61.4389 108.587Z" fill="white"/>
<path d="M59.381 92.7664H24.405V95.2474H59.381V92.7664Z" fill="white"/>
<path d="M59.381 100.209H24.405V102.69H59.381V100.209Z" fill="white"/>
<path d="M160.195 108.587H156.08V90.1003C156.03 89.4998 156.217 88.9035 156.602 88.4397C156.987 87.9759 157.538 87.6817 158.138 87.6204C158.737 87.6819 159.289 87.9762 159.673 88.44C160.058 88.9037 160.245 89.4999 160.195 90.1003V108.587Z" fill="white"/>
<path d="M168.425 108.587H164.31V90.1003C164.26 89.4999 164.447 88.9037 164.832 88.44C165.216 87.9762 165.768 87.6819 166.367 87.6204C166.967 87.6817 167.518 87.9759 167.903 88.4397C168.288 88.9035 168.475 89.4998 168.425 90.1003V108.587Z" fill="white"/>
<path d="M176.655 108.587H172.54V90.1003C172.49 89.4999 172.677 88.9037 173.062 88.44C173.446 87.9762 173.998 87.6819 174.597 87.6204C175.197 87.6817 175.748 87.9759 176.133 88.4397C176.518 88.9035 176.705 89.4998 176.655 90.1003V108.587Z" fill="white"/>
<path d="M184.885 108.587H180.77V90.1003C180.72 89.4999 180.907 88.9037 181.292 88.44C181.676 87.9762 182.228 87.6819 182.827 87.6204C183.427 87.6817 183.978 87.9759 184.363 88.4397C184.748 88.9035 184.935 89.4998 184.885 90.1003V108.587Z" fill="white"/>
<path d="M193.115 108.587H189V90.1003C188.95 89.4999 189.137 88.9037 189.522 88.44C189.906 87.9762 190.458 87.6819 191.057 87.6204C191.657 87.6817 192.208 87.9759 192.593 88.4397C192.978 88.9035 193.165 89.4998 193.115 90.1003V108.587Z" fill="white"/>
<path d="M191.056 92.7664H156.08V95.2474H191.056V92.7664Z" fill="white"/>
<path d="M191.056 100.209H156.08V102.69H191.056V100.209Z" fill="white"/>
<path d="M127.277 108.587H123.162V90.1003C123.112 89.4998 123.299 88.9035 123.684 88.4397C124.069 87.9759 124.621 87.6817 125.22 87.6204C125.819 87.6819 126.371 87.9762 126.755 88.44C127.14 88.9037 127.327 89.4999 127.277 90.1003V108.587Z" fill="white"/>
<path d="M135.507 108.587H131.392V90.1003C131.342 89.4998 131.529 88.9035 131.914 88.4397C132.299 87.9759 132.85 87.6817 133.45 87.6204C134.049 87.6819 134.601 87.9762 134.985 88.44C135.37 88.9037 135.557 89.4999 135.507 90.1003V108.587Z" fill="white"/>
<path d="M143.736 108.587H139.621V90.1003C139.571 89.4998 139.758 88.9035 140.143 88.4397C140.528 87.9759 141.08 87.6817 141.679 87.6204C142.279 87.6819 142.83 87.9762 143.214 88.44C143.599 88.9037 143.786 89.4999 143.736 90.1003V108.587Z" fill="white"/>
<path d="M151.967 108.587H147.851V90.1003C147.801 89.4998 147.988 88.9035 148.373 88.4397C148.758 87.9759 149.309 87.6817 149.909 87.6204C150.509 87.6817 151.06 87.9759 151.445 88.4397C151.83 88.9035 152.017 89.4998 151.967 90.1003V108.587Z" fill="white"/>
<path d="M160.196 108.587H156.081V90.1003C156.031 89.4998 156.218 88.9035 156.603 88.4397C156.988 87.9759 157.539 87.6817 158.139 87.6204C158.738 87.6819 159.29 87.9762 159.674 88.44C160.059 88.9037 160.246 89.4999 160.196 90.1003V108.587Z" fill="white"/>
<path d="M158.138 92.7664H123.162V95.2474H158.138V92.7664Z" fill="white"/>
<path d="M158.138 100.209H123.162V102.69H158.138V100.209Z" fill="white"/>
<path d="M28.0499 132.004L8.24292 142.984L23.6289 152.721L22.4219 170.255C22.4219 170.255 59.6438 148.269 61.2148 150.761" fill="#3BB5A0"/>
<path d="M61.2159 150.761C63.1349 150.735 56.0849 138.961 56.0849 138.961L39.2619 147.504C39.2619 147.504 32.2539 151.149 61.2159 150.761Z" fill="#16816F"/>
<path d="M180.856 124.207L198.956 133.207L186.668 144.387L189.407 161.714C189.407 161.714 155.26 143.452 154.15 146.083" fill="#3BB5A0"/>
<path d="M154.151 146.091C152.497 146.252 157.419 133.857 157.419 133.857L172.719 140.724C172.719 140.724 179.097 143.667 154.151 146.091Z" fill="#16816F"/>
<path d="M20.356 126.127L39.2999 148.794C39.2999 148.794 77.5289 133.694 98.5089 132.794C119.489 131.894 146.518 135.494 173.77 142.217L188.817 116.45C188.817 116.45 157.627 92.8113 101.958 98.7033C101.958 98.7063 49.835 99.0573 20.356 126.127Z" fill="#3BB5A0"/>
<path d="M68.8749 121.145C68.4914 122.55 67.9358 123.903 67.2208 125.171C67.8478 126.318 68.4208 126.957 68.8398 126.865C69.1318 126.8 69.1489 125.995 68.8529 124.089C69.3209 124.46 69.8604 124.731 70.4379 124.883C70.6959 127.747 70.3189 128.558 69.0659 128.837C68.0599 129.061 67.0989 128.278 66.1769 126.851C65.5527 127.775 64.836 128.633 64.0378 129.411C63.6149 128.935 63.1357 128.513 62.6108 128.152C63.6016 127.264 64.4783 126.256 65.2208 125.152C64.5913 123.819 64.0457 122.447 63.5869 121.045C62.4289 121.321 61.8509 121.464 60.6969 121.755C60.8629 122.481 60.9469 122.843 61.1119 123.569C61.7979 123.244 62.4969 122.903 63.1879 122.585C63.3879 123.261 63.4879 123.599 63.6879 124.276C62.8179 124.708 62.3879 124.926 61.5199 125.366C61.7679 126.454 61.8919 126.999 62.1389 128.087C62.3739 129.121 62.2908 129.679 61.8188 130.122C61.1187 130.64 60.307 130.987 59.4489 131.134C59.1763 130.511 58.828 129.924 58.4119 129.386C59.1919 129.225 59.9899 128.986 60.2289 128.917C60.4679 128.848 60.5409 128.752 60.4799 128.497L59.9379 126.197C59.0949 126.636 58.2848 127.073 57.5898 127.431C57.2408 126.715 57.0659 126.357 56.7129 125.642C57.4729 125.281 58.4369 124.834 59.4939 124.323L58.9939 122.194C57.9209 122.473 57.3859 122.617 56.3169 122.909C56.1379 122.193 56.0479 121.836 55.8679 121.12C56.9449 120.826 57.4849 120.682 58.5679 120.4C58.3959 119.676 58.3089 119.314 58.1359 118.591C57.3919 118.937 56.6279 119.257 55.9199 119.551C55.6794 119.037 55.3822 118.55 55.0339 118.101C56.9169 117.292 58.7381 116.345 60.4829 115.269C61.0959 115.796 61.4019 116.062 62.0089 116.593C61.3359 117.008 60.5849 117.411 59.7899 117.813C59.9899 118.672 60.0899 119.101 60.2899 119.96C61.3899 119.682 61.9409 119.547 63.0449 119.283C62.6169 117.875 62.2449 116.403 61.9149 114.956C62.6469 114.78 63.0148 114.694 63.7468 114.524C64.0328 116.016 64.4038 117.488 64.8138 118.867C66.3808 118.505 67.1659 118.331 68.7399 117.996L69.0859 119.808C67.5939 120.126 66.8489 120.29 65.3629 120.633C65.6759 121.566 66.0099 122.46 66.3329 123.24C66.7087 122.442 67.0132 121.612 67.2429 120.76C67.8929 120.905 68.2209 120.983 68.8749 121.145ZM67.1379 117.85C66.381 117.003 65.5051 116.27 64.5378 115.674C64.9828 115.164 65.2059 114.909 65.6559 114.401C66.6336 114.97 67.5306 115.667 68.3229 116.474C67.8449 117.022 67.6079 117.296 67.1379 117.845V117.85Z" fill="white"/>
<path d="M84.4119 113.079C84.4119 113.079 84.4899 113.728 84.5039 113.956C85.1889 121.226 85.3328 123.824 84.8608 124.768C84.75 125.032 84.5812 125.267 84.3671 125.456C84.1529 125.645 83.8989 125.783 83.6239 125.86C82.9058 126.047 82.1731 126.174 81.4338 126.239C81.2877 125.596 81.0132 124.989 80.6268 124.454C81.5408 124.401 82.3719 124.27 82.7389 124.213C82.8593 124.204 82.9756 124.166 83.0776 124.101C83.1797 124.037 83.2642 123.948 83.3239 123.843C83.6669 123.263 83.5479 120.806 82.9789 115.067C81.7219 115.253 81.0948 115.351 79.8408 115.554C79.6231 116.502 79.3175 117.428 78.9279 118.319C78.5284 118.052 78.1107 117.814 77.6779 117.605C78.1349 120.619 78.3609 122.127 78.8099 125.142C77.3099 125.403 76.5649 125.542 75.0719 125.826C75.1509 126.296 75.1899 126.526 75.2719 127.001C74.6719 127.116 74.3719 127.175 73.7719 127.294C72.9459 122.514 72.5269 120.126 71.6809 115.35C72.3419 115.219 72.6729 115.15 73.3359 115.028C73.3941 114.139 73.3903 113.246 73.3248 112.357C74.1158 112.328 74.5109 112.315 75.3009 112.292C75.1789 113.143 75.0429 113.992 74.9059 114.735C75.8159 114.569 76.2718 114.487 77.1838 114.329C77.3438 115.375 77.4229 115.897 77.5839 116.943C78.2645 115.17 78.6745 113.305 78.7999 111.41C79.4999 111.467 79.8468 111.497 80.5428 111.559C80.4819 112.279 80.3841 112.995 80.2499 113.704C81.9069 113.44 82.7409 113.314 84.4119 113.079ZM75.8599 116.287C74.9329 116.454 74.4698 116.54 73.5438 116.716C73.7208 117.759 73.8099 118.281 73.9849 119.323C74.8999 119.148 75.3579 119.063 76.2759 118.897C76.1089 117.854 76.0239 117.331 75.8589 116.287H75.8599ZM77.0328 123.719C76.8328 122.455 76.7328 121.819 76.5328 120.559C75.6218 120.724 75.1689 120.808 74.2599 120.981C74.4729 122.243 74.5778 122.874 74.7888 124.135C75.6858 123.965 76.1349 123.881 77.0319 123.719H77.0328ZM81.6108 122.047C80.8496 120.856 80.0087 119.717 79.0939 118.639C79.5819 118.206 79.8269 117.991 80.3179 117.562C81.2494 118.595 82.1177 119.683 82.9178 120.82C82.3928 121.308 82.1309 121.553 81.6099 122.046L81.6108 122.047Z" fill="white"/>
<path d="M99.645 115.41C99.311 117.387 98.5466 119.267 97.406 120.915C98.7142 121.603 100.138 122.044 101.606 122.215C101.19 122.782 100.851 123.401 100.596 124.056C99.0095 123.808 97.4915 123.235 96.137 122.372C95.0848 123.393 93.8716 124.233 92.546 124.858C92.2457 124.304 91.879 123.789 91.454 123.323C92.6554 122.831 93.756 122.123 94.7009 121.232C93.8434 120.384 93.1135 119.416 92.5339 118.358C92.1153 120.605 91.212 122.733 89.887 124.595C89.4403 124.105 88.9041 123.704 88.307 123.414C90.514 120.791 91.1469 117.014 91.2739 114.014C89.9269 114.165 89.254 114.246 87.91 114.414C87.83 113.661 87.79 113.284 87.71 112.531C89.148 112.349 89.8679 112.263 91.3099 112.103C91.2879 111.038 91.224 110.176 91.21 109.669C91.956 109.587 92.33 109.547 93.077 109.469C93.096 110.058 93.137 110.907 93.131 111.907C96.142 111.596 97.652 111.465 100.678 111.251C100.717 112.007 100.736 112.385 100.778 113.142C97.699 113.361 96.163 113.496 93.098 113.815C93.07 114.359 93.027 114.922 92.959 115.515C95.015 115.299 96.044 115.201 98.106 115.03L98.4249 114.921C98.9099 115.119 99.155 115.219 99.645 115.41ZM93.7949 117.326C94.3431 118.296 95.0617 119.158 95.916 119.872C96.5688 119 97.0698 118.024 97.3979 116.985C95.9549 117.11 95.2349 117.178 93.7949 117.326Z" fill="white"/>
<path d="M117.396 116.82C117.383 117.414 117.377 117.711 117.364 118.305C112.064 118.305 109.42 118.383 104.151 118.688C104.13 118.094 104.12 117.797 104.098 117.204C105.121 117.145 105.633 117.118 106.658 117.07C106.525 116.684 106.348 116.315 106.129 115.97C106.573 115.844 106.796 115.781 107.241 115.657C106.157 115.705 105.616 115.732 104.533 115.792C104.514 115.225 104.504 114.941 104.484 114.373C106.591 114.256 107.646 114.21 109.759 114.141C109.759 113.88 109.759 113.749 109.751 113.488C108.186 113.54 107.404 113.571 105.842 113.649C105.826 113.101 105.818 112.827 105.801 112.279C107.373 112.202 108.159 112.17 109.733 112.118C109.733 111.876 109.733 111.756 109.725 111.518C107.757 111.582 106.774 111.624 104.811 111.729C104.792 111.168 104.783 110.887 104.763 110.329C105.781 110.274 106.29 110.251 107.309 110.207C107.125 109.765 106.896 109.343 106.626 108.947C107.274 108.708 107.6 108.591 108.251 108.357C108.6 108.791 108.881 109.276 109.082 109.795C108.716 109.945 108.533 110.02 108.168 110.172C109.768 110.11 110.568 110.086 112.168 110.05C112.453 109.476 112.694 108.882 112.891 108.272C113.658 108.388 114.041 108.448 114.808 108.572C114.575 109.069 114.314 109.552 114.026 110.018C115.059 110.003 115.577 109.999 116.611 109.995C116.603 110.557 116.599 110.838 116.59 111.395C114.581 111.402 113.576 111.416 111.571 111.466C111.571 111.708 111.571 111.828 111.571 112.066C113.188 112.027 113.997 112.014 115.617 112.001C115.611 112.549 115.608 112.823 115.601 113.371C113.991 113.383 113.186 113.396 111.579 113.436C111.579 113.697 111.579 113.828 111.579 114.089C113.741 114.035 114.823 114.021 116.988 114.017C116.977 114.585 116.973 114.869 116.962 115.437C115.874 115.437 115.33 115.443 114.242 115.458C114.72 115.53 114.959 115.567 115.436 115.64C115.236 116.099 115.057 116.477 114.907 116.84C115.906 116.823 116.402 116.82 117.396 116.82ZM106.143 119.186C109.843 119.004 111.698 118.95 115.413 118.917C115.388 120.739 115.375 121.65 115.348 123.471C114.648 123.477 114.303 123.482 113.607 123.493C113.607 123.31 113.607 123.219 113.607 123.036C111.326 123.074 110.187 123.108 107.913 123.205L107.922 123.711C107.256 123.739 106.922 123.754 106.259 123.787C106.216 121.947 106.193 121.026 106.144 119.183L106.143 119.186ZM107.815 115.631C108.071 115.995 108.274 116.394 108.415 116.816L107.744 117.022C109.9 116.932 110.978 116.9 113.144 116.86C113.307 116.401 113.516 115.891 113.62 115.46C111.29 115.501 110.131 115.535 107.816 115.631H107.815ZM107.869 120.594C107.877 121.044 107.881 121.269 107.89 121.719C110.179 121.619 111.326 121.589 113.622 121.55C113.622 121.1 113.622 120.874 113.63 120.424C111.322 120.463 110.17 120.497 107.869 120.594Z" fill="white"/>
<path d="M132.85 120.821C132.05 121.11 131.235 121.421 130.491 121.637C131.41 122.053 132.383 122.342 133.381 122.493C132.974 122.933 132.632 123.427 132.363 123.961C129.423 123.307 127.663 122.012 126.679 119.734C126.155 119.713 125.892 119.703 125.369 119.685C125.324 120.467 125.302 120.858 125.256 121.64C126.139 121.481 126.581 121.405 127.469 121.254C127.407 121.752 127.373 122.253 127.369 122.754C124.239 123.382 123.743 123.503 123.447 123.691C123.389 123.165 123.255 122.65 123.047 122.163C123.254 122.056 123.425 121.891 123.54 121.688C123.655 121.486 123.709 121.254 123.696 121.021C123.724 120.467 123.738 120.19 123.766 119.636C123.394 119.625 123.207 119.621 122.834 119.612C122.603 121.025 122.072 122.372 121.276 123.561C120.852 123.17 120.384 122.83 119.882 122.547C120.987 120.792 121.552 118.752 121.509 116.678C121.542 115.837 121.558 115.416 121.59 114.578C126.29 114.662 128.648 114.763 133.362 115.087C133.314 115.633 133.29 115.907 133.241 116.453C129.224 116.178 127.216 116.085 123.207 115.984C123.198 116.184 123.193 116.284 123.184 116.49C126.955 116.584 128.843 116.669 132.621 116.918L132.521 118.118C128.757 117.87 126.876 117.786 123.121 117.692C123.098 117.87 123.076 118.049 123.065 118.244C127.206 118.344 129.279 118.444 133.428 118.733C133.378 119.279 133.353 119.553 133.303 120.099C132.837 120.067 132.603 120.05 132.137 120.02C132.419 120.34 132.563 120.501 132.85 120.821ZM132.81 114.538C128.367 114.245 126.146 114.151 121.71 114.069C121.784 112.157 121.819 111.202 121.889 109.291C123.117 109.314 123.731 109.329 124.96 109.369C124.979 108.969 124.989 108.769 125.009 108.369C125.718 108.392 126.072 108.404 126.781 108.432C126.758 108.832 126.747 109.032 126.724 109.426C127.308 109.449 127.601 109.461 128.184 109.488C128.21 109.088 128.222 108.888 128.247 108.494C128.962 108.526 129.319 108.544 130.035 108.582C130.008 108.982 129.994 109.182 129.965 109.576C131.265 109.644 131.911 109.683 133.209 109.769C133.054 111.679 132.973 112.632 132.81 114.538ZM123.469 111.153C124.03 111.168 124.311 111.175 124.869 111.193C124.882 110.933 124.888 110.803 124.901 110.542C124.339 110.524 124.057 110.517 123.494 110.502C123.489 110.763 123.48 110.893 123.469 111.15V111.153ZM123.39 112.914C123.947 112.929 124.226 112.936 124.784 112.954C124.797 112.693 124.803 112.563 124.817 112.302C124.258 112.284 123.979 112.277 123.417 112.262C123.408 112.523 123.403 112.65 123.389 112.914H123.39ZM126.661 110.605C126.646 110.865 126.638 110.995 126.623 111.255C127.202 111.278 127.493 111.29 128.072 111.316C128.089 111.056 128.097 110.926 128.114 110.666C127.534 110.64 127.243 110.627 126.662 110.605H126.661ZM126.561 112.364C126.546 112.624 126.539 112.755 126.523 113.015C127.098 113.037 127.386 113.05 127.962 113.075C127.979 112.815 127.987 112.685 128.004 112.424C127.426 112.399 127.137 112.386 126.56 112.364H126.561ZM128.326 119.806C128.56 120.188 128.862 120.524 129.217 120.798C129.857 120.561 130.48 120.279 131.081 119.955C129.978 119.889 129.427 119.86 128.325 119.807L128.326 119.806ZM131.387 110.835C130.787 110.8 130.487 110.783 129.887 110.752C129.868 111.012 129.86 111.141 129.842 111.402C130.442 111.434 130.742 111.451 131.342 111.486L131.387 110.835ZM131.252 112.592C130.652 112.557 130.359 112.54 129.763 112.51L129.717 113.16C130.311 113.192 130.608 113.208 131.201 113.243C131.221 112.984 131.231 112.85 131.251 112.593L131.252 112.592Z" fill="white"/>
<path d="M144.212 117.985C144.058 118.23 143.875 118.472 143.692 118.714C146.085 118.988 147.282 119.14 149.675 119.477C149.675 119.477 149.59 119.91 149.538 120.134C148.825 123.248 148.361 124.503 147.923 124.918C147.787 125.054 147.626 125.161 147.448 125.233C147.271 125.305 147.081 125.341 146.889 125.338C146.401 125.329 145.915 125.277 145.436 125.184C145.478 124.662 145.421 124.136 145.268 123.634C145.604 123.711 145.944 123.771 146.286 123.812C146.367 123.834 146.452 123.834 146.532 123.812C146.613 123.791 146.687 123.75 146.747 123.691C146.986 123.475 147.286 122.675 147.747 120.744L147.177 120.669C146.33 122.399 145.099 123.911 143.577 125.09C143.296 124.63 142.938 124.222 142.517 123.885C143.86 123.041 144.969 121.872 145.74 120.485L144.877 120.379C143.833 121.868 142.489 123.121 140.932 124.057C140.672 123.592 140.341 123.17 139.95 122.808C141.241 122.189 142.382 121.297 143.296 120.195L142.417 120.095C141.84 120.637 141.203 121.109 140.517 121.503C140.241 121.045 139.905 120.625 139.517 120.256C138.395 120.737 137.283 121.227 136.345 121.64C136.173 120.84 136.086 120.44 135.908 119.64C136.427 119.469 137.072 119.245 137.796 118.999C137.996 117.168 138.096 116.253 138.296 114.423C137.696 114.369 137.396 114.344 136.796 114.294C136.871 113.567 136.908 113.203 136.982 112.476C137.582 112.526 137.887 112.552 138.49 112.606C138.628 111.327 138.696 110.687 138.833 109.406C139.506 109.467 139.842 109.498 140.515 109.563C140.369 110.841 140.296 111.48 140.149 112.763C140.716 112.818 141 112.846 141.567 112.904C141.479 113.631 141.435 113.993 141.347 114.719C140.785 114.661 140.503 114.634 139.94 114.58C139.763 116.11 139.674 116.88 139.494 118.406C139.994 118.224 140.241 118.134 140.741 117.956C140.798 118.519 140.826 118.801 140.881 119.365C141.473 118.913 142.002 118.384 142.453 117.791C141.785 117.719 141.453 117.683 140.782 117.616C140.86 116.968 140.901 116.644 140.982 115.996C144.727 116.376 146.601 116.605 150.345 117.138C150.245 117.782 150.188 118.104 150.084 118.749C147.742 118.412 146.565 118.259 144.212 117.985ZM149.44 116.385C146.617 115.996 145.205 115.822 142.381 115.519C142.659 113.33 142.796 112.234 143.069 110.044C145.958 110.356 147.403 110.533 150.291 110.933C149.953 113.11 149.787 114.201 149.441 116.381L149.44 116.385ZM148.415 112.032C146.848 111.826 146.065 111.732 144.497 111.55L144.397 112.327C145.959 112.506 146.74 112.601 148.303 112.806C148.347 112.492 148.37 112.34 148.416 112.027L148.415 112.032ZM148.115 114.066C146.561 113.866 145.784 113.766 144.23 113.59C144.189 113.9 144.168 114.056 144.13 114.366C145.679 114.543 146.453 114.638 148.003 114.841L148.115 114.066Z" fill="white"/>
</svg>
