<svg width="248" height="194" viewBox="0 0 248 194" fill="none" xmlns="http://www.w3.org/2000/svg">
<path d="M141 170C181.317 170 214 137.317 214 97C214 56.6832 181.317 24 141 24C100.683 24 68 56.6832 68 97C68 137.317 100.683 170 141 170Z" fill="#F3BC00"/>
<path d="M216.266 112.79C214.919 111.264 212.749 111.09 210.597 111.09C207.197 111.085 203.797 111.109 200.397 111.119C194.082 111.137 187.767 111.212 181.452 111.264C178.376 111.289 175.3 111.31 172.223 111.326C169.991 111.34 167.144 110.981 165.072 111.842C162.627 112.86 162.809 115.063 162.772 116.975C162.722 119.8 162.722 122.625 162.772 125.448C162.851 130.322 163.265 135.176 163.42 140.039C163.52 143.078 162.45 145.111 166.299 146.676C169.733 148.076 174.099 147.476 177.835 147.452C188.7 147.381 200.384 147.76 211.146 146.452C219.597 145.425 216.946 131.1 217.099 125.858C217.177 123.301 217.253 120.745 217.329 118.188C217.385 116.385 217.638 114.345 216.266 112.79Z" fill="#FCF8E6"/>
<path d="M186.228 123.513C182.812 123.592 178.75 124.126 175.328 124.205C174.928 131.731 176.456 139.372 176.358 146.335C180.145 146.076 183.949 145.993 187.746 146.087C187.476 139.071 187.619 132.587 186.909 123.971C186.909 123.905 186.895 123.84 186.868 123.78C186.842 123.72 186.803 123.666 186.755 123.621C186.597 123.527 186.411 123.489 186.228 123.513Z" fill="#90A9B3"/>
<path d="M206.171 127.321C206.154 126.129 206.139 124.945 206.16 123.89L201.641 124.039C201.821 125.142 201.921 126.255 201.941 127.372C203.352 127.377 204.762 127.366 206.171 127.321Z" fill="#90A9B3"/>
<path d="M201.966 128.423C201.975 129.51 201.959 130.6 201.966 131.687C203.361 131.592 204.766 131.473 206.192 131.302C206.209 130.402 206.199 129.402 206.187 128.382C204.778 128.425 203.373 128.429 201.966 128.423Z" fill="#90A9B3"/>
<path d="M199.336 127.348L200.881 127.36C200.859 126.257 200.753 125.157 200.562 124.07L197.303 124.177C196.803 124.193 196.311 124.205 195.814 124.209C195.933 125.3 196.022 126.393 196.104 127.487C197.187 127.418 198.268 127.342 199.336 127.348Z" fill="#90A9B3"/>
<path d="M198.36 128.411C197.631 128.411 196.904 128.448 196.179 128.492C196.255 129.635 196.32 130.779 196.374 131.923C197.878 131.896 199.386 131.841 200.9 131.757C200.9 130.646 200.918 129.532 200.909 128.421C200.059 128.417 199.21 128.41 198.36 128.411Z" fill="#90A9B3"/>
<path d="M170.319 145.261C168.241 145.217 166.163 145.165 164.085 145.108C160.854 145.019 161.461 145.967 161.835 148.335C161.893 148.7 174.206 148.741 175.456 148.765C180.231 148.855 185.007 148.881 189.785 148.843C198.591 148.773 207.145 147.826 215.92 147.902C216.362 146.8 216.562 145.616 216.506 144.43L207.566 144.53C205.235 144.557 202.901 144.584 200.584 144.798C198.784 144.965 196.992 145.245 195.183 145.387C193.272 145.536 191.35 145.53 189.431 145.519C183.798 145.488 178.165 145.416 172.532 145.303L170.319 145.261Z" fill="#FAE395"/>
<path d="M157.533 113.834L166.526 114.116L197.934 115.101C205.134 115.327 212.28 115.272 219.452 115.694C219.784 115.735 220.12 115.711 220.441 115.622C222.853 114.777 219.487 111.786 218.669 111.099C217.445 110.071 216.187 109.084 214.896 108.137C212.808 106.607 210.642 105.188 208.476 103.771L197.869 96.8301L192.443 93.2781C191.007 92.3391 189.962 91.4001 188.407 92.7041C187.524 93.3823 186.561 93.9512 185.54 94.3981C179.86 97.1863 174.344 100.297 169.018 103.715C166.356 105.424 163.744 107.207 161.182 109.066C159.89 109.905 158.654 110.827 157.482 111.827C156.999 112.295 156.048 113.787 157.533 113.834Z" fill="#458FB6"/>
<path d="M185.743 133.289L185.624 133.15C185.4 133.062 185.151 133.062 184.928 133.149C184.704 133.237 184.522 133.406 184.418 133.622C184.375 133.733 184.355 133.851 184.359 133.97C184.363 134.089 184.391 134.205 184.441 134.313C184.491 134.421 184.562 134.517 184.65 134.597C184.738 134.677 184.84 134.739 184.952 134.778C185.067 134.806 185.187 134.81 185.304 134.788C185.42 134.767 185.531 134.721 185.628 134.653C185.725 134.586 185.807 134.499 185.868 134.397C185.929 134.296 185.968 134.183 185.983 134.065C185.972 133.79 185.89 133.522 185.743 133.289Z" fill="#5C625E"/>
<path d="M73.2053 107.344C73.232 104.432 73.259 101.521 73.2863 98.6102C73.307 82.7689 73.3273 66.9266 73.3473 51.0832C74.1193 51.0312 74.8933 50.9342 75.6673 50.9362C98.0307 51.0095 120.394 51.0888 142.757 51.1742C148.538 51.1968 154.318 51.2302 160.098 51.2742C158.098 52.1922 158.914 53.8802 158.862 55.3312C158.234 55.7932 158.115 56.2662 158.822 56.7612C159.022 64.7982 158.136 72.8612 159.455 80.8712C159.459 81.4992 159.463 82.1272 159.467 82.7552C159.421 84.3442 159.157 86.0552 161.818 85.8252C162.565 85.7612 163.664 85.8392 163.581 86.7492C163.481 87.8552 162.332 87.7002 161.462 87.5692C160.614 87.4422 159.477 86.9622 159.523 88.3272C159.706 93.6162 158.73 98.9462 160.104 104.194L159.455 106.072C159.283 110.977 159.764 115.884 158.935 120.801C158.627 122.623 157.819 125.035 160.947 127.436C160.147 125.289 160.166 124.155 162.017 124.376C164.308 124.651 166.451 128.599 165.428 130.676H163.484C162.931 129.676 159.039 130.745 161.838 127.606C159.944 128.154 158.114 128.138 158.015 130.326L156.783 130.546C156.497 130.274 156.283 130.346 156.119 130.669C154.016 130.978 151.882 131.02 149.768 130.795C150.894 125.995 150.137 121.158 150.018 116.345C149.839 109.112 147.091 107.058 139.476 108.11C138.708 108.216 137.95 108.396 137.184 108.522C133.808 109.075 132.222 110.988 132.213 114.213C132.199 118.736 132.108 123.258 132.059 127.781C132.048 128.83 131.965 129.909 132.905 130.718C114.554 130.738 96.2027 130.752 77.8513 130.761C75.0333 130.761 73.7663 129.467 73.7623 126.602C73.7513 120.18 73.4053 113.761 73.2053 107.344ZM102.805 69.3562L102.728 68.0942C102.719 66.8302 102.741 65.5662 102.696 64.3032C102.556 60.4032 102.015 59.7822 97.8363 59.4462C93.9623 59.1352 90.0713 58.9412 86.1843 58.8592C81.7433 58.7662 79.3903 61.9742 81.7463 65.5022C82.9723 67.3382 82.0183 67.9462 81.3173 69.0562C78.4173 69.5042 79.3383 71.6452 79.3173 73.2732C79.2983 74.9592 80.2943 75.9732 82.1013 76.2662C87.4562 77.1698 92.9201 77.2221 98.2913 76.4212C103.243 75.6722 104.214 74.2062 102.797 69.3572L102.805 69.3562ZM150.2 93.9342C150.309 92.3682 150.445 90.8032 150.52 89.2342C150.676 85.9562 149.72 84.8582 146.202 84.6342C141.679 84.3522 137.142 84.2682 132.617 84.0092C129.873 83.8522 128.725 84.9902 128.938 87.5372C129.008 88.3702 128.938 89.2122 128.93 90.0512C128.918 90.5692 128.907 91.0869 128.895 91.6042C128.907 92.3522 128.918 93.1009 128.93 93.8502C125.941 94.4502 126.79 96.6932 126.968 98.4042C127.161 100.255 128.737 100.964 130.591 100.936C136.116 100.851 141.618 100.161 147.162 100.397C148.493 100.453 150.197 100.936 150.825 99.1112C151.433 97.3182 152.143 95.4722 150.191 93.9342H150.2ZM112.051 108.12C110.959 107.833 109.815 107.801 108.708 108.026C100.433 107.949 92.1563 107.899 83.8813 107.775C81.5233 107.74 80.3903 108.564 80.5723 110.914C80.7333 112.995 80.6933 115.091 80.7423 117.18C78.9693 117.39 78.0423 118.143 77.9933 120.031C77.9083 123.654 79.6473 124.989 83.9363 124.687C95.8813 123.845 107.842 124.257 119.793 124.547C121.532 124.59 123.179 125.025 124.033 123.176C124.913 121.27 125.28 119.336 123.333 117.721C123.393 116.059 123.353 114.388 123.533 112.738C123.8 110.325 122.669 109.056 120.244 108.581C117.537 108.113 114.785 107.959 112.042 108.121L112.051 108.12ZM128.869 61.0982V61.1372C123.309 61.1372 117.748 61.1092 112.188 61.1532C110.362 61.1672 108.334 61.3662 108.197 63.6012C107.868 66.5375 107.912 69.5039 108.328 72.4292C108.672 74.2072 109.496 75.6192 111.745 75.6822C123.307 76.0042 134.863 76.5762 146.438 76.3892C148.908 76.3492 150.187 75.2212 150.329 72.9762C150.476 70.6652 150.521 68.3452 150.519 66.0302C150.519 62.5242 149.294 61.2122 145.545 61.1302C139.981 61.0082 134.419 61.0992 128.86 61.0992L128.869 61.0982ZM102.269 84.7222V84.7522C96.9383 84.7522 91.6033 84.6462 86.2783 84.8112C84.4383 84.8682 81.6863 84.5352 81.4323 87.0672C81.1093 90.2732 80.6143 93.5672 81.5423 96.7912C81.6946 97.6012 82.1345 98.3289 82.781 98.8402C83.4275 99.3514 84.237 99.6118 85.0603 99.5732C96.4933 99.7282 107.907 100.593 119.351 100.302C122.116 100.231 123.408 98.9122 123.451 96.3792C123.485 94.3792 123.469 92.3792 123.491 90.3852C123.535 86.1172 122.464 84.8852 117.925 84.7572C112.705 84.6082 107.48 84.7222 102.261 84.7222H102.269Z" fill="#F8F0C9"/>
<path d="M165.426 130.668C166.449 128.595 164.306 124.646 162.015 124.368C160.163 124.146 160.149 125.281 160.945 127.428C157.817 125.028 158.625 122.615 158.933 120.793C159.762 115.877 159.281 110.97 159.453 106.065C169.632 106.237 179.827 105.549 189.995 106.555C190.876 106.642 192.368 107.033 192.527 105.802C192.713 104.363 191.175 104.737 190.31 104.744C180.235 104.815 170.184 103.722 160.101 104.187C158.728 98.9401 159.701 93.6101 159.52 88.3201C159.473 86.9551 160.611 87.4351 161.459 87.5621C162.329 87.6931 163.477 87.8481 163.578 86.7421C163.661 85.8321 162.562 85.7541 161.815 85.8181C159.154 86.0461 159.415 84.3371 159.464 82.7461C169.39 81.3111 179.38 82.1781 189.342 81.9951C190.23 81.9781 191.118 82.0071 192.005 81.9811C192.577 81.9641 193.205 81.8191 193.138 81.1591C193.107 80.8481 192.638 80.4311 192.288 80.3271C191.647 80.159 190.985 80.0869 190.323 80.1131C180.031 80.2871 169.707 79.3381 159.452 80.8641C158.133 72.8541 159.017 64.7911 158.819 56.7541C164.448 57.1091 170.073 57.5661 175.708 57.7911C180.588 57.9851 185.478 57.9231 190.364 57.9531C190.887 57.9531 191.593 58.0041 191.7 57.3281C191.831 56.5061 191.11 56.2851 190.452 56.1871C189.794 56.0891 189.123 56.1261 188.458 56.0871C178.602 55.4811 168.73 55.4061 158.858 55.3281C158.91 53.8771 158.09 52.1891 160.094 51.2711C163.08 49.4781 159.64 47.7511 160.034 45.9861C160.206 41.4031 161.116 40.9861 165.428 43.5331C165.521 43.5881 165.599 43.6681 165.697 43.7131C166.069 43.9579 166.512 44.0699 166.956 44.031C167.399 43.9922 167.817 43.8047 168.141 43.4991C169.13 42.3991 167.698 42.1811 167.214 41.6281C166.726 41.1069 166.121 40.7102 165.449 40.4715C164.776 40.2327 164.056 40.1589 163.35 40.2561C162.384 40.3021 160.914 40.6901 160.55 39.8431C159.442 37.2941 157.324 37.7681 155.261 37.8431L154.141 37.2841C153.729 34.3021 154.241 32.5951 158.266 32.3671C168.454 31.7782 178.671 31.8921 188.844 32.7081C191.123 32.8931 191.99 34.6551 192.154 36.5151C192.687 42.5751 193.128 48.6417 193.476 54.7151C193.459 57.235 193.7 59.7501 194.195 62.2211C194.637 77.4024 195.087 92.5834 195.545 107.764C195.656 108.37 195.854 108.956 196.133 109.505C195.933 115.136 195.767 120.767 195.533 126.395C195.401 129.576 194.102 130.77 190.851 130.741C188.535 130.72 186.221 130.595 183.905 130.516C184.778 126.742 183.945 122.956 183.958 119.178C183.986 110.536 183.824 109.437 172.888 110.078C172.337 110.109 171.793 110.337 171.247 110.337C169.303 110.337 168.914 111.337 168.952 112.991C169.052 117.517 169.039 122.047 168.988 126.574C168.985 128.062 169.434 129.516 170.276 130.743L165.426 130.668ZM170.772 40.6811C170.824 45.2811 171.35 45.7071 176.437 45.7301C179.085 45.7411 180.937 45.3701 180.756 42.1141C180.475 37.1441 180.056 36.5601 175.061 36.6091C170.924 36.6491 170.729 36.8331 170.773 40.6811H170.772ZM176.836 94.7381C178.312 94.7721 180.987 95.2981 180.761 91.3131C180.489 86.5061 180.068 85.8441 175.367 85.8631C172.921 85.8731 170.458 85.5071 170.678 89.2691C170.985 94.5871 170.885 94.7261 176.837 94.7391L176.836 94.7381ZM175.836 70.0711C178.128 69.9711 180.926 70.9251 180.758 66.9601C180.544 61.8901 180.091 61.2111 175.31 61.2091C172.79 61.2091 170.458 60.9801 170.687 64.7031C171.013 70.0251 170.804 70.0761 175.836 70.0721V70.0711ZM193.315 101.555C191.073 100.823 191.115 98.0711 189.149 96.8551C187.091 95.5781 186.96 98.4821 185.424 98.5041C184.669 98.5151 184.152 98.9891 184.358 99.7581C184.392 99.9488 184.468 100.13 184.58 100.288C184.691 100.447 184.836 100.58 185.003 100.677C185.171 100.775 185.358 100.835 185.551 100.853C185.744 100.872 185.938 100.848 186.122 100.784C187.872 100.194 189.008 100.395 189.788 102.21C190.233 103.246 191.522 102.841 192.488 102.747C192.977 102.696 193.243 102.368 193.315 101.555ZM166.207 73.5191C163.055 71.9781 162.685 74.8791 161.947 76.5761C161.424 77.7761 162.994 77.4491 163.747 77.5401C166.473 77.8701 169.301 77.5081 169.711 74.5911C170.035 72.2831 167.627 73.7921 166.207 73.5191ZM187.367 50.4951C188.209 49.7031 190.59 51.3891 190.41 49.1891C190.333 48.2411 189.7 45.8761 187.44 46.0731C185.354 46.2551 184.175 48.3541 183.954 49.5001C183.685 50.9101 186.017 50.0231 187.367 50.4951ZM188.019 61.0061C187.919 60.3701 187.672 60.0741 187.18 59.9871C186.919 59.9039 186.638 59.9042 186.378 59.9879C186.117 60.0716 185.889 60.2346 185.726 60.4541C185.4 60.9741 185.306 61.6361 184.935 62.1151C184.504 62.6711 182.583 62.3321 183.384 63.4381C184.217 64.5871 185.099 66.2081 187.093 66.1621C187.644 66.1491 188.274 66.1621 188.513 65.6071C188.855 64.8151 188.306 64.4681 187.573 64.3441C185.954 64.0711 186.316 63.2111 186.917 62.3261C187.259 61.8663 187.627 61.4256 188.018 61.0061H188.019ZM168.157 86.4831C166.857 85.5831 166.028 85.6351 165.033 86.3431C165.973 87.3631 166.818 87.1271 168.157 86.4841V86.4831ZM165.057 89.2411C165.125 88.4801 164.643 88.3761 164.257 88.4031C163.9 88.4291 163.35 88.6151 163.257 88.8561C163.057 89.3931 163.636 89.4991 164.029 89.5001C164.381 89.4614 164.727 89.3746 165.057 89.2421V89.2411Z" fill="#FAE395"/>
<path d="M154.138 37.2781L155.258 37.8361C156.85 40.5521 158.442 43.2681 160.034 45.9841C159.64 47.7501 163.08 49.4761 160.094 51.2691C154.313 51.2371 148.533 51.1951 142.752 51.1691C120.389 51.0844 98.0258 51.0051 75.6624 50.9311C74.8894 50.9311 74.1154 51.0311 73.3424 51.0781C67.1524 50.5211 67.1514 50.5211 70.2054 45.3961C70.3694 45.1221 70.5744 44.8661 70.7054 44.5801C73.1254 39.4031 77.0504 37.5131 83.2584 37.4481C106.888 37.2021 130.511 37.5101 154.138 37.2781Z" fill="#458FB6"/>
<path d="M133.133 130.674L132.898 130.71C131.965 129.901 132.047 128.822 132.059 127.773C132.107 123.25 132.199 118.728 132.213 114.205C132.223 110.981 133.813 109.068 137.184 108.514C137.95 108.388 138.707 108.209 139.476 108.103C147.091 107.051 149.839 109.103 150.018 116.338C150.136 121.151 150.894 125.989 149.768 130.788C145.042 131.831 140.277 130.873 135.532 131.051L133.133 130.674Z" fill="#458FB6"/>
<path d="M123.324 117.716C125.271 119.337 124.904 121.271 124.024 123.177C123.17 125.026 121.524 124.591 119.784 124.548C107.833 124.258 95.8724 123.848 83.9274 124.688C79.6384 124.988 77.8994 123.655 77.9844 120.032C78.0284 118.144 78.9604 117.392 80.7334 117.183C81.8423 117.49 83.0182 117.453 84.1054 117.076C84.4226 117.209 84.7649 117.271 85.1084 117.257C85.4519 117.244 85.7884 117.156 86.0944 116.999C88.4608 117.637 90.9536 117.64 93.3214 117.007C93.6309 117.168 93.9719 117.259 94.3204 117.274C94.6689 117.289 95.0164 117.227 95.3384 117.093C96.5533 117.452 97.8323 117.538 99.0844 117.346L102.295 117.28C104.45 117.39 106.619 117.857 108.744 117.08C109.038 117.221 109.358 117.295 109.683 117.299C110.009 117.303 110.331 117.236 110.627 117.103C111.252 117.38 111.929 117.519 112.613 117.511C113.296 117.502 113.969 117.347 114.587 117.056L116.233 117.017C118.496 117.861 120.94 118.102 123.324 117.716Z" fill="#E6C353"/>
<path d="M128.861 61.0981C134.42 61.0981 139.982 61.0081 145.538 61.1291C149.286 61.2121 150.508 62.5291 150.512 66.0291C150.512 68.3451 150.468 70.6641 150.322 72.9751C150.179 75.2201 148.9 76.3471 146.431 76.3881C134.856 76.5751 123.3 76.0031 111.738 75.6811C109.488 75.6181 108.664 74.2051 108.321 72.4281C107.905 69.5028 107.862 66.5365 108.191 63.6001C108.328 61.3651 110.356 61.1671 112.182 61.1521C117.742 61.1081 123.303 61.1361 128.863 61.1361L128.861 61.0981ZM136.042 71.4981C135.72 69.4017 135.547 67.285 135.524 65.1641C135.688 61.8221 133.324 62.4921 131.332 62.4951C128.277 62.4951 129.606 64.4641 129.741 65.8311C130.08 67.8929 130.313 69.9706 130.441 72.0561C130.43 74.8561 132.316 74.5361 134.221 74.5561C136.627 74.5851 136.036 73.0081 136.041 71.5011L136.042 71.4981ZM122.507 68.5971H122.623C122.693 69.4317 122.686 70.2709 122.6 71.1041C121.954 74.4931 124.182 74.5421 126.718 74.4801C129.966 74.4001 128.582 72.1901 128.525 70.8311C128.439 68.7541 127.84 66.7001 127.641 64.6201C127.442 62.5401 126.026 62.5001 124.363 62.5201C122.314 62.5511 122.498 63.8701 122.505 65.1411C122.507 66.2951 122.507 67.4461 122.507 68.5971ZM137.388 66.6211C137.695 68.4398 137.874 70.2776 137.924 72.1211C137.838 74.7481 139.555 74.5211 141.408 74.5841C143.692 74.6571 143.58 73.2781 143.439 71.8761C143.197 69.4761 142.883 67.0871 142.587 64.6941C142.408 63.2461 141.68 62.6141 139.997 62.4941C136.107 62.2141 137.626 64.7921 137.387 66.6211H137.388ZM120.77 68.6761H120.67C120.67 67.5271 120.627 66.3761 120.68 65.2311C120.756 63.5691 120.175 62.7671 118.209 62.8101C116.243 62.8531 115.774 63.7461 115.827 65.3561C115.899 67.5471 115.982 69.7461 115.863 71.9321C115.744 74.1181 117.196 74.1541 118.841 74.2631C120.951 74.4021 120.789 73.0941 120.775 71.8091C120.759 70.7641 120.769 69.7201 120.769 68.6761H120.77ZM148.722 67.9161C148.771 66.8199 148.693 65.7217 148.491 64.6431C148.291 63.9499 147.836 63.3581 147.218 62.9861C146.6 62.6141 145.864 62.4894 145.157 62.6371C143.257 62.9201 144.304 64.4201 144.402 65.4131C144.647 67.8991 144.978 70.3791 145.313 72.8561C145.413 73.5971 144.99 74.7211 146.367 74.7561C146.805 74.7588 147.232 74.6222 147.586 74.3662C147.941 74.1102 148.204 73.748 148.339 73.3321C148.973 71.8111 148.607 70.2331 148.721 67.9161H148.722ZM114.042 68.6341H114.023C114.023 67.3821 114.031 66.1341 114.023 64.8801C114.016 64.0351 114.049 63.1041 112.802 63.0481C111.711 62.9981 110.321 62.8841 110.096 64.2141C109.503 66.9788 109.537 69.8413 110.196 72.5911C110.363 73.1174 110.71 73.5677 111.177 73.862C111.644 74.1562 112.2 74.2753 112.746 74.1981C114.169 74.1141 114.018 72.9981 114.037 72.0761C114.059 70.9331 114.04 69.7811 114.04 68.6331L114.042 68.6341Z" fill="#458FB6"/>
<path d="M108.745 117.079C106.62 117.855 104.452 117.389 102.3 117.279C102.647 116.654 102.782 115.979 101.834 115.862C100.961 115.762 100.369 115.162 101.1 114.827C104.7 113.2 101.441 111.261 101.8 109.41C99.3334 110.301 98.1004 114.238 99.0864 117.344C97.8348 117.536 96.5563 117.45 95.3414 117.093C96.5664 115.617 95.4604 113.75 96.3094 112.138C96.8924 111.031 95.5264 110.945 94.7984 110.615C94.6044 112.004 91.0984 111.686 92.7984 114.003C93.5114 114.976 93.1414 116.009 93.3234 117.003C90.9557 117.635 88.4631 117.633 86.0964 116.997C86.0903 116.626 86.1979 116.263 86.4048 115.955C86.6116 115.647 86.9078 115.41 87.2534 115.276C88.4374 114.726 90.0954 114.231 87.7534 112.939C87.4914 112.794 87.3934 112.211 87.4054 111.839C87.4274 111.125 88.4594 110.252 86.9954 109.827C86.1374 109.578 85.6264 110.05 85.0234 110.584C84.1734 111.337 83.7794 111.927 84.7234 112.876C85.3004 113.454 85.5094 114.306 84.4804 114.638C82.5204 115.269 83.9524 116.232 84.1034 117.075C83.0162 117.452 81.8403 117.489 80.7314 117.182C80.6824 115.091 80.7224 112.995 80.5614 110.914C80.3794 108.565 81.5114 107.74 83.8704 107.775C92.1454 107.899 100.422 107.949 108.697 108.026C109.184 108.368 109.76 108.56 110.355 108.577C110.949 108.593 111.536 108.434 112.04 108.12C114.78 107.959 117.529 108.113 120.232 108.581C122.656 109.055 123.787 110.325 123.521 112.738C123.34 114.388 123.379 116.059 123.321 117.717C120.937 118.099 118.493 117.858 116.229 117.017C118.5 116.228 116.268 114.566 116.918 113.684C117.584 112.784 118.145 112.394 116.946 111.476C115.431 110.316 114.508 111.846 113.382 112.083C112.229 112.326 113.276 113.268 113.665 113.767C114.312 114.737 114.634 115.887 114.586 117.052C113.969 117.343 113.296 117.498 112.613 117.506C111.93 117.515 111.253 117.377 110.628 117.101C113.391 115.236 110.044 113.566 110.428 111.762C110.778 110.136 109.556 110.39 108.579 110.507C107.411 110.648 107.565 111.188 107.616 112.23C107.86 113.875 108.237 115.496 108.745 117.079Z" fill="#458FB6"/>
<path d="M102.261 84.7231C107.48 84.7231 112.703 84.6091 117.917 84.7581C122.457 84.8881 123.527 86.1181 123.483 90.3861C123.462 92.3861 123.477 94.3861 123.444 96.3801C123.401 98.9131 122.109 100.233 119.344 100.303C107.9 100.595 96.4853 99.7291 85.0533 99.5741C84.23 99.6127 83.4205 99.3523 82.774 98.8411C82.1275 98.3298 81.6876 97.6021 81.5353 96.7921C80.6073 93.5651 81.1023 90.2741 81.4253 87.0681C81.6803 84.5361 84.4313 84.8681 86.2713 84.8121C91.5963 84.6471 96.9303 84.7531 102.262 84.7531L102.261 84.7231ZM95.4773 92.0821H95.5993C95.519 93.5514 95.5293 95.0241 95.6303 96.4921C95.9913 99.3811 98.4853 98.0121 100.093 98.2921C101.955 98.6131 102.023 97.3441 101.856 96.1061C101.52 93.6061 100.943 91.1251 100.811 88.6191C100.683 86.1781 99.0993 86.4561 97.3833 86.4191C94.9743 86.3731 95.5133 87.9531 95.4833 89.2441C95.4593 90.1911 95.4773 91.1371 95.4773 92.0821ZM105.488 86.4551C104.716 86.8421 102.481 85.4651 102.63 87.8941C102.817 90.9288 103.171 93.9507 103.692 96.9461C104.114 99.3691 106.317 98.2101 107.772 98.3711C109.512 98.5631 109.32 97.2711 109.244 96.2301C109.064 93.7211 108.701 91.2171 108.685 88.7091C108.673 86.6791 107.694 86.1301 105.488 86.4551ZM114.102 98.3621C116.381 98.8531 116.884 97.7301 116.642 95.9171C116.321 93.5171 115.887 91.1261 115.733 88.7171C115.55 85.8811 113.433 86.3711 111.644 86.4541C109.202 86.5671 110.503 88.2651 110.532 89.2961C110.596 91.5011 110.932 93.6961 110.985 95.9061C111.037 97.9821 112.033 98.7611 114.102 98.3621ZM94.0213 92.2631H93.9213C93.9213 91.3191 93.9113 90.3751 93.9213 89.4321C93.9443 87.7621 93.9273 86.3621 91.3593 86.4151C88.9693 86.4641 88.6293 87.5761 88.7063 89.3961C88.82 91.3869 88.8177 93.3826 88.6993 95.3731C88.5313 97.6191 89.7993 97.9061 91.7403 97.9651C93.8533 98.0301 94.1113 96.9651 94.0303 95.4101C93.9803 94.3621 94.0213 93.3111 94.0213 92.2631ZM87.2213 92.4811H87.1963C87.1963 91.2301 87.1963 89.9811 87.1963 88.7281C87.1963 87.6891 86.9873 86.8121 85.5893 86.9031C84.5193 86.9731 83.1523 86.7901 82.9753 88.2091C82.6413 90.8951 82.3123 93.6091 83.2573 96.2631C83.4303 96.8436 83.8235 97.3335 84.3529 97.628C84.8822 97.9225 85.5058 97.9983 86.0903 97.8391C87.5273 97.6111 87.1813 96.4951 87.2113 95.6101C87.2493 94.5661 87.2213 93.5231 87.2213 92.4801V92.4811ZM121.903 90.2531C121.824 89.6476 121.713 89.0468 121.57 88.4531C121.483 88.1057 121.326 87.7796 121.109 87.4941C120.893 87.2086 120.621 86.9695 120.311 86.7911C120 86.6127 119.657 86.4987 119.301 86.4557C118.945 86.4128 118.585 86.4418 118.24 86.5411C116.514 86.8531 117.445 88.2321 117.51 89.1341C117.676 91.4341 117.91 93.7341 118.291 96.0091C118.439 96.8891 117.926 98.4091 119.661 98.4091C121.253 98.4091 121.532 97.0951 121.691 95.9451C121.951 94.0731 121.239 92.1751 121.905 90.2521L121.903 90.2531Z" fill="#458FB6"/>
<path d="M81.3075 69.0571C82.0075 67.9471 82.9625 67.3391 81.7365 65.5031C79.3805 61.9751 81.7365 58.7671 86.1745 58.8601C90.0615 58.9421 93.9525 59.1361 97.8265 59.4471C102.005 59.7831 102.547 60.4071 102.687 64.3041C102.732 65.5661 102.709 66.8311 102.718 68.0951C100.229 68.8381 99.8425 64.9951 97.2805 65.7441C97.5035 66.8841 99.0195 67.1441 98.9455 68.5551L96.1035 68.7821C95.3845 68.5071 94.8415 66.4371 93.8715 68.6191C93.5795 69.2761 92.7925 69.2471 92.1345 69.2381C88.5252 69.1855 84.9162 69.1251 81.3075 69.0571Z" fill="#458FB6"/>
<path d="M128.921 90.0571C128.927 89.2181 128.999 88.3761 128.929 87.5431C128.716 84.9961 129.864 83.8581 132.608 84.0151C137.133 84.2741 141.67 84.3581 146.193 84.6401C149.71 84.8601 150.667 85.9581 150.511 89.2401C150.436 90.8071 150.3 92.3721 150.19 93.9401L128.92 93.8601C128.908 93.1121 128.897 92.3634 128.885 91.6141C129.434 91.5821 129.985 91.5351 130.535 91.5201C131.574 91.4921 132.378 91.1481 132.004 90.0251C131.699 89.1081 130.927 89.1561 130.128 89.6131C129.738 89.7949 129.335 89.9434 128.921 90.0571ZM146.321 86.6811C145.818 86.6837 145.334 86.8682 144.958 87.2005C144.582 87.5327 144.338 87.9903 144.274 88.4881C144.093 89.4311 144.59 89.8391 145.567 89.7821C146.653 89.7181 147.523 89.4481 147.446 88.1581C147.402 87.3831 147.316 86.6781 146.322 86.6821L146.321 86.6811ZM137.95 86.7811C137.89 85.8371 137.226 85.5811 136.385 85.6281C135.372 85.6811 134.765 86.1921 134.777 87.1931C134.789 88.1491 135.491 88.3931 136.327 88.3501C136.54 88.3669 136.754 88.3382 136.955 88.266C137.156 88.1938 137.34 88.0798 137.494 87.9314C137.648 87.7831 137.769 87.6037 137.848 87.4052C137.928 87.2068 137.964 86.9937 137.956 86.7801L137.95 86.7811Z" fill="#458FB6"/>
<path d="M81.3076 69.056C84.9169 69.118 88.5259 69.1781 92.1346 69.2361C92.7926 69.2461 93.5796 69.2751 93.8716 68.6171C94.8416 66.4351 95.3846 68.505 96.1016 68.78C98.2296 70.038 100.579 69.0071 102.797 69.3561C104.215 74.2051 103.243 75.6711 98.2856 76.4211C92.9144 77.222 87.4504 77.1696 82.0956 76.266C80.2886 75.966 79.2956 74.9591 79.3116 73.2731C79.3286 71.6481 78.4116 69.504 81.3076 69.056Z" fill="#E6C353"/>
<path d="M128.921 93.8561L150.191 93.9361C152.144 95.4731 151.434 97.3191 150.815 99.1171C150.187 100.942 148.483 100.46 147.152 100.403C141.609 100.167 136.107 100.857 130.581 100.942C128.727 100.97 127.151 100.261 126.958 98.4111C126.782 96.6991 125.932 94.4541 128.921 93.8561Z" fill="#E6C353"/>
<path d="M159.452 80.8642C169.707 79.3382 180.031 80.2872 190.323 80.1132C190.985 80.0868 191.648 80.1589 192.288 80.3272C192.642 80.4272 193.107 80.8482 193.139 81.1592C193.207 81.8192 192.578 81.9642 192.006 81.9812C191.119 82.0072 190.231 81.9812 189.343 81.9952C179.382 82.1782 169.392 81.3102 159.465 82.7462C159.461 82.1228 159.456 81.4955 159.452 80.8642Z" fill="#FDF9EB"/>
<path d="M158.86 55.3291C168.732 55.4061 178.604 55.4821 188.46 56.0881C189.125 56.1291 189.799 56.0881 190.454 56.1881C191.109 56.2881 191.833 56.5081 191.702 57.3291C191.595 58.0051 190.889 57.9571 190.366 57.9541C185.48 57.9241 180.589 57.9861 175.71 57.7921C170.075 57.5671 164.451 57.1111 158.821 56.7551C158.112 56.2641 158.232 55.7901 158.86 55.3291Z" fill="#FDF9EB"/>
<path d="M160.101 104.191C170.184 103.725 180.234 104.818 190.309 104.748C191.174 104.742 192.709 104.367 192.526 105.806C192.367 107.038 190.875 106.646 189.994 106.559C179.826 105.553 169.631 106.242 159.452 106.069C159.666 105.443 159.882 104.817 160.101 104.191Z" fill="#FDF9EB"/>
<path d="M102.798 69.3571C100.581 69.0081 98.2305 70.0391 96.1025 68.7811L98.9465 68.5551C99.0205 67.1401 97.5046 66.8841 97.2816 65.7441C99.8436 64.9981 100.232 68.8381 102.721 68.0951L102.798 69.3571Z" fill="#88A4B2"/>
<path d="M128.921 90.0571C129.335 89.9422 129.739 89.7923 130.129 89.6091C130.929 89.1511 131.7 89.1031 132.005 90.0211C132.379 91.1441 131.574 91.4881 130.535 91.5161C129.984 91.5311 129.435 91.5771 128.885 91.6101C128.897 91.0921 128.909 90.5744 128.921 90.0571Z" fill="#AFC0C7"/>
<path d="M112.042 108.121C111.538 108.436 110.951 108.594 110.357 108.577C109.762 108.561 109.186 108.369 108.699 108.027C109.806 107.802 110.95 107.834 112.042 108.121Z" fill="#88A4B2"/>
<path d="M183.903 130.515C179.386 132.033 174.833 131.577 170.273 130.737C169.433 129.51 168.984 128.056 168.986 126.568C169.037 122.041 169.054 117.511 168.95 112.985C168.912 111.334 169.301 110.333 171.245 110.331C171.792 110.331 172.336 110.103 172.886 110.072C183.822 109.436 183.986 110.535 183.956 119.172C183.943 122.955 184.779 126.741 183.903 130.515Z" fill="#458FB6"/>
<path d="M170.772 40.6822C170.728 36.8342 170.923 36.6492 175.061 36.6102C180.055 36.5612 180.474 37.1462 180.755 42.1152C180.939 45.3712 179.084 45.7422 176.436 45.7312C171.35 45.7082 170.824 45.2802 170.772 40.6822Z" fill="#458FB6"/>
<path d="M176.837 94.7391C170.885 94.7261 170.989 94.5881 170.678 89.2701C170.458 85.5081 172.921 85.8701 175.367 85.8641C180.067 85.8451 180.49 86.5071 180.761 91.3141C180.988 95.2991 178.314 94.7731 176.837 94.7391Z" fill="#458FB6"/>
<path d="M175.835 70.073C170.803 70.073 171.012 70.0261 170.686 64.705C170.457 60.9811 172.786 61.211 175.309 61.211C180.09 61.211 180.544 61.8921 180.757 66.9621C180.925 70.9261 178.127 69.976 175.835 70.073Z" fill="#458FB6"/>
<path d="M160.034 45.9862C158.442 43.2702 156.85 40.5542 155.26 37.8382C157.323 37.7672 159.44 37.2932 160.547 39.8382C160.915 40.6852 162.386 40.2972 163.348 40.2512C164.054 40.1539 164.774 40.2277 165.447 40.4665C166.119 40.7052 166.724 41.1019 167.211 41.6232C167.695 42.1762 169.127 42.3902 168.138 43.4942C167.815 43.7998 167.397 43.9873 166.954 44.0261C166.51 44.065 166.066 43.9529 165.695 43.7082C165.595 43.6632 165.519 43.5832 165.426 43.5282C161.117 40.9892 160.206 41.4032 160.034 45.9862Z" fill="#F8F0C9"/>
<path d="M193.315 101.555C193.242 102.368 192.977 102.695 192.488 102.743C191.522 102.837 190.234 103.243 189.788 102.206C189.008 100.391 187.872 100.189 186.122 100.78C185.939 100.844 185.745 100.868 185.552 100.849C185.359 100.831 185.172 100.771 185.004 100.673C184.837 100.576 184.692 100.443 184.581 100.284C184.469 100.126 184.393 99.9449 184.358 99.7541C184.152 98.9851 184.668 98.5111 185.423 98.5001C186.959 98.4781 187.09 95.5741 189.148 96.8511C191.114 98.0681 191.073 100.823 193.315 101.555Z" fill="#F8F0C9"/>
<path d="M166.206 73.5192C167.626 73.7922 170.034 72.2832 169.706 74.5922C169.297 77.5092 166.468 77.8711 163.742 77.5411C162.988 77.4501 161.418 77.7791 161.942 76.5771C162.684 74.8801 163.054 71.9792 166.206 73.5192Z" fill="#F8F0C9"/>
<path d="M187.366 50.4952C186.016 50.0232 183.679 50.9102 183.952 49.5012C184.174 48.3552 185.352 46.2562 187.438 46.0742C189.698 45.8742 190.331 48.2422 190.409 49.1902C190.589 51.3892 188.209 49.7032 187.366 50.4952Z" fill="#F8F0C9"/>
<path d="M188.018 61.0032C187.628 61.4227 187.261 61.8634 186.918 62.3232C186.318 63.2082 185.955 64.0682 187.574 64.3412C188.307 64.4652 188.856 64.8122 188.514 65.6042C188.275 66.1582 187.645 66.1462 187.094 66.1592C185.1 66.2052 184.218 64.5842 183.385 63.4352C182.585 62.3282 184.505 62.6672 184.935 62.1122C185.306 61.6342 185.401 60.9712 185.726 60.4512C185.89 60.2317 186.118 60.0687 186.379 59.985C186.639 59.9013 186.92 59.901 187.18 59.9842C187.671 60.0742 187.92 60.3702 188.018 61.0032Z" fill="#F8F0C9"/>
<path d="M168.156 86.4832C166.817 87.1262 165.972 87.3631 165.032 86.3431C166.025 85.6351 166.858 85.5852 168.156 86.4832Z" fill="#F8F0C9"/>
<path d="M165.058 89.2421C164.729 89.3748 164.384 89.462 164.032 89.5011C163.639 89.5011 163.061 89.3941 163.26 88.8571C163.35 88.6161 163.9 88.4301 164.26 88.4041C164.644 88.3771 165.126 88.4811 165.058 89.2421Z" fill="#F8F0C9"/>
<path d="M99.0844 117.345C98.1014 114.239 99.3314 110.302 101.798 109.411C101.44 111.262 104.698 113.201 101.098 114.828C100.367 115.159 100.959 115.758 101.832 115.863C102.779 115.977 102.645 116.655 102.298 117.28C101.225 117.301 100.154 117.322 99.0844 117.345Z" fill="#FAE395"/>
<path d="M84.1044 117.072C83.9534 116.229 82.5214 115.266 84.4814 114.635C85.5104 114.303 85.3014 113.452 84.7244 112.873C83.7784 111.923 84.1724 111.334 85.0244 110.581C85.6244 110.047 86.1384 109.575 86.9964 109.824C88.4604 110.249 87.4284 111.124 87.4064 111.836C87.3944 112.211 87.4924 112.794 87.7544 112.936C90.0954 114.229 88.4374 114.723 87.2544 115.274C86.9088 115.408 86.6126 115.645 86.4058 115.953C86.1989 116.261 86.0913 116.624 86.0974 116.995C85.7907 117.152 85.4536 117.24 85.1094 117.253C84.7652 117.266 84.4223 117.205 84.1044 117.072Z" fill="#AFC0C7"/>
<path d="M108.744 117.079C108.239 115.497 107.864 113.877 107.622 112.234C107.571 111.192 107.417 110.652 108.585 110.511C109.561 110.393 110.785 110.14 110.434 111.766C110.046 113.566 113.393 115.239 110.634 117.105C110.336 117.238 110.013 117.305 109.687 117.3C109.36 117.296 109.039 117.22 108.744 117.079Z" fill="#AFC0C7"/>
<path d="M114.586 117.061C114.634 115.896 114.312 114.746 113.665 113.775C113.276 113.275 112.229 112.334 113.382 112.091C114.508 111.853 115.431 110.324 116.946 111.484C118.146 112.402 117.584 112.784 116.918 113.692C116.268 114.574 118.5 116.236 116.229 117.025C115.683 117.032 115.136 117.044 114.586 117.061Z" fill="#AFC0C7"/>
<path d="M93.3213 117.005C93.1393 116.005 93.5093 114.975 92.7963 114.005C91.0963 111.688 94.6023 112.005 94.7963 110.617C95.5243 110.947 96.8903 111.033 96.3073 112.14C95.4583 113.753 96.5643 115.619 95.3393 117.095C95.0167 117.228 94.669 117.289 94.3204 117.274C93.9718 117.258 93.6307 117.166 93.3213 117.005Z" fill="#AFC0C7"/>
<path d="M136.041 71.5011C136.041 73.0071 136.627 74.5841 134.222 74.5581C132.322 74.5381 130.431 74.8581 130.442 72.0581C130.314 69.9726 130.081 67.895 129.742 65.8331C129.607 64.4661 128.278 62.5021 131.333 62.4971C133.333 62.4971 135.69 61.8241 135.525 65.1661C135.548 67.2873 135.72 69.4043 136.041 71.5011Z" fill="#F8F0C9"/>
<path d="M122.506 68.5971C122.506 67.4461 122.506 66.2971 122.506 65.1441C122.5 63.8731 122.315 62.5541 124.364 62.5231C126.027 62.4991 127.442 62.5231 127.642 64.6231C127.842 66.7231 128.442 68.7571 128.526 70.8341C128.582 72.1941 129.967 74.4041 126.719 74.4831C124.183 74.5461 121.955 74.4961 122.601 71.1071C122.687 70.274 122.694 69.4347 122.624 68.6002L122.506 68.5971Z" fill="#F8F0C9"/>
<path d="M137.388 66.621C137.627 64.792 136.107 62.2131 139.997 62.4951C141.68 62.6171 142.408 63.2481 142.587 64.6951C142.887 67.0881 143.198 69.4791 143.439 71.8771C143.58 73.2771 143.692 74.6581 141.408 74.5851C139.556 74.5251 137.838 74.7491 137.924 72.1221C137.873 70.2782 137.694 68.44 137.388 66.621Z" fill="#F8F0C9"/>
<path d="M120.769 68.6761C120.769 69.7201 120.759 70.7641 120.769 71.8081C120.783 73.0941 120.944 74.4021 118.834 74.2621C117.189 74.1531 115.734 74.1271 115.856 71.9311C115.978 69.7351 115.892 67.5461 115.821 65.3551C115.769 63.7451 116.226 62.8551 118.204 62.8091C120.182 62.7631 120.751 63.5681 120.674 65.2301C120.622 66.3761 120.665 67.5301 120.665 68.6751L120.769 68.6761Z" fill="#F8F0C9"/>
<path d="M148.72 67.9171C148.61 70.2331 148.973 71.8111 148.337 73.3271C148.201 73.743 147.938 74.1052 147.583 74.3612C147.229 74.6172 146.802 74.7538 146.364 74.7511C144.987 74.7211 145.411 73.5971 145.311 72.8511C144.976 70.3731 144.644 67.8941 144.399 65.4081C144.299 64.4161 143.257 62.9151 145.154 62.6321C145.861 62.4844 146.597 62.6091 147.215 62.9811C147.833 63.3531 148.288 63.9449 148.488 64.6381C148.691 65.7186 148.769 66.8189 148.72 67.9171Z" fill="#DCDCDC"/>
<path d="M114.04 68.6342C114.04 69.7812 114.059 70.9282 114.034 72.0752C114.015 72.9982 114.166 74.1132 112.743 74.1962C112.197 74.2736 111.641 74.1545 111.174 73.8602C110.707 73.566 110.359 73.1156 110.193 72.5892C109.534 69.8394 109.5 66.9769 110.093 64.2122C110.318 62.8822 111.708 62.9972 112.799 63.0462C114.046 63.1022 114.013 64.0342 114.02 64.8782C114.031 66.1292 114.02 67.3782 114.02 68.6322L114.04 68.6342Z" fill="#DCDCDC"/>
<path d="M95.4784 92.0811C95.4784 91.1351 95.4604 90.1901 95.4784 89.2451C95.5094 87.9551 94.9714 86.374 97.3784 86.42C99.0944 86.452 100.678 86.1741 100.806 88.6201C100.937 91.1261 101.515 93.6081 101.851 96.1071C102.018 97.3451 101.951 98.614 100.088 98.293C98.4804 98.015 95.9884 99.384 95.6254 96.493C95.5244 95.0251 95.514 93.5523 95.5944 92.0831L95.4784 92.0811Z" fill="#F8F0C9"/>
<path d="M105.488 86.4551C107.694 86.1261 108.673 86.6791 108.688 88.7091C108.704 91.2171 109.067 93.721 109.247 96.23C109.323 97.274 109.514 98.563 107.775 98.371C106.32 98.21 104.117 99.3711 103.695 96.9461C103.174 93.9507 102.82 90.9287 102.633 87.8941C102.481 85.4651 104.716 86.8411 105.488 86.4551Z" fill="#F8F0C9"/>
<path d="M114.102 98.3621C112.033 98.7621 111.037 97.9821 110.985 95.9081C110.93 93.7031 110.596 91.5081 110.532 89.2981C110.502 88.2681 109.201 86.57 111.644 86.456C113.435 86.372 115.55 85.8831 115.733 88.7181C115.888 91.1261 116.322 93.5181 116.642 95.9181C116.885 97.7301 116.378 98.8531 114.102 98.3621Z" fill="#F8F0C9"/>
<path d="M94.0245 92.2621C94.0245 93.3111 93.9805 94.3621 94.0345 95.4081C94.1155 96.9631 93.8575 98.0271 91.7445 97.9631C89.8065 97.9041 88.5345 97.6171 88.7035 95.3711C88.8219 93.3806 88.8242 91.3848 88.7105 89.394C88.6345 87.575 88.9735 86.4621 91.3635 86.4131C93.9325 86.3601 93.9485 87.76 93.9255 89.43C93.9125 90.373 93.9255 91.317 93.9255 92.261L94.0245 92.2621Z" fill="#DCDCDC"/>
<path d="M87.2254 92.4801C87.2254 93.5231 87.2524 94.5661 87.2164 95.6081C87.1864 96.4941 87.5324 97.6081 86.0954 97.8371C85.5109 97.9963 84.8873 97.9206 84.3579 97.6261C83.8286 97.3316 83.4354 96.8417 83.2624 96.2611C82.3174 93.6081 82.6464 90.8931 82.9804 88.2071C83.1564 86.7891 84.5234 86.9712 85.5944 86.9012C86.9944 86.8102 87.2054 87.6872 87.2014 88.7262C87.2014 89.9782 87.2014 91.2262 87.2014 92.4792L87.2254 92.4801Z" fill="#DCDCDC"/>
<path d="M121.906 90.2521C121.24 92.1751 121.953 94.0731 121.695 95.9391C121.536 97.0881 121.258 98.4011 119.665 98.4031C117.93 98.4031 118.443 96.8841 118.295 96.0031C117.911 93.7291 117.68 91.4271 117.514 89.1281C117.449 88.2281 116.514 86.8471 118.244 86.5351C118.589 86.4358 118.949 86.4067 119.305 86.4497C119.661 86.4926 120.004 86.6067 120.315 86.7851C120.625 86.9635 120.897 87.2025 121.113 87.4881C121.33 87.7736 121.487 88.0998 121.574 88.4471C121.717 89.0425 121.828 89.645 121.906 90.2521Z" fill="#DCDCDC"/>
<path d="M146.322 86.6812C147.316 86.6812 147.401 87.3811 147.447 88.1571C147.524 89.4461 146.654 89.7161 145.568 89.7811C144.591 89.8381 144.094 89.4311 144.275 88.4871C144.341 87.9894 144.584 87.5322 144.96 87.2001C145.337 86.8681 145.821 86.6837 146.322 86.6812Z" fill="#FAE395"/>
<path d="M137.952 86.7812C137.96 86.9941 137.923 87.2065 137.844 87.4042C137.764 87.602 137.644 87.7807 137.491 87.9288C137.337 88.0768 137.154 88.1908 136.954 88.2632C136.754 88.3357 136.54 88.365 136.328 88.3492C135.492 88.3892 134.791 88.1492 134.778 87.1922C134.766 86.1922 135.372 85.6802 136.386 85.6272C137.228 85.5832 137.891 85.8352 137.952 86.7812Z" fill="#AFC0C7"/>
<path d="M112.463 129.884C111.148 135.684 113.224 141.599 112.436 147.573C112.299 148.179 112.337 148.812 112.543 149.398C112.703 149.659 112.931 149.871 113.203 150.012C113.474 150.153 113.779 150.217 114.084 150.198C132.047 151.844 150.124 151.829 168.084 150.155C169.511 150.029 171.2 149.665 171.806 147.93C172.111 146.617 172.041 145.245 171.606 143.969L170.086 137.741C169.814 136.328 169.343 134.961 168.686 133.681C167.066 130.927 164.145 130.431 161.534 130.175C145.34 128.59 129.057 128.082 112.795 128.655" fill="#004771"/>
<path d="M112.463 129.884C111.148 135.684 113.224 141.599 112.436 147.573C112.299 148.179 112.337 148.812 112.543 149.398C112.703 149.659 112.931 149.871 113.203 150.012C113.474 150.153 113.779 150.217 114.084 150.198C132.047 151.844 150.124 151.829 168.084 150.155C169.511 150.029 171.2 149.665 171.806 147.93C172.111 146.617 172.041 145.245 171.606 143.969L170.086 137.741C169.814 136.328 169.343 134.961 168.686 133.681C167.066 130.927 164.145 130.431 161.534 130.175C145.34 128.59 129.057 128.082 112.795 128.655" stroke="#004771" stroke-miterlimit="10"/>
<path d="M142.145 73.05C148.982 59.474 157.374 60.186 163.63 60.438C186.516 61.359 208.316 64.578 216.212 76.652C216.548 81.452 214.572 84.178 212.522 87.002C191.479 76.571 182.022 82.868 157.216 84.102C154.438 84.241 146.159 82.702 144.07 81.043C141.981 79.384 141.182 75.754 143.127 73.643" fill="#7CC8F0"/>
<path d="M122.061 62.681C109.503 78.829 109.171 100.538 109.472 132.905C109.518 137.78 110.789 138.538 117.327 138.41C129.566 138.172 155.806 138.167 165.248 137.86C168.34 137.76 170.314 135.16 170.025 131.346C168.449 110.553 168.573 94.23 162.293 74.507C161.293 71.377 157.561 64.266 155.504 61.833C151.25 56.804 146.848 59.894 140.637 60.457C134.426 61.02 128.175 62.684 122.037 61.469" fill="#7CC8F0"/>
<path d="M132.565 67.087C120.341 61.587 109.095 69.07 104.703 73.343C88.6375 88.978 81.0765 103.309 78.0125 116.443C81.1065 119.614 86.1335 121.037 89.1305 121.772C98.7645 100.355 110.372 89.245 130.896 80.582C133.296 79.569 134.838 76.801 135.457 74.215C136.076 71.629 134.712 68.442 132.17 68.158" fill="#7CC8F0"/>
<path d="M132.565 67.087C120.341 61.587 109.095 69.07 104.703 73.343C88.6375 88.978 81.0765 103.309 78.0125 116.443C81.1065 119.614 86.1335 121.037 89.1305 121.772C98.7645 100.355 110.372 89.245 130.896 80.582C133.296 79.569 134.838 76.801 135.457 74.215C136.076 71.629 134.712 68.442 132.17 68.158" stroke="#7CC8F0" stroke-miterlimit="10"/>
<path d="M135.096 67.75C135.363 79.25 135.896 81.711 138.123 92.422C138.177 92.683 138.152 92.978 138.331 93.175C138.451 93.2726 138.589 93.3453 138.737 93.3888C138.886 93.4322 139.041 93.4455 139.194 93.428L141.186 93.459C141.438 93.4888 141.693 93.4381 141.914 93.314C142.042 93.2005 142.14 93.0588 142.203 92.9002C142.265 92.7416 142.289 92.5706 142.273 92.401C142.121 81.027 142.293 78.627 140.236 67.001" fill="#008CC0"/>
<path d="M135.096 67.75C135.363 79.25 135.896 81.711 138.123 92.422C138.177 92.683 138.152 92.978 138.331 93.175C138.451 93.2726 138.589 93.3453 138.737 93.3888C138.886 93.4322 139.041 93.4455 139.194 93.428L141.186 93.459C141.438 93.4888 141.693 93.4381 141.914 93.314C142.042 93.2005 142.14 93.0588 142.203 92.9002C142.265 92.7416 142.289 92.5706 142.273 92.401C142.121 81.027 142.293 78.627 140.236 67.001" stroke="#008CC0" stroke-miterlimit="10"/>
<path d="M123.593 57.516C121.375 58.8303 119.247 60.2891 117.222 61.883C116.915 62.0873 116.665 62.3647 116.493 62.69C116.383 62.9904 116.353 63.3141 116.406 63.6295C116.458 63.9449 116.591 64.2413 116.793 64.49C121.075 69.926 124.109 71.666 129.67 75.581C129.985 75.8579 130.387 76.0175 130.806 76.033C131.546 75.974 131.644 74.982 132.123 74.414C134.023 72.156 135.361 70.606 136.236 65.576" fill="#008CC0"/>
<path d="M123.593 57.516C121.375 58.8303 119.247 60.2891 117.222 61.883C116.915 62.0873 116.665 62.3647 116.493 62.69C116.383 62.9904 116.353 63.3141 116.406 63.6295C116.458 63.9449 116.591 64.2413 116.793 64.49C121.075 69.926 124.109 71.666 129.67 75.581C129.985 75.8579 130.387 76.0175 130.806 76.033C131.546 75.974 131.644 74.982 132.123 74.414C134.023 72.156 135.361 70.606 136.236 65.576" stroke="#008CC0" stroke-miterlimit="10"/>
<path d="M146.45 55.157C148.959 55.7503 151.425 56.5083 153.833 57.426C154.083 57.4776 154.317 57.585 154.518 57.7401C154.72 57.8951 154.884 58.0938 154.998 58.3213C155.112 58.5487 155.173 58.799 155.176 59.0534C155.179 59.3077 155.125 59.5596 155.017 59.79C153.942 66.506 151.804 69.48 147.663 74.876C147.444 75.2346 147.109 75.5068 146.712 75.647C145.988 75.812 145.453 75.061 144.974 74.494C142.283 71.309 141.007 70.653 136.783 66.625" fill="#008CC0"/>
<path d="M146.45 55.157C148.959 55.7503 151.425 56.5083 153.833 57.426C154.083 57.4776 154.317 57.585 154.518 57.7401C154.72 57.8951 154.884 58.0938 154.998 58.3213C155.112 58.5487 155.173 58.799 155.176 59.0534C155.179 59.3077 155.125 59.5596 155.017 59.79C153.942 66.506 151.804 69.48 147.663 74.876C147.444 75.2346 147.109 75.5068 146.712 75.647C145.988 75.812 145.453 75.061 144.974 74.494C142.283 71.309 141.007 70.653 136.783 66.625" stroke="#008CC0" stroke-miterlimit="10"/>
<path d="M114.267 35.2951C114.401 37.6231 109.481 37.4291 109.286 41.8181C108.991 48.4421 112.009 47.7431 114.286 49.0681C114.824 49.3801 117.504 56.1681 118.835 58.6681C121.852 64.3361 130.793 68.5031 137.351 68.5031C144.838 68.5031 151.58 61.2091 152.828 59.3381C154.518 56.8051 155.081 50.8071 156.428 48.0741C159.916 48.3011 161.422 43.5211 160.782 40.0841C160.616 39.1911 158.606 36.9231 156.982 37.3651C152.015 38.7151 155.382 29.5091 151.176 26.5501C147.943 24.2781 143.939 23.4401 140.037 22.8251C133.537 21.8001 126.08 21.5251 121.263 26.0061C118.418 28.6531 117.018 32.5481 114.269 35.2941" fill="#FFF8CE"/>
<path d="M114.267 35.2951C114.401 37.6231 109.481 37.4291 109.286 41.8181C108.991 48.4421 112.009 47.7431 114.286 49.0681C114.824 49.3801 117.504 56.1681 118.835 58.6681C121.852 64.3361 130.793 68.5031 137.351 68.5031C144.838 68.5031 151.58 61.2091 152.828 59.3381C154.518 56.8051 155.081 50.8071 156.428 48.0741C159.916 48.3011 161.422 43.5211 160.782 40.0841C160.616 39.1911 158.606 36.9231 156.982 37.3651C152.015 38.7151 155.382 29.5091 151.176 26.5501C147.943 24.2781 143.939 23.4401 140.037 22.8251C133.537 21.8001 126.08 21.5251 121.263 26.0061C118.418 28.6531 117.018 32.5481 114.269 35.2941" stroke="#FFF8CE" stroke-width="0.5" stroke-miterlimit="10"/>
<path d="M126.163 19.362C121.021 18.825 116.063 22.952 114.586 27.906C111.496 38.27 114.138 45.077 114.94 45.154C116.789 39.01 119.165 32.215 124.903 29.344C127.57 28.01 132.723 27.316 134.845 29.41C135.565 30.12 138.931 32.833 138.945 32.484C138.978 31.461 138.245 28.86 139.197 28.494C141.946 30.099 145.415 32.488 147.197 35.128C147.621 33.098 147.835 31.434 150.73 33.582C153.012 35.275 154.083 42.788 156.103 45.616C156.986 38.316 159.038 30.925 156.028 24.446C155.219 22.5389 153.983 20.8428 152.415 19.488C150.297 17.9902 147.853 17.0187 145.284 16.654C138.561 15.295 130.931 13.154 126.351 18.254" fill="#004771"/>
<path d="M126.163 19.362C121.021 18.825 116.063 22.952 114.586 27.906C111.496 38.27 114.138 45.077 114.94 45.154C116.789 39.01 119.165 32.215 124.903 29.344C127.57 28.01 132.723 27.316 134.845 29.41C135.565 30.12 138.931 32.833 138.945 32.484C138.978 31.461 138.245 28.86 139.197 28.494C141.946 30.099 145.415 32.488 147.197 35.128C147.621 33.098 147.835 31.434 150.73 33.582C153.012 35.275 154.083 42.788 156.103 45.616C156.986 38.316 159.038 30.925 156.028 24.446C155.219 22.5389 153.983 20.8428 152.415 19.488C150.297 17.9902 147.853 17.0187 145.284 16.654C138.561 15.295 130.931 13.154 126.351 18.254" stroke="#004771" stroke-miterlimit="10"/>
<path d="M136.259 46.084C134.796 47.675 133.905 49.7081 133.727 51.862C133.672 52.2619 133.712 52.669 133.843 53.051C134.015 53.3915 134.281 53.6766 134.608 53.8736C134.935 54.0706 135.311 54.1716 135.693 54.165C136.455 54.1412 137.207 53.9714 137.906 53.665" stroke="#FFE980" stroke-miterlimit="10"/>
<path d="M121.06 39.289C123.515 37.8314 126.319 37.0634 129.175 37.066" stroke="#004771" stroke-miterlimit="10"/>
<path d="M127.277 44.1461L127.577 43.8461" stroke="#004771" stroke-miterlimit="10"/>
<path d="M141.258 37.136C143.973 37.1326 146.658 37.7063 149.135 38.819" stroke="#004771" stroke-miterlimit="10"/>
<path d="M142.769 43.6301C142.954 43.5031 142.869 44.0131 142.734 43.8301" stroke="#004771" stroke-miterlimit="10"/>
<path d="M128.571 58.739C128.876 59.2746 129.292 59.7389 129.791 60.101C130.29 60.4631 130.861 60.7147 131.465 60.839C135.305 61.9696 139.428 61.6409 143.041 59.916" stroke="#004771" stroke-miterlimit="10"/>
<g opacity="0.43">
<path d="M125.136 48.16C124.406 48.0171 123.65 48.0966 122.967 48.3881C122.283 48.6796 121.702 49.1698 121.301 49.795C120.519 51.0738 120.257 52.6029 120.567 54.069C120.648 54.6547 120.856 55.2153 121.179 55.711C121.662 56.3478 122.357 56.7902 123.138 56.958C124.209 57.2178 125.338 57.0679 126.304 56.5376C127.27 56.0073 128.002 55.1351 128.357 54.0923C128.713 53.0495 128.665 51.9115 128.224 50.9019C127.784 49.8923 126.981 49.0841 125.974 48.6361" fill="#F8C9CD"/>
<path d="M125.136 48.16C124.406 48.0171 123.65 48.0966 122.967 48.3881C122.283 48.6796 121.702 49.1698 121.301 49.795C120.519 51.0738 120.257 52.6029 120.567 54.069C120.648 54.6547 120.856 55.2153 121.179 55.711C121.662 56.3478 122.357 56.7902 123.138 56.958C124.209 57.2178 125.338 57.0679 126.304 56.5376C127.27 56.0073 128.002 55.1351 128.357 54.0923C128.713 53.0495 128.665 51.9115 128.224 50.9019C127.784 49.8923 126.981 49.0841 125.974 48.6361" stroke="#F8C9CD" stroke-miterlimit="10"/>
</g>
<g opacity="0.43">
<path d="M149.695 48.151C149.038 48.0222 148.357 48.0939 147.741 48.3567C147.125 48.6195 146.602 49.0614 146.239 49.625C145.535 50.7771 145.299 52.155 145.578 53.476C145.651 54.0037 145.839 54.509 146.129 54.956C146.565 55.5295 147.191 55.928 147.895 56.079C148.861 56.3157 149.881 56.1821 150.753 55.7045C151.625 55.2269 152.286 54.44 152.607 53.4988C152.927 52.5576 152.884 51.5305 152.485 50.6198C152.086 49.7091 151.36 48.981 150.45 48.579" fill="#F8C9CD"/>
<path d="M149.695 48.151C149.038 48.0222 148.357 48.0939 147.741 48.3567C147.125 48.6195 146.602 49.0614 146.239 49.625C145.535 50.7771 145.299 52.155 145.578 53.476C145.651 54.0037 145.839 54.509 146.129 54.956C146.565 55.5295 147.191 55.928 147.895 56.079C148.861 56.3157 149.881 56.1821 150.753 55.7045C151.625 55.2269 152.286 54.44 152.607 53.4988C152.927 52.5576 152.884 51.5305 152.485 50.6198C152.086 49.7091 151.36 48.981 150.45 48.579" stroke="#F8C9CD" stroke-miterlimit="10"/>
</g>
<path d="M143.082 46.1121C143.91 46.1121 144.582 44.9928 144.582 43.6121C144.582 42.2313 143.91 41.1121 143.082 41.1121C142.253 41.1121 141.582 42.2313 141.582 43.6121C141.582 44.9928 142.253 46.1121 143.082 46.1121Z" fill="#004771"/>
<path d="M143.082 46.1121C143.91 46.1121 144.582 44.9928 144.582 43.6121C144.582 42.2313 143.91 41.1121 143.082 41.1121C142.253 41.1121 141.582 42.2313 141.582 43.6121C141.582 44.9928 142.253 46.1121 143.082 46.1121Z" fill="#004771"/>
<path d="M128.5 46.1121C129.328 46.1121 130 44.9928 130 43.6121C130 42.2313 129.328 41.1121 128.5 41.1121C127.672 41.1121 127 42.2313 127 43.6121C127 44.9928 127.672 46.1121 128.5 46.1121Z" fill="#004771"/>
<path d="M171.538 126.053L172.248 128.238C172.436 128.677 172.499 129.159 172.429 129.631C172.379 129.866 172.24 130.072 172.04 130.205C171.84 130.338 171.596 130.388 171.361 130.343C171.156 130.261 170.975 130.128 170.837 129.957C170.411 129.504 170.027 129.014 169.688 128.494L170.053 131.225C170.217 132.456 170.335 133.849 169.508 134.781C168.96 135.325 168.244 135.666 167.477 135.749C166.258 135.962 165.003 135.767 163.907 135.195C163.37 134.911 162.901 134.514 162.534 134.03C162.167 133.547 161.91 132.988 161.782 132.395C161.667 131.368 161.794 130.328 162.154 129.359C163.251 126.39 164.933 123.672 167.1 121.365" fill="#FFF8CE"/>
<path d="M171.538 126.053L172.248 128.238C172.436 128.677 172.499 129.159 172.429 129.631C172.379 129.866 172.24 130.072 172.04 130.205C171.84 130.338 171.596 130.388 171.361 130.343C171.156 130.261 170.975 130.128 170.837 129.957C170.411 129.504 170.027 129.014 169.688 128.494L170.053 131.225C170.217 132.456 170.335 133.849 169.508 134.781C168.96 135.325 168.244 135.666 167.477 135.749C166.258 135.962 165.003 135.767 163.907 135.195C163.37 134.911 162.901 134.514 162.534 134.03C162.167 133.547 161.91 132.988 161.782 132.395C161.667 131.368 161.794 130.328 162.154 129.359C163.251 126.39 164.933 123.672 167.1 121.365" stroke="#FFF8CE" stroke-width="0.5" stroke-miterlimit="10"/>
<path d="M184.888 40.9901C179.942 40.2081 177.633 42.8821 174.535 46.8171C168.75 54.1681 172.685 65.5521 170.649 70.6721C166.014 82.3281 176.649 80.2311 171.989 92.0281C170.318 96.2551 177.389 96.3691 179.548 96.0391C189.763 94.4771 185.33 54.1971 184.948 41.1871" fill="#004771"/>
<path d="M184.888 40.9901C179.942 40.2081 177.633 42.8821 174.535 46.8171C168.75 54.1681 172.685 65.5521 170.649 70.6721C166.014 82.3281 176.649 80.2311 171.989 92.0281C170.318 96.2551 177.389 96.3691 179.548 96.0391C189.763 94.4771 185.33 54.1971 184.948 41.1871" stroke="#004771" stroke-miterlimit="10"/>
<path d="M183.261 78.554C180.561 78.119 177.424 80.279 176.214 82.726C170.567 94.138 165.876 107.44 164.255 120.069C164.133 120.736 164.12 121.419 164.216 122.09C164.68 124.407 167.397 125.377 169.694 125.932C170.006 126.091 170.347 126.183 170.695 126.203C171.044 126.224 171.393 126.171 171.721 126.05C172.049 125.928 172.347 125.74 172.599 125.497C172.85 125.255 173.048 124.962 173.18 124.639C180.506 113.22 191.105 100.385 190.36 86.839C190.365 84.7248 189.791 82.6498 188.699 80.839C188.136 79.9475 187.313 79.2504 186.34 78.842C185.368 78.4335 184.294 78.3333 183.262 78.555" fill="#C29B07"/>
<path d="M183.261 78.554C180.561 78.119 177.424 80.279 176.214 82.726C170.567 94.138 165.876 107.44 164.255 120.069C164.133 120.736 164.12 121.419 164.216 122.09C164.68 124.407 167.397 125.377 169.694 125.932C170.006 126.091 170.347 126.183 170.695 126.203C171.044 126.224 171.393 126.171 171.721 126.05C172.049 125.928 172.347 125.74 172.599 125.497C172.85 125.255 173.048 124.962 173.18 124.639C180.506 113.22 191.105 100.385 190.36 86.839C190.365 84.7248 189.791 82.6498 188.699 80.839C188.136 79.9475 187.313 79.2504 186.34 78.842C185.368 78.4335 184.294 78.3333 183.262 78.555" stroke="#C29B07" stroke-miterlimit="10"/>
<path d="M185.795 76.04C178.171 83.499 175.149 93.559 176.77 101.415C178.548 110.032 177.196 112.891 173.724 124.651C169.775 138.026 170.734 147.292 173.341 152.351C176.258 158.01 181.122 153.57 185.641 153.791C193.141 154.159 200.285 154.848 207.78 155.216C209.207 155.286 210.768 155.288 211.88 153.828C212.761 152.365 213.326 150.733 213.539 149.038C215.433 139.526 215.017 127.589 215.482 117.612C215.65 114.021 216.804 71.7381 201.52 74.9031C195.185 76.2151 191.406 74.3951 185.793 76.0421" fill="#EFC900"/>
<path d="M186.634 41.9501C179.717 44.1961 177.515 53.4641 176.929 58.5431C176.429 62.9131 176.374 67.9791 178.88 71.3951C182.838 76.7951 188.118 79.1111 192.442 79.1261C198.371 79.1481 203.488 75.3741 204.966 72.6681C208.061 67.0051 210.051 62.3031 209.387 57.4091C208.723 52.5151 206.297 47.8451 202.557 45.2351C200.095 43.662 197.321 42.6428 194.426 42.2481C191.05 41.6411 189.891 40.7791 186.635 41.9481" fill="#FFF8CE"/>
<path d="M186.634 41.9501C179.717 44.1961 177.515 53.4641 176.929 58.5431C176.429 62.9131 176.374 67.9791 178.88 71.3951C182.838 76.7951 188.118 79.1111 192.442 79.1261C198.371 79.1481 203.488 75.3741 204.966 72.6681C208.061 67.0051 210.051 62.3031 209.387 57.4091C208.723 52.5151 206.297 47.8451 202.557 45.2351C200.095 43.662 197.321 42.6428 194.426 42.2481C191.05 41.6411 189.891 40.7791 186.635 41.9481" stroke="#FFF8CE" stroke-width="0.5" stroke-miterlimit="10"/>
<path d="M189.088 61.81C188.746 61.6484 188.37 61.5734 187.992 61.5917C187.615 61.61 187.248 61.7211 186.923 61.9151C186.599 62.109 186.327 62.38 186.133 62.7039C185.938 63.0278 185.826 63.3947 185.807 63.7722C185.787 64.1496 185.862 64.526 186.022 64.868C186.183 65.21 186.426 65.5071 186.729 65.733C187.032 65.9589 187.386 66.1066 187.76 66.1631C188.133 66.2196 188.515 66.1832 188.872 66.057" stroke="#FFE980" stroke-miterlimit="10"/>
<path d="M183.523 56.269L183.371 55.801" stroke="#004771" stroke-miterlimit="10"/>
<path d="M194.592 55.5021L194.62 56.1021L194.914 55.6671" stroke="#004771" stroke-miterlimit="10"/>
<path d="M185.569 70.1481C187.868 70.926 190.374 70.8277 192.606 69.8721" stroke="#004771" stroke-miterlimit="10"/>
<g opacity="0.43">
<path d="M180.271 60.556C179.692 60.4418 179.092 60.5161 178.558 60.7681C178.025 61.02 177.586 61.4364 177.307 61.956C176.699 63.0716 176.499 64.3638 176.739 65.611C176.801 66.1049 176.961 66.5813 177.213 67.011C177.567 67.5425 178.107 67.9226 178.728 68.077C179.584 68.2479 180.474 68.0909 181.221 67.637C181.968 67.1831 182.517 66.4654 182.76 65.626C183.018 64.7545 182.977 63.8217 182.643 62.9762C182.309 62.1308 181.702 61.4213 180.919 60.961" fill="#F8C9CD"/>
<path d="M180.271 60.556C179.692 60.4418 179.092 60.5161 178.558 60.7681C178.025 61.02 177.586 61.4364 177.307 61.956C176.699 63.0716 176.499 64.3638 176.739 65.611C176.801 66.1049 176.961 66.5813 177.213 67.011C177.567 67.5425 178.107 67.9226 178.728 68.077C179.584 68.2479 180.474 68.0909 181.221 67.637C181.968 67.1831 182.517 66.4654 182.76 65.626C183.018 64.7545 182.977 63.8217 182.643 62.9762C182.309 62.1308 181.702 61.4213 180.919 60.961" stroke="#F8C9CD" stroke-miterlimit="10"/>
</g>
<g opacity="0.43">
<path d="M199.344 60.4191C198.653 60.2836 197.938 60.3587 197.291 60.6346C196.644 60.9104 196.094 61.3743 195.714 61.966C194.975 63.1764 194.726 64.6236 195.02 66.011C195.096 66.5652 195.294 67.0958 195.599 67.565C196.056 68.1678 196.714 68.5865 197.454 68.745C198.466 68.9902 199.534 68.8478 200.448 68.3459C201.361 67.844 202.054 67.0188 202.39 66.0323C202.726 65.0458 202.681 63.9694 202.264 63.0142C201.847 62.0591 201.088 61.2943 200.137 60.87" fill="#F8C9CD"/>
<path d="M199.344 60.4191C198.653 60.2836 197.938 60.3587 197.291 60.6346C196.644 60.9104 196.094 61.3743 195.714 61.966C194.975 63.1764 194.726 64.6236 195.02 66.011C195.096 66.5652 195.294 67.0958 195.599 67.565C196.056 68.1678 196.714 68.5865 197.454 68.745C198.466 68.9902 199.534 68.8478 200.448 68.3459C201.361 67.844 202.054 67.0188 202.39 66.0323C202.726 65.0458 202.681 63.9694 202.264 63.0142C201.847 62.0591 201.088 61.2943 200.137 60.87" stroke="#F8C9CD" stroke-miterlimit="10"/>
</g>
<path d="M211.701 130.348L209.93 131.811C209.535 132.08 209.224 132.453 209.03 132.889C208.946 133.114 208.953 133.362 209.05 133.582C209.147 133.801 209.326 133.974 209.549 134.063C209.765 134.104 209.989 134.088 210.198 134.018C210.799 133.864 211.386 133.656 211.952 133.399L210.18 135.509C209.38 136.46 208.535 137.573 208.733 138.803C208.904 139.556 209.327 140.229 209.933 140.709C210.847 141.542 212.011 142.051 213.244 142.156C213.85 142.206 214.459 142.122 215.029 141.91C215.6 141.699 216.116 141.365 216.544 140.932C217.191 140.127 217.641 139.181 217.858 138.171C218.523 135.077 218.561 131.88 217.97 128.771" fill="#FFF8CE"/>
<path d="M211.701 130.348L209.93 131.811C209.535 132.08 209.224 132.453 209.03 132.889C208.946 133.114 208.953 133.362 209.05 133.582C209.147 133.801 209.326 133.974 209.549 134.063C209.765 134.104 209.989 134.088 210.198 134.018C210.799 133.864 211.386 133.656 211.952 133.399L210.18 135.509C209.38 136.46 208.535 137.573 208.733 138.803C208.904 139.556 209.327 140.229 209.933 140.709C210.847 141.542 212.011 142.051 213.244 142.156C213.85 142.206 214.459 142.122 215.029 141.91C215.6 141.699 216.116 141.365 216.544 140.932C217.191 140.127 217.641 139.181 217.858 138.171C218.523 135.077 218.561 131.88 217.97 128.771" stroke="#FFF8CE" stroke-width="0.5" stroke-miterlimit="10"/>
<path d="M202.404 92.4531C201.704 90.5951 200.904 88.4921 201.769 86.7031C202.428 85.5471 203.51 84.6918 204.787 84.317C210.848 82.159 214.814 82.827 217.521 88.663C220.754 96.0294 222.219 104.05 221.798 112.084C221.379 122.016 219.771 129.633 218.863 130.074C218.335 130.33 210.339 131.113 210.292 130.052C209.84 119.688 210.545 110.252 202.404 92.4521" fill="#C29B07"/>
<path d="M181.759 42.6C181.41 45.939 188.731 50.7 192.165 50.252C204.465 48.644 210.852 64.593 205.724 69.877C199.952 75.825 206.282 80.877 198.544 84.554C196.322 85.61 194.076 91.054 194.592 93.461C195.217 96.373 197.108 100.966 200.087 100.966C202.298 100.966 209.53 98.175 210.887 94.092C212.713 88.592 217.719 83.78 217.131 80.286C215.539 70.813 220.931 70.275 217.925 63.659C216.232 59.935 216.1 56.48 214.725 50.127C213.566 44.772 209.053 40.51 204.002 38.487C197.621 35.931 188.536 36.943 185.125 37.87C183.982 38.0953 182.926 38.6373 182.077 39.434C181.665 39.8435 181.409 40.3829 181.351 40.9603C181.293 41.5377 181.438 42.1172 181.76 42.6" fill="#004771"/>
<path d="M181.759 42.6C181.41 45.939 188.731 50.7 192.165 50.252C204.465 48.644 210.852 64.593 205.724 69.877C199.952 75.825 206.282 80.877 198.544 84.554C196.322 85.61 194.076 91.054 194.592 93.461C195.217 96.373 197.108 100.966 200.087 100.966C202.298 100.966 209.53 98.175 210.887 94.092C212.713 88.592 217.719 83.78 217.131 80.286C215.539 70.813 220.931 70.275 217.925 63.659C216.232 59.935 216.1 56.48 214.725 50.127C213.566 44.772 209.053 40.51 204.002 38.487C197.621 35.931 188.536 36.943 185.125 37.87C183.982 38.0953 182.926 38.6373 182.077 39.434C181.665 39.8435 181.409 40.3829 181.351 40.9603C181.293 41.5377 181.438 42.1172 181.76 42.6" stroke="#004771" stroke-miterlimit="10"/>
<path d="M222.125 78.6801C222.102 78.5684 222.068 78.459 222.025 78.3531C221.818 77.9083 221.514 77.5155 221.135 77.2031L221.209 77.1281C219.852 76.4882 218.359 76.1889 216.86 76.2561C216.625 76.234 216.388 76.2546 216.16 76.3171C215.896 76.437 215.679 76.643 215.546 76.9015C215.413 77.1601 215.372 77.4559 215.428 77.7411C215.558 78.3105 215.858 78.8271 216.288 79.2221C216.604 79.5545 216.959 79.8476 217.344 80.0951C217.275 80.1581 217.205 80.2211 217.137 80.2851C215.337 81.9771 213.785 84.2481 213.961 86.7151C214.169 88.1825 214.68 89.5907 215.461 90.8501C215.602 91.17 215.812 91.455 216.075 91.6851C216.499 91.9459 217.003 92.0427 217.492 91.9571C218.411 91.8649 219.304 91.5949 220.119 91.1621C221.208 90.5936 222.148 89.7789 222.866 88.7828C223.584 87.7867 224.06 86.6367 224.255 85.4245C224.45 84.2122 224.359 82.9711 223.99 81.8001C223.621 80.629 222.983 79.5603 222.128 78.6791L222.125 78.6801Z" fill="#FFF8CE" stroke="#FFF8CE" stroke-width="0.5" stroke-miterlimit="10"/>
<path d="M105.465 115.772C105.732 126.187 105.264 136.607 104.065 146.956C104.059 147.249 103.968 147.534 103.804 147.777C103.696 147.881 103.566 147.958 103.423 148.004C103.281 148.049 103.129 148.06 102.982 148.037C101.023 147.932 99.3736 146.237 98.5476 144.21C97.8154 142.093 97.4689 139.862 97.5246 137.623C97.386 131.87 97.736 126.116 98.5706 120.423C98.8786 118.323 99.3296 116.074 100.724 114.644C102.118 113.214 104.741 113.282 105.397 115.244" fill="#FFF8CE"/>
<path d="M105.465 115.772C105.732 126.187 105.264 136.607 104.065 146.956C104.059 147.249 103.968 147.534 103.804 147.777C103.696 147.881 103.566 147.958 103.423 148.004C103.281 148.049 103.129 148.06 102.982 148.037C101.023 147.932 99.3736 146.237 98.5476 144.21C97.8154 142.093 97.4689 139.862 97.5246 137.623C97.386 131.87 97.736 126.116 98.5706 120.423C98.8786 118.323 99.3296 116.074 100.724 114.644C102.118 113.214 104.741 113.282 105.397 115.244" stroke="#FFF8CE" stroke-width="0.5" stroke-miterlimit="10"/>
<path d="M105.722 106.179C104.751 102.891 102.845 99.9567 100.235 97.7331C98.4369 96.6164 96.4391 95.8588 94.3524 95.5021C93.717 95.5473 93.1087 95.7779 92.603 96.1654C92.0973 96.5529 91.7164 97.0802 91.5074 97.6821C91.1622 98.6279 90.9616 99.6204 90.9124 100.626C90.5354 104.91 93.6124 110.179 94.6384 114.208C94.7749 115.114 95.1813 115.957 95.8044 116.628C96.0566 116.782 96.3391 116.88 96.6325 116.914C96.926 116.949 97.2234 116.919 97.5044 116.828L104.019 115.665C104.515 115.641 104.996 115.493 105.419 115.235C105.842 114.976 106.194 114.615 106.44 114.185C106.786 113.358 106.938 112.462 106.882 111.567C106.87 109.709 106.473 107.874 105.718 106.177" fill="#008CC0"/>
<path d="M105.722 106.179C104.751 102.891 102.845 99.9567 100.235 97.7331C98.4369 96.6164 96.4391 95.8588 94.3524 95.5021C93.717 95.5473 93.1087 95.7779 92.603 96.1654C92.0973 96.5529 91.7164 97.0802 91.5074 97.6821C91.1622 98.6279 90.9616 99.6204 90.9124 100.626C90.5354 104.91 93.6124 110.179 94.6384 114.208C94.7749 115.114 95.1813 115.957 95.8044 116.628C96.0566 116.782 96.3391 116.88 96.6325 116.914C96.926 116.949 97.2234 116.919 97.5044 116.828L104.019 115.665C104.515 115.641 104.996 115.493 105.419 115.235C105.842 114.976 106.194 114.615 106.44 114.185C106.786 113.358 106.938 112.462 106.882 111.567C106.87 109.709 106.473 107.874 105.718 106.177" stroke="#008CC0" stroke-miterlimit="10"/>
<path d="M66.7336 136.915C66.6976 141.087 64.4866 146.06 65.5556 149.901C65.711 150.739 66.0872 151.521 66.6456 152.165C67.0102 152.443 67.4505 152.605 67.9086 152.628C77.1996 153.941 91.0976 153.964 100.341 152.013C100.968 151.957 101.571 151.744 102.095 151.395C102.619 151.046 103.047 150.571 103.341 150.013C103.778 148.808 103.951 147.523 103.85 146.245C103.822 144.099 101.962 140.818 101.786 138.688C101.658 137.146 101.421 135.434 100.573 134.571C100.267 134.309 99.9073 134.119 99.5191 134.014C99.1309 133.909 98.7241 133.893 98.3286 133.965L67.0486 135.436" fill="#EFC900"/>
<path d="M66.7336 136.915C66.6976 141.087 64.4866 146.06 65.5556 149.901C65.711 150.739 66.0872 151.521 66.6456 152.165C67.0102 152.443 67.4505 152.605 67.9086 152.628C77.1996 153.941 91.0976 153.964 100.341 152.013C100.968 151.957 101.571 151.744 102.095 151.395C102.619 151.046 103.047 150.571 103.341 150.013C103.778 148.808 103.951 147.523 103.85 146.245C103.822 144.099 101.962 140.818 101.786 138.688C101.658 137.146 101.421 135.434 100.573 134.571C100.267 134.309 99.9073 134.119 99.5191 134.014C99.1309 133.909 98.7241 133.893 98.3286 133.965L67.0486 135.436" stroke="#EFC900" stroke-miterlimit="10"/>
<path d="M71.0326 94.8121C65.3116 100.694 64.0026 127.499 63.9946 129.5C63.9686 136.36 66.5666 137.922 69.9316 138.1C77.2596 138.483 90.9226 139.172 97.7516 136.9C100.093 136.122 101.701 136.358 101.721 133.158C101.8 120.587 102.331 107.928 95.2916 96.6421C94.8996 96.0131 92.6916 95.6521 92.0046 95.2271C91.2438 94.8268 90.4103 94.5837 89.5536 94.5121C83.3009 93.626 76.9293 94.147 70.9036 96.0371" fill="#008CC0"/>
<path d="M71.0326 94.8121C65.3116 100.694 64.0026 127.499 63.9946 129.5C63.9686 136.36 66.5666 137.922 69.9316 138.1C77.2596 138.483 90.9226 139.172 97.7516 136.9C100.093 136.122 101.701 136.358 101.721 133.158C101.8 120.587 102.331 107.928 95.2916 96.6421C94.8996 96.0131 92.6916 95.6521 92.0046 95.2271C91.2438 94.8268 90.4103 94.5837 89.5536 94.5121C83.3009 93.626 76.9293 94.147 70.9036 96.0371" stroke="#008CC0" stroke-miterlimit="10"/>
<path d="M60.0425 108.238C61.0139 104.95 62.9203 102.016 65.5295 99.7921C66.5035 98.9921 69.4705 96.7421 70.5765 96.7621C71.6825 96.7821 70.9285 99.1621 71.5255 100.581C71.8708 101.527 72.0714 102.52 72.1205 103.526C72.4985 107.799 72.1625 112.105 71.1265 116.267C70.99 117.173 70.5836 118.016 69.9605 118.687C69.7083 118.841 69.4258 118.939 69.1324 118.973C68.839 119.008 68.5415 118.978 68.2605 118.887L61.7445 117.724C61.2492 117.7 60.7678 117.552 60.3447 117.294C59.9216 117.035 59.5704 116.674 59.3235 116.244C58.9774 115.417 58.8262 114.522 58.8815 113.627C58.8938 111.769 59.2897 109.934 60.0445 108.237" fill="#008CC0"/>
<path d="M60.0425 108.238C61.0139 104.95 62.9203 102.016 65.5295 99.7921C66.5035 98.9921 69.4705 96.7421 70.5765 96.7621C71.6825 96.7821 70.9285 99.1621 71.5255 100.581C71.8708 101.527 72.0714 102.52 72.1205 103.526C72.4984 107.799 72.1625 112.105 71.1265 116.267C70.99 117.173 70.5836 118.016 69.9605 118.687C69.7083 118.841 69.4258 118.939 69.1324 118.973C68.839 119.008 68.5415 118.978 68.2605 118.887L61.7445 117.724C61.2492 117.7 60.7678 117.552 60.3447 117.294C59.9216 117.035 59.5704 116.674 59.3235 116.244C58.9774 115.417 58.8262 114.522 58.8815 113.627C58.8938 111.769 59.2897 109.934 60.0445 108.237" stroke="#008CC0" stroke-miterlimit="10"/>
<path d="M67.7874 89.5101C70.8034 95.8761 78.6814 98.544 82.7214 98.448C88.2424 98.317 94.7504 93.7751 96.7704 84.0921C98.2234 77.1271 98.9284 72.592 94.8604 67.367C91.4684 63.007 85.6334 61.7921 80.3194 61.9971C75.9254 62.1671 71.1654 63.3591 68.4814 67.0661C67.5398 68.446 66.8417 69.9772 66.4174 71.593C64.7965 77.2567 65.0629 83.2941 67.1764 88.793" fill="#FFF8CE"/>
<path d="M67.7874 89.5101C70.8034 95.8761 78.6814 98.544 82.7214 98.448C88.2424 98.317 94.7504 93.7751 96.7704 84.0921C98.2234 77.1271 98.9284 72.592 94.8604 67.367C91.4684 63.007 85.6334 61.7921 80.3194 61.9971C75.9254 62.1671 71.1654 63.3591 68.4814 67.0661C67.5398 68.446 66.8417 69.9772 66.4174 71.593C64.7965 77.2567 65.0629 83.2941 67.1764 88.793" stroke="#FFF8CE" stroke-width="0.5" stroke-miterlimit="10"/>
<path d="M82.5297 81.988C82.8197 81.8353 83.147 81.7676 83.4738 81.7927C83.8006 81.8179 84.1137 81.9349 84.3769 82.1304C84.64 82.3258 84.8427 82.5916 84.9613 82.8971C85.08 83.2027 85.1098 83.5356 85.0475 83.8574C84.9851 84.1792 84.8331 84.4768 84.6089 84.716C84.3847 84.9551 84.0975 85.126 83.7803 85.209C83.4632 85.2919 83.1291 85.2836 82.8165 85.1849C82.5039 85.0861 82.2256 84.9011 82.0137 84.651" stroke="#FFE980" stroke-miterlimit="10"/>
<path d="M88.6436 77.2031C88.6414 77.2045 88.6395 77.2065 88.6382 77.2089C88.6369 77.2113 88.6362 77.2139 88.6362 77.2166C88.6362 77.2193 88.6369 77.2219 88.6382 77.2243C88.6395 77.2267 88.6414 77.2287 88.6436 77.2301C88.6461 77.2312 88.6488 77.2318 88.6515 77.2318C88.6542 77.2317 88.6569 77.2311 88.6594 77.23C88.6618 77.2289 88.664 77.2272 88.6658 77.2252C88.6676 77.2231 88.6689 77.2207 88.6696 77.2181C88.6706 77.2128 88.6696 77.2074 88.6669 77.2028C88.6641 77.1982 88.6598 77.1947 88.6546 77.1931" stroke="#004771" stroke-miterlimit="10"/>
<path d="M75.3757 77.1141C75.3469 77.1766 75.3369 77.246 75.3467 77.3141C75.3637 77.3811 75.4387 77.4381 75.5007 77.4141C75.5189 77.4033 75.5348 77.3889 75.5472 77.3716C75.5596 77.3544 75.5683 77.3348 75.5727 77.3141C75.5921 77.266 75.5921 77.2122 75.5727 77.1641C75.5612 77.1412 75.5415 77.1237 75.5175 77.1149C75.4935 77.1062 75.4671 77.107 75.4436 77.1171" stroke="#004771" stroke-miterlimit="10"/>
<path d="M77.9158 91.1001C79.1155 91.709 80.4014 92.1305 81.7288 92.3501C83.0622 92.5662 84.4297 92.3926 85.6668 91.8501" stroke="#004771" stroke-miterlimit="10"/>
<g opacity="0.43">
<path d="M73.2096 81.8961C72.6432 81.7852 72.0564 81.847 71.5255 82.0734C70.9945 82.2998 70.5438 82.6805 70.2317 83.1661C69.6255 84.1589 69.4219 85.346 69.6627 86.4841C69.7255 86.9388 69.8877 87.3741 70.1377 87.7591C70.5128 88.2535 71.0528 88.597 71.6597 88.7271C72.4909 88.929 73.3675 88.8127 74.1174 88.4011C74.8672 87.9894 75.4359 87.3121 75.7116 86.5024C75.9874 85.6927 75.9503 84.8091 75.6076 84.0253C75.2649 83.2416 74.6414 82.6144 73.8597 82.2671" fill="#F8C9CD"/>
<path d="M73.2096 81.8961C72.6432 81.7852 72.0564 81.847 71.5255 82.0734C70.9945 82.2998 70.5438 82.6805 70.2317 83.1661C69.6255 84.1589 69.4219 85.346 69.6627 86.4841C69.7255 86.9388 69.8877 87.3741 70.1377 87.7591C70.5128 88.2535 71.0528 88.597 71.6597 88.7271C72.4909 88.929 73.3675 88.8127 74.1174 88.4011C74.8672 87.9894 75.4359 87.3121 75.7116 86.5024C75.9874 85.6927 75.9503 84.8091 75.6076 84.0253C75.2649 83.2416 74.6414 82.6144 73.8597 82.2671" stroke="#F8C9CD" stroke-miterlimit="10"/>
</g>
<g opacity="0.43">
<path d="M93.1165 81.753C92.55 81.642 91.9633 81.7037 91.4323 81.9301C90.9013 82.1566 90.4505 82.5373 90.1385 83.023C89.5321 84.0158 89.3285 85.2029 89.5695 86.341C89.6324 86.7957 89.7945 87.231 90.0445 87.616C90.4196 88.1105 90.9597 88.454 91.5665 88.584C92.3974 88.7844 93.2731 88.667 94.0219 88.2551C94.7707 87.8431 95.3385 87.1662 95.614 86.3571C95.8894 85.5481 95.8527 84.6653 95.5109 83.882C95.1691 83.0987 94.547 82.4713 93.7665 82.123" fill="#F8C9CD"/>
<path d="M93.1165 81.753C92.55 81.642 91.9633 81.7037 91.4323 81.9301C90.9013 82.1566 90.4505 82.5373 90.1385 83.023C89.5321 84.0158 89.3285 85.2029 89.5695 86.341C89.6324 86.7957 89.7945 87.231 90.0445 87.616C90.4196 88.1105 90.9597 88.454 91.5665 88.584C92.3974 88.7844 93.2731 88.667 94.0219 88.2551C94.7707 87.8431 95.3385 87.1662 95.614 86.3571C95.8894 85.5481 95.8527 84.6653 95.5109 83.882C95.1691 83.0987 94.547 82.4713 93.7665 82.123" stroke="#F8C9CD" stroke-miterlimit="10"/>
</g>
<path d="M78.6386 59.7491C70.0156 59.3061 67.2266 63.1911 64.4496 68.1331C61.6726 73.0751 61.8496 79.1231 62.5096 84.9271C62.7148 87.1028 63.2576 89.2334 64.1186 91.2421C64.8815 92.9843 66.0077 94.5436 67.4218 95.8155C68.836 97.0873 70.5055 98.0425 72.3186 98.6171C71.9886 93.6171 67.4016 92.0771 66.1576 87.4751C64.9136 82.8731 68.0746 70.0261 71.3366 66.9161C75.6786 69.1241 80.5426 74.2871 92.0366 73.8541C92.6895 73.7391 93.362 73.8292 93.9616 74.1121C94.5657 74.6233 94.9811 75.3221 95.1416 76.0971C96.2736 79.6781 96.7866 87.3551 92.8366 97.2631C98.3896 92.0141 100.037 87.0421 99.9366 79.2171C99.9006 76.6171 99.2256 70.1951 97.0896 66.9351C93.2036 61.0021 86.4616 56.5921 78.6396 59.7481" fill="#004771"/>
<path d="M78.6386 59.7491C70.0156 59.3061 67.2266 63.1911 64.4496 68.1331C61.6726 73.0751 61.8496 79.1231 62.5096 84.9271C62.7148 87.1028 63.2576 89.2334 64.1186 91.2421C64.8815 92.9843 66.0077 94.5436 67.4218 95.8155C68.836 97.0873 70.5055 98.0425 72.3186 98.6171C71.9886 93.6171 67.4016 92.0771 66.1576 87.4751C64.9136 82.8731 68.0746 70.0261 71.3366 66.9161C75.6786 69.1241 80.5426 74.2871 92.0366 73.8541C92.6895 73.7391 93.362 73.8292 93.9616 74.1121C94.5657 74.6233 94.9811 75.3221 95.1416 76.0971C96.2736 79.6781 96.7866 87.3551 92.8366 97.2631C98.3896 92.0141 100.037 87.0421 99.9366 79.2171C99.9006 76.6171 99.2256 70.1951 97.0896 66.9351C93.2036 61.0021 86.4616 56.5921 78.6396 59.7481" stroke="#004771" stroke-miterlimit="10"/>
<path d="M67.5246 82.318C67.4098 82.062 67.2454 81.8313 67.041 81.639C66.8366 81.4468 66.5962 81.2969 66.3336 81.198C66.0665 81.0441 65.771 80.9458 65.4649 80.9092C65.1588 80.8726 64.8485 80.8984 64.5526 80.985C64.2668 81.132 64.0127 81.3338 63.8049 81.579C63.5971 81.8242 63.4397 82.108 63.3416 82.414C63.0146 83.1786 62.8738 84.0099 62.9308 84.8395C62.9878 85.6692 63.2411 86.4734 63.6696 87.186C64.0932 87.8609 64.7393 88.3665 65.4961 88.6156C66.253 88.8646 67.073 88.8415 67.8146 88.55" fill="#FFF8CE"/>
<path d="M67.5246 82.318C67.4098 82.062 67.2454 81.8313 67.041 81.639C66.8366 81.4468 66.5962 81.2969 66.3336 81.198C66.0665 81.0441 65.771 80.9458 65.4649 80.9092C65.1588 80.8726 64.8485 80.8984 64.5526 80.985C64.2668 81.132 64.0127 81.3338 63.8049 81.579C63.5971 81.8242 63.4397 82.108 63.3416 82.414C63.0146 83.1786 62.8738 84.0099 62.9308 84.8395C62.9878 85.6692 63.2411 86.4734 63.6696 87.186C64.0932 87.8609 64.7393 88.3665 65.4961 88.6156C66.253 88.8646 67.073 88.8415 67.8146 88.55" stroke="#FFF8CE" stroke-width="0.5" stroke-miterlimit="10"/>
<path d="M85.5255 118.653C80.8015 111.415 71.4655 109.158 63.1815 106.694C56.2176 104.703 49.4186 102.175 42.8455 99.1331C38.8645 97.3331 34.7135 93.5871 31.4025 90.7331C26.7475 86.7251 22.4805 78.8281 20.8945 72.8941C19.3085 66.9601 18.2735 54.1941 18.6485 48.0651" stroke="#33322C" stroke-width="0.5" stroke-miterlimit="10"/>
<path d="M40.1506 37.0811C40.1506 76.1281 62.4966 106.72 86.9206 117.817" stroke="#1A170A" stroke-width="0.5" stroke-miterlimit="10"/>
<path d="M39.6676 37.8541C37.1662 37.3577 34.7412 36.5332 32.4556 35.4021C28.6825 33.1961 25.9098 29.6153 24.7186 25.4101C23.5605 21.2227 23.5394 16.8023 24.6576 12.6041C25.0466 10.922 25.6463 9.29585 26.4426 7.76407C27.6073 5.60974 29.2736 3.7675 31.3006 2.39307C32.2159 1.74084 33.2453 1.26597 34.3356 0.993072C35.6775 0.769676 37.0465 0.762582 38.3906 0.972068C40.8516 1.22207 43.3996 1.50007 45.5346 2.74907C47.5744 4.09662 49.2236 5.95727 50.3166 8.14407C53.4106 13.6221 54.9416 20.2491 53.1986 26.2941C51.4556 32.3391 45.9296 37.4621 39.6386 37.5301" fill="#EFC900"/>
<path d="M40.1505 37.0811C39.0252 37.3389 37.9486 37.7754 36.9615 38.3741C36.6598 38.532 36.401 38.7609 36.2075 39.0411C36.1141 39.183 36.0671 39.3505 36.073 39.5203C36.0789 39.6902 36.1374 39.854 36.2405 39.9891C36.4229 40.1573 36.6604 40.2532 36.9085 40.2591C37.3988 40.3026 37.8923 40.2251 38.3457 40.0333C38.799 39.8415 39.1983 39.5413 39.5085 39.1591C39.7015 38.9151 39.9035 38.6131 40.2135 38.5951C40.3951 38.6029 40.571 38.661 40.7215 38.7631C41.5852 39.231 42.5049 39.5872 43.4585 39.8231C43.6792 39.8919 43.9121 39.9127 44.1415 39.8841C44.4121 39.8042 44.6417 39.6234 44.7828 39.379C44.9239 39.1346 44.9657 38.8454 44.8995 38.5711C44.8207 38.2998 44.6827 38.0494 44.4954 37.8379C44.3081 37.6264 44.0763 37.4591 43.8165 37.3481C42.7944 36.959 41.6877 36.8473 40.6085 37.0241" fill="#EFC900"/>
<path d="M18.6796 48.4321C15.8864 47.8778 13.1787 46.9571 10.6266 45.6941C6.41361 43.2309 3.31765 39.2325 1.98755 34.5371C0.694298 29.8612 0.670825 24.9251 1.91955 20.2371C2.35416 18.3603 3.02413 16.5459 3.91355 14.8371C5.21345 12.4305 7.07393 10.3724 9.33755 8.83707C10.3593 8.10795 11.5089 7.5771 12.7265 7.27207C14.2252 7.02228 15.7543 7.01418 17.2555 7.24807C20.0035 7.52807 22.8486 7.83807 25.2326 9.23307C27.5105 10.7371 29.3522 12.8144 30.5725 15.2561C34.0275 21.3731 35.7376 28.7731 33.7906 35.5231C31.8436 42.2731 25.6736 47.9931 18.6496 48.0701" fill="#008CC0"/>
<path d="M18.6796 48.4321C15.8864 47.8778 13.1787 46.9571 10.6266 45.6941C6.41361 43.2309 3.31765 39.2325 1.98755 34.5371C0.694298 29.8612 0.670825 24.9251 1.91955 20.2371C2.35416 18.3603 3.02413 16.5459 3.91355 14.8371C5.21345 12.4305 7.07393 10.3724 9.33755 8.83707C10.3593 8.10795 11.5089 7.5771 12.7265 7.27207C14.2252 7.02228 15.7543 7.01418 17.2555 7.24807C20.0035 7.52807 22.8486 7.83807 25.2326 9.23307C27.5105 10.7371 29.3522 12.8144 30.5725 15.2561C34.0275 21.3731 35.7376 28.7731 33.7906 35.5231C31.8436 42.2731 25.6736 47.9931 18.6496 48.0701" stroke="#008CC0" stroke-miterlimit="10"/>
<path d="M18.2005 48.6231C17.2361 48.8439 16.3134 49.218 15.4675 49.7311C15.2084 49.8662 14.9863 50.0625 14.8205 50.303C14.7399 50.4246 14.6993 50.5683 14.7043 50.714C14.7093 50.8598 14.7597 51.0003 14.8485 51.1161C15.0051 51.26 15.2088 51.3421 15.4215 51.3471C15.8421 51.3845 16.2655 51.318 16.6543 51.1534C17.0432 50.9888 17.3856 50.7311 17.6515 50.4031C17.8175 50.1941 17.9905 49.935 18.2515 49.919C18.407 49.9259 18.5576 49.9758 18.6865 50.0631C19.4264 50.4642 20.2144 50.7693 21.0315 50.971C21.2208 51.0306 21.4206 51.0487 21.6175 51.0241C21.8496 50.9556 22.0466 50.8006 22.1676 50.591C22.2885 50.3814 22.3243 50.1333 22.2675 49.898C22.1999 49.6654 22.0815 49.4506 21.9208 49.2692C21.7602 49.0878 21.5613 48.9443 21.3385 48.8491C20.4626 48.5159 19.5142 48.4203 18.5895 48.572" fill="#008CC0"/>
<path d="M18.2005 48.6231C17.2361 48.8439 16.3134 49.218 15.4675 49.7311C15.2084 49.8662 14.9863 50.0625 14.8205 50.303C14.7399 50.4246 14.6993 50.5683 14.7043 50.714C14.7093 50.8598 14.7597 51.0003 14.8485 51.1161C15.0051 51.26 15.2088 51.3421 15.4215 51.3471C15.8421 51.3845 16.2655 51.318 16.6543 51.1534C17.0432 50.9888 17.3856 50.7311 17.6515 50.4031C17.8175 50.1941 17.9905 49.935 18.2515 49.919C18.407 49.9259 18.5576 49.9758 18.6865 50.0631C19.4264 50.4642 20.2144 50.7693 21.0315 50.971C21.2208 51.0306 21.4206 51.0487 21.6175 51.0241C21.8496 50.9556 22.0466 50.8006 22.1676 50.591C22.2885 50.3814 22.3243 50.1333 22.2675 49.898C22.1999 49.6654 22.0815 49.4506 21.9208 49.2692C21.7602 49.0878 21.5613 48.9443 21.3385 48.8491C20.4626 48.5159 19.5142 48.4203 18.5895 48.572" stroke="#008CC0" stroke-miterlimit="10"/>
<path d="M68.5024 119.7C68.2024 120.88 67.3024 123.829 67.9284 124.873C68.4354 125.72 78.3694 124.028 81.7284 120.963C82.8674 119.923 84.1854 114.198 86.4804 114.616C87.1384 114.736 84.0804 119.661 88.9804 115.729C90.7384 114.32 93.4944 117.467 92.5454 119.566C91.9078 120.716 91.0399 121.723 89.9958 122.522C88.9518 123.322 87.754 123.897 86.4774 124.213C82.5484 124.877 84.1774 126.091 76.6144 128.932C73.8824 129.957 64.3824 134.732 61.5144 132.04C58.4374 129.151 58.2684 123.461 59.4854 117.606L63.1484 118.129C63.9948 118.148 64.8252 118.364 65.5734 118.76L68.5024 119.7Z" fill="#FFF8CE" stroke="#FFF8CE" stroke-width="0.5" stroke-miterlimit="10"/>
<path d="M6.62257 19.192C3.85657 22.992 4.47157 31.556 7.76557 35.109" stroke="#E3F3FD" stroke-miterlimit="10"/>
<path d="M49.4425 17.244C49.56 19.0376 49.4186 20.8388 49.0225 22.592C48.6182 24.3551 47.6745 25.9483 46.3225 27.15" stroke="#FFF8CE" stroke-miterlimit="10"/>
<path d="M75.5815 79.1121C76.1338 79.1121 76.5815 78.4405 76.5815 77.6121C76.5815 76.7836 76.1338 76.1121 75.5815 76.1121C75.0293 76.1121 74.5815 76.7836 74.5815 77.6121C74.5815 78.4405 75.0293 79.1121 75.5815 79.1121Z" fill="#004771"/>
<path d="M89 79.1121C89.5523 79.1121 90 78.4405 90 77.6121C90 76.7836 89.5523 76.1121 89 76.1121C88.4477 76.1121 88 76.7836 88 77.6121C88 78.4405 88.4477 79.1121 89 79.1121Z" fill="#004771"/>
<path d="M184.082 58.1121C184.91 58.1121 185.582 57.4405 185.582 56.6121C185.582 55.7836 184.91 55.1121 184.082 55.1121C183.253 55.1121 182.582 55.7836 182.582 56.6121C182.582 57.4405 183.253 58.1121 184.082 58.1121Z" fill="#004771"/>
<path d="M194.5 58.1121C195.328 58.1121 196 57.4405 196 56.6121C196 55.7836 195.328 55.1121 194.5 55.1121C193.672 55.1121 193 55.7836 193 56.6121C193 57.4405 193.672 58.1121 194.5 58.1121Z" fill="#004771"/>
<path d="M53.8265 153.558L31.3035 165.158L48.7165 175.292L47.2675 193.672C47.2675 193.672 89.5995 170.463 91.3675 173.066" fill="#2E8DAF"/>
<path d="M91.3705 173.06C93.5495 173.024 85.6025 160.722 85.6025 160.722L66.4765 169.751C66.4765 169.751 58.5095 173.599 91.3705 173.06Z" fill="#2A6E8C"/>
<path d="M227.236 144.695L247.736 154.047L233.743 165.82L236.772 183.966C236.772 183.966 198.112 164.982 196.84 167.744" fill="#2E8DAF"/>
<path d="M196.834 167.745C194.957 167.92 200.597 154.909 200.597 154.909L217.924 162.036C217.924 162.036 225.152 165.092 196.834 167.745Z" fill="#2A6E8C"/>
<path d="M45.1226 147.428L66.5146 171.097C66.5146 171.097 109.957 155.097 133.766 154.066C157.575 153.035 188.226 156.678 219.114 163.599L236.304 136.527C236.304 136.527 201.023 111.895 137.832 118.327C137.834 118.322 78.6926 118.928 45.1226 147.428Z" fill="#007BB4"/>
<path d="M70.0175 150.036C69.5095 150.336 69.0035 150.645 68.4935 150.936C68.8235 152.305 68.9935 152.99 69.3185 154.359C69.5275 155.229 69.4745 155.708 69.1185 156.075C68.5825 156.5 67.9416 156.772 67.2635 156.863C67.0456 156.315 66.7596 155.797 66.4125 155.32C66.9245 155.226 67.4545 155.098 67.6185 155.059C67.7825 155.02 67.8405 154.928 67.7865 154.707C67.5005 153.54 67.3575 152.955 67.0705 151.788C66.5645 152.078 66.3125 152.224 65.8085 152.515C65.4675 151.86 65.2965 151.533 64.9535 150.879C65.4345 150.636 66.0205 150.323 66.6245 149.979L66.0015 147.444C65.3375 147.603 65.0015 147.684 64.3415 147.844L63.9275 146.195C64.5945 146.032 64.9275 145.951 65.5955 145.795C65.3215 144.681 65.1845 144.124 64.9095 143.01C65.5395 142.859 65.8555 142.784 66.4865 142.635C66.7565 143.75 66.8865 144.308 67.1615 145.423C67.7465 145.285 68.0385 145.217 68.6245 145.081L69.0165 146.735C68.4335 146.87 68.1425 146.935 67.5605 147.075L68.0695 149.185C68.6125 148.876 68.8845 148.722 69.4285 148.416C69.6665 149.061 69.7845 149.386 70.0175 150.036ZM75.8695 143.549C75.0425 143.724 74.6295 143.813 73.8045 143.992C74.5745 147.447 74.9595 149.174 75.7275 152.63C75.9575 153.667 75.8565 154.23 75.3585 154.668C74.6068 155.164 73.7518 155.483 72.8585 155.599C72.5946 154.959 72.2447 154.357 71.8185 153.811C72.6185 153.692 73.5635 153.464 73.8185 153.411C74.0735 153.358 74.1525 153.244 74.0885 152.962C73.3085 149.522 72.9175 147.802 72.1335 144.362C70.8205 144.654 70.1645 144.801 68.8535 145.105C68.6875 144.405 68.6045 144.051 68.4375 143.348C71.2545 142.698 72.6645 142.386 75.4915 141.788C75.6425 142.492 75.7175 142.844 75.8715 143.55L75.8695 143.549Z" fill="white"/>
<path d="M82.8224 146.305C82.8506 147.743 82.7191 149.179 82.4304 150.588C82.6234 150.688 82.8484 150.815 83.1234 150.93C84.3202 151.301 85.6002 151.309 86.8014 150.952C88.5279 150.623 90.2314 150.183 91.9014 149.635C91.7884 150.262 91.7512 150.9 91.7904 151.535C90.7354 151.795 88.5324 152.298 87.0494 152.576C85.8007 152.938 84.4708 152.907 83.2404 152.487C82.6514 152.247 82.0934 151.848 81.8404 151.898C81.5484 151.957 81.3404 153.052 81.2224 153.959C80.6824 153.359 80.4114 153.059 79.8684 152.469C80.2063 151.788 80.6199 151.148 81.1014 150.56C81.3371 149.697 81.4277 148.8 81.3694 147.907C80.6804 148.045 80.3364 148.114 79.6484 148.254C79.7694 147.362 79.8734 146.118 79.9484 144.94C79.3994 145.05 79.1254 145.106 78.5764 145.219C78.4444 144.59 78.3764 144.275 78.2444 143.645C79.5234 143.383 80.1634 143.254 81.4444 143.002C81.3754 144.067 81.2744 145.294 81.1714 146.366L81.9064 146.22L82.1064 146.104L82.8224 146.305ZM79.6114 142.98C79.3114 142.36 78.7774 141.38 78.3764 140.644C78.9084 140.338 79.1764 140.185 79.7074 139.88C80.1184 140.619 80.6324 141.538 80.9584 142.138C80.4184 142.474 80.1494 142.642 79.6124 142.98H79.6114ZM82.9114 143.72C82.4507 143.48 81.9682 143.284 81.4704 143.135C82.1459 141.97 82.5451 140.666 82.6374 139.323C83.2464 139.367 83.5504 139.389 84.1584 139.435C84.1224 139.845 84.0653 140.253 83.9874 140.657L84.9044 140.485C84.7764 139.817 84.7124 139.485 84.5844 138.816L86.1374 138.529C86.2624 139.198 86.3264 139.529 86.4504 140.2C87.5944 139.992 88.1654 139.89 89.3104 139.691C89.4194 140.291 89.4734 140.591 89.5824 141.198C88.4424 141.398 87.8724 141.498 86.7344 141.706L86.9694 142.96C88.3174 142.714 88.9914 142.594 90.3424 142.36L90.6074 143.854C87.2694 144.433 85.6024 144.74 82.2764 145.391C82.1574 144.791 82.0974 144.497 81.9764 143.902L82.9114 143.72ZM83.5494 142.299C83.3948 142.785 83.1987 143.257 82.9634 143.71C83.9504 143.519 84.4444 143.425 85.4334 143.241C85.3334 142.741 85.2894 142.49 85.1934 141.99C84.5374 142.113 84.2084 142.174 83.5514 142.3L83.5494 142.299ZM89.2074 149.708L89.1324 149.308C87.7514 149.557 87.0604 149.684 85.6814 149.945L85.7674 150.392C85.1854 150.502 84.8944 150.557 84.3134 150.67C83.9414 148.788 83.7554 147.847 83.3824 145.97C85.9754 145.47 87.2744 145.23 89.8734 144.77C90.2104 146.639 90.3794 147.57 90.7154 149.444C90.1134 149.548 89.8124 149.601 89.2094 149.709L89.2074 149.708ZM88.8584 147.808C88.7584 147.259 88.7064 146.985 88.6064 146.435C87.2144 146.686 86.5184 146.814 85.1284 147.077L85.3934 148.448C86.7794 148.191 87.4734 148.064 88.8604 147.814L88.8584 147.808Z" fill="white"/>
<path d="M105.014 141.559C105.122 142.335 105.176 142.723 105.283 143.498C100.504 144.142 98.1185 144.498 93.3605 145.298C93.2285 144.526 93.1605 144.141 93.0305 143.369C97.8125 142.569 100.205 142.207 105.014 141.559Z" fill="white"/>
<path d="M110.447 135.409C110.272 136.393 110.047 137.398 109.771 138.394C110.306 142.664 110.571 144.794 111.102 149.069C110.524 149.14 110.235 149.175 109.657 149.248C109.262 146.166 109.064 144.624 108.667 141.542C108.44 142.042 108.21 142.517 107.967 142.942C107.686 142.302 107.356 141.685 106.98 141.096C107.995 139.224 108.655 137.181 108.928 135.07C109.534 135.206 109.839 135.274 110.447 135.409ZM118.584 134.756C119.12 140.026 119.384 142.662 119.913 147.934C119.333 147.99 119.043 148.019 118.463 148.079L118.386 147.339C116.453 147.539 115.486 147.639 113.556 147.862C113.598 148.212 113.617 148.387 113.656 148.737C113.103 148.8 112.826 148.837 112.272 148.898C111.629 143.584 111.306 140.927 110.656 135.614C113.827 135.238 115.412 135.067 118.585 134.756H118.584ZM118.227 145.786C117.838 142.055 117.643 140.186 117.25 136.46C115.26 136.66 114.266 136.771 112.279 136.999C112.72 140.724 112.939 142.586 113.379 146.311C115.313 146.086 116.284 145.986 118.227 145.786ZM115.693 139.811L115.835 141.111L117.09 140.979C117.262 142.596 117.348 143.405 117.519 145.022C116.086 145.17 115.37 145.247 113.938 145.409C113.751 143.794 113.657 142.986 113.469 141.37C113.935 141.317 114.169 141.291 114.632 141.24L114.486 139.94C113.886 140.006 113.581 140.04 112.978 140.109C112.917 139.59 112.886 139.331 112.826 138.809C113.426 138.74 113.733 138.709 114.339 138.639C114.269 138.023 114.239 137.716 114.164 137.101L115.379 136.969C115.447 137.585 115.479 137.892 115.549 138.508C116.186 138.44 116.504 138.408 117.141 138.342C117.196 138.861 117.223 139.12 117.278 139.642C116.642 139.709 116.327 139.742 115.691 139.81L115.693 139.811ZM116.062 142.334L114.734 142.478C114.806 143.111 114.841 143.428 114.913 144.061L116.236 143.918L116.062 142.334Z" fill="white"/>
<path d="M124.246 139.037C124.256 141.161 124.123 143.284 123.846 145.39C123.2 145.154 122.876 145.036 122.228 144.803C122.553 142.831 122.707 140.835 122.689 138.837C123.315 138.916 123.625 138.956 124.246 139.037ZM126.619 137.611C126.846 140.418 126.959 141.821 127.184 144.628C127.241 145.339 127.354 145.451 127.975 145.404C128.714 145.348 129.083 145.32 129.823 145.268C130.469 145.222 130.551 144.73 130.474 142.363C130.932 142.674 131.444 142.897 131.985 143.021C131.997 145.91 131.645 146.827 130.062 146.94C129.208 147.001 128.781 147.032 127.926 147.098C126.253 147.227 125.74 146.663 125.579 144.758C125.342 141.952 125.223 140.549 124.984 137.743C125.638 137.688 125.96 137.661 126.619 137.611ZM126.17 133.552C127.571 134.368 128.885 135.327 130.089 136.413C129.664 137.008 129.452 137.306 129.03 137.901C127.863 136.754 126.576 135.736 125.193 134.863C125.582 134.339 125.777 134.076 126.17 133.547V133.552ZM132.283 137.619C133.145 139.39 133.831 141.242 134.331 143.148C133.72 143.488 133.415 143.658 132.806 144.001C132.361 142.071 131.711 140.193 130.867 138.401C131.432 138.085 131.715 137.929 132.282 137.619H132.283Z" fill="white"/>
<path d="M146.774 133.049C146.923 138.32 146.996 140.956 147.137 146.228C146.487 146.245 146.162 146.254 145.512 146.274C145.5 145.898 145.494 145.71 145.483 145.334C143.083 145.407 141.89 145.453 139.497 145.563C139.515 145.939 139.524 146.127 139.542 146.503C138.923 146.532 138.614 146.547 137.996 146.578C137.725 141.312 137.588 138.678 137.311 133.412C141.092 133.221 142.985 133.149 146.774 133.049ZM138.995 135.092C139.029 135.792 139.045 136.138 139.079 136.835C141.528 136.722 142.753 136.675 145.205 136.6C145.182 135.9 145.171 135.554 145.148 134.856C142.686 134.931 141.455 134.978 138.995 135.091V135.092ZM139.16 138.532C139.195 139.248 139.212 139.605 139.245 140.32C141.672 140.208 142.886 140.161 145.315 140.088C145.292 139.372 145.28 139.014 145.257 138.299C142.818 138.372 141.599 138.419 139.161 138.531L139.16 138.532ZM145.426 143.575C145.404 142.859 145.392 142.502 145.37 141.787C142.952 141.861 141.743 141.907 139.327 142.019L139.412 143.807C141.817 143.697 143.02 143.648 145.426 143.574V143.575Z" fill="white"/>
<path d="M162.263 134.748C162.227 137.776 162.208 139.29 162.17 142.318C161.517 142.31 161.191 142.306 160.538 142.3L160.544 141.541C159.362 141.531 158.771 141.528 157.589 141.527C157.589 143.42 157.589 144.367 157.589 146.261C156.938 146.261 156.612 146.261 155.962 146.261C155.956 144.367 155.952 143.42 155.945 141.527C154.768 141.527 154.18 141.535 153.004 141.549C153.004 141.883 153.01 142.049 153.014 142.384C152.388 142.391 152.075 142.395 151.449 142.404C151.401 139.346 151.377 137.817 151.327 134.758C153.163 134.73 154.081 134.722 155.918 134.716C155.918 133.666 155.91 133.141 155.906 132.092C156.581 132.092 156.919 132.092 157.594 132.092C157.594 133.142 157.594 133.667 157.594 134.716C159.46 134.718 160.394 134.725 162.263 134.748ZM155.935 139.754C155.93 138.454 155.927 137.798 155.922 136.493C154.73 136.493 154.133 136.501 152.941 136.514C152.957 137.814 152.965 138.47 152.979 139.775C154.162 139.763 154.753 139.758 155.935 139.754ZM160.559 139.766C160.57 138.466 160.575 137.809 160.585 136.505C159.385 136.496 158.785 136.493 157.591 136.492C157.591 137.792 157.591 138.448 157.591 139.753C158.778 139.754 159.372 139.757 160.559 139.767V139.766Z" fill="white"/>
<path d="M169.547 143.424C168.095 143.969 166.521 144.506 165.267 144.951C165.142 144.214 165.08 143.845 164.954 143.109C165.413 142.98 165.954 142.827 166.554 142.643C166.589 141.217 166.606 140.504 166.64 139.078L165.31 139.049C165.324 138.388 165.33 138.057 165.344 137.396C165.878 137.408 166.144 137.413 166.679 137.426C166.705 136.358 166.717 135.826 166.743 134.756C166.157 134.742 165.864 134.735 165.278 134.724C165.292 134.051 165.298 133.714 165.311 133.041C167.077 133.077 167.96 133.1 169.725 133.156C169.704 133.829 169.694 134.166 169.673 134.838C169.103 134.82 168.818 134.812 168.248 134.796C168.219 135.863 168.204 136.396 168.174 137.466C168.65 137.479 168.888 137.487 169.365 137.502C169.345 138.163 169.335 138.493 169.314 139.154L168.129 139.119C168.095 140.333 168.078 140.939 168.043 142.153C168.479 142.013 168.915 141.874 169.343 141.72C169.424 142.4 169.467 142.742 169.547 143.424ZM177.233 144.675C177.198 145.33 177.181 145.657 177.146 146.312C173.82 146.138 172.156 146.07 168.829 145.969C168.849 145.314 168.859 144.986 168.88 144.331C170.314 144.374 171.031 144.399 172.465 144.456C172.488 143.88 172.5 143.592 172.523 143.016C171.443 142.973 170.904 142.954 169.823 142.916C169.844 142.267 169.855 141.943 169.877 141.294C170.961 141.329 171.503 141.349 172.587 141.394C172.608 140.872 172.618 140.611 172.639 140.094C171.588 140.052 171.062 140.034 170.011 139.999C170.104 137.178 170.15 135.769 170.241 132.948C173.035 133.04 174.433 133.098 177.227 133.24C177.085 136.058 177.014 137.467 176.87 140.285C175.814 140.231 175.285 140.207 174.229 140.16C174.206 140.682 174.194 140.943 174.172 141.46C175.282 141.509 175.837 141.536 176.947 141.592C176.914 142.24 176.897 142.565 176.864 143.213C175.758 143.157 175.206 143.13 174.1 143.081C174.075 143.657 174.062 143.945 174.036 144.522C175.316 144.576 175.955 144.607 177.233 144.674V144.675ZM171.574 135.783C172.121 135.803 172.395 135.814 172.942 135.836C172.962 135.336 172.972 135.081 172.992 134.578C172.443 134.556 172.169 134.546 171.619 134.526C171.601 135.029 171.592 135.279 171.574 135.782V135.783ZM171.474 138.513C172.017 138.533 172.289 138.543 172.832 138.565C172.853 138.043 172.864 137.782 172.884 137.265C172.339 137.243 172.066 137.233 171.52 137.213C171.504 137.729 171.494 137.99 171.475 138.512L171.474 138.513ZM175.645 134.694C175.117 134.669 174.853 134.657 174.325 134.635C174.303 135.135 174.292 135.389 174.27 135.893L175.586 135.952C175.611 135.446 175.622 135.195 175.646 134.692L175.645 134.694ZM175.52 137.377C174.996 137.352 174.734 137.34 174.209 137.318C174.186 137.839 174.174 138.1 174.152 138.618L175.458 138.677L175.52 137.377Z" fill="white"/>
<path d="M182.064 138.996C181.631 139.774 181.084 140.481 180.441 141.096C180.19 140.624 179.879 140.187 179.516 139.796C180.565 138.912 181.402 137.805 181.968 136.555C181.198 136.506 180.813 136.483 180.043 136.439C180.079 135.827 180.097 135.521 180.132 134.91C181.006 134.961 181.443 134.987 182.318 135.043C182.372 134.189 182.4 133.762 182.454 132.908C183.06 132.947 183.363 132.967 183.969 133.008C183.911 133.861 183.883 134.289 183.825 135.143C184.576 135.193 184.952 135.219 185.704 135.274C185.66 135.885 185.638 136.191 185.593 136.802C184.844 136.748 184.47 136.722 183.721 136.671L183.683 137.231C184.372 137.799 185.03 138.403 185.655 139.042C185.285 139.594 185.101 139.869 184.734 140.422C184.458 140.022 184.01 139.443 183.569 138.912C183.483 140.177 183.44 140.812 183.353 142.076C182.761 142.036 182.466 142.016 181.874 141.976C181.949 140.786 181.987 140.189 182.064 138.996ZM179.29 145.242C179.875 144.294 180.32 143.265 180.611 142.189C181.15 142.478 181.419 142.621 181.956 142.912C181.635 144.032 181.2 145.115 180.656 146.145C180.109 145.783 179.836 145.602 179.29 145.239V145.242ZM186.716 145.498C187.325 145.545 187.433 145.341 187.634 143.82C188.021 144.164 188.479 144.418 188.976 144.566C188.599 146.712 188.129 147.205 186.707 147.094C185.777 147.022 185.307 146.988 184.381 146.922C182.624 146.797 182.218 146.272 182.322 144.697C182.378 143.868 182.405 143.453 182.46 142.624C183.072 142.664 183.378 142.685 183.989 142.724C183.932 143.541 183.903 143.95 183.845 144.767C183.813 145.221 183.938 145.289 184.639 145.34C185.475 145.404 185.885 145.439 186.715 145.498H186.716ZM185.489 141.633L185.731 141.924C185.97 138.724 186.089 137.124 186.325 133.924C188.497 134.084 189.583 134.171 191.753 134.361C191.468 137.614 191.324 139.24 191.035 142.492C188.962 142.311 187.925 142.227 185.851 142.074C186.3 142.621 186.721 143.192 187.111 143.783C186.628 144.183 186.388 144.383 185.911 144.783C185.438 144.007 184.915 143.262 184.345 142.555C184.8 142.185 185.029 142.002 185.489 141.633ZM187.589 136.333C188.567 136.408 189.057 136.448 190.035 136.533C190.064 136.182 190.079 136.007 190.108 135.656C189.128 135.574 188.638 135.534 187.658 135.456C187.631 135.803 187.618 135.978 187.591 136.329L187.589 136.333ZM187.417 138.541C188.39 138.616 188.875 138.656 189.848 138.741L189.922 137.864C188.948 137.783 188.46 137.743 187.486 137.664L187.417 138.541ZM187.243 140.765C188.21 140.84 188.693 140.879 189.66 140.96C189.691 140.597 189.705 140.415 189.736 140.053C188.767 139.971 188.282 139.933 187.313 139.853C187.287 140.216 187.275 140.398 187.245 140.761L187.243 140.765ZM190.133 142.69C190.575 143.672 191.215 145.022 191.494 145.84C190.886 146.132 190.584 146.279 189.979 146.575C189.738 145.748 189.138 144.357 188.713 143.303C189.281 143.052 189.565 142.93 190.135 142.686L190.133 142.69Z" fill="white"/>
<path d="M206.622 137.532C206.622 137.532 206.54 138.132 206.505 138.343C205.371 144.905 205.025 147.425 204.394 148.157C204.238 148.366 204.035 148.536 203.803 148.653C203.57 148.771 203.313 148.833 203.053 148.834C202.37 148.88 201.684 148.809 201.025 148.626C200.925 148.499 200.94 147.347 200.725 146.818C201.358 146.956 201.999 147.062 202.644 147.133C202.751 147.155 202.863 147.149 202.968 147.117C203.073 147.084 203.168 147.025 203.244 146.945C203.679 146.509 204.127 144.27 204.931 138.972C203.799 138.833 203.231 138.766 202.099 138.636C201.693 139.43 201.212 140.183 200.664 140.886C200.379 140.547 200.072 140.227 199.744 139.93C199.432 142.747 199.276 144.156 198.962 146.972C197.579 146.82 196.887 146.748 195.504 146.61C195.459 147.051 195.436 147.271 195.391 147.71L193.998 147.579C194.44 143.092 194.66 140.847 195.098 136.36C195.698 136.418 195.998 136.448 196.598 136.508C196.862 135.726 197.074 134.927 197.232 134.116C197.917 134.295 198.259 134.385 198.943 134.568C198.635 135.299 198.316 136.029 198.022 136.654C198.846 136.739 199.259 136.783 200.083 136.873C199.975 137.85 199.921 138.339 199.813 139.315C200.823 137.89 201.613 136.321 202.155 134.661C202.741 134.887 203.035 135 203.619 135.227C203.401 135.857 203.152 136.475 202.873 137.08C204.37 137.252 205.123 137.343 206.622 137.532ZM198.48 138.284C197.637 138.196 197.216 138.152 196.374 138.067C196.274 139.046 196.225 139.535 196.126 140.513C196.963 140.597 197.382 140.64 198.218 140.728L198.48 138.284ZM197.735 145.239C197.862 144.056 197.925 143.465 198.052 142.282C197.219 142.193 196.801 142.151 195.968 142.067C195.848 143.251 195.788 143.842 195.668 145.025C196.494 145.109 196.908 145.152 197.735 145.239ZM202.148 144.907C201.754 143.648 201.281 142.416 200.734 141.216C201.26 140.951 201.523 140.816 202.051 140.557C202.626 141.718 203.135 142.911 203.578 144.129C203.004 144.439 202.719 144.594 202.148 144.907Z" fill="white"/>
<path d="M219.594 143.736C218.994 144.115 218.327 144.502 217.681 144.861C217.743 145.727 217.989 146.569 218.401 147.333C218.813 148.096 219.383 148.763 220.072 149.29C219.594 149.657 219.169 150.089 218.811 150.575C217.372 149.289 216.482 147.499 216.325 145.575C216.179 145.66 216.025 145.728 215.877 145.797C215.954 146.524 215.882 147.258 215.666 147.956C215.451 148.654 215.097 149.302 214.624 149.859C214.403 150.054 214.141 150.198 213.858 150.281C213.575 150.363 213.277 150.382 212.985 150.336C212.705 150.305 212.316 150.236 211.945 150.168C212.006 149.578 211.951 148.981 211.783 148.412C212.161 148.518 212.546 148.599 212.934 148.656C213.071 148.684 213.213 148.675 213.345 148.63C213.478 148.585 213.595 148.505 213.686 148.399C214.022 147.979 214.232 147.473 214.292 146.939C212.526 147.925 210.624 148.646 208.647 149.078C208.51 148.523 208.308 147.987 208.047 147.478C210.28 147.209 212.423 146.443 214.32 145.236C214.295 145.048 214.259 144.844 214.21 144.636C212.609 145.434 210.916 146.032 209.169 146.417C209.028 145.903 208.834 145.405 208.591 144.931C210.399 144.721 212.157 144.206 213.791 143.407C213.697 143.225 213.604 143.042 213.497 142.858C212.255 143.364 210.957 143.721 209.631 143.923C209.477 143.403 209.274 142.898 209.023 142.417C210.557 142.289 212.063 141.931 213.49 141.355C212.584 141.223 212.131 141.155 211.224 141.033C211.31 140.426 211.353 140.123 211.438 139.515C214.395 139.927 215.873 140.147 218.826 140.615C218.726 141.221 218.68 141.523 218.583 142.129C217.415 141.944 216.831 141.854 215.663 141.677C215.381 141.891 215.082 142.082 214.769 142.249C215.184 142.851 215.481 143.526 215.646 144.238C216.644 143.696 217.593 143.067 218.48 142.359C218.931 142.911 219.152 143.186 219.594 143.736ZM210.902 140.409C210.284 140.323 209.976 140.281 209.358 140.198C209.543 138.839 209.635 138.159 209.819 136.798C211.748 137.057 212.711 137.192 214.637 137.474C214.588 137.19 214.521 136.908 214.437 136.632C215.137 136.514 215.493 136.455 216.198 136.34C216.364 136.802 216.487 137.277 216.567 137.761C218.461 138.048 219.407 138.197 221.299 138.507C221.074 139.861 220.961 140.537 220.736 141.89C220.093 141.79 219.772 141.733 219.129 141.631C219.244 140.924 219.301 140.571 219.416 139.863C216.116 139.335 214.46 139.089 211.151 138.632C211.051 139.344 211.002 139.699 210.903 140.411L210.902 140.409Z" fill="white"/>
</svg>
