<svg width="183" height="183" viewBox="0 0 183 183" fill="none" xmlns="http://www.w3.org/2000/svg">
<path d="M90.7019 159.216C129.362 159.216 160.702 127.876 160.702 89.2161C160.702 50.5561 129.362 19.2161 90.7019 19.2161C52.042 19.2161 20.7019 50.5561 20.7019 89.2161C20.7019 127.876 52.042 159.216 90.7019 159.216Z" fill="#BF49AF"/>
<path d="M91.8351 134.735C89.3233 134.734 86.897 133.822 85.0069 132.168C83.1168 130.514 81.8913 128.23 81.5581 125.74L76.0821 84.85C75.7399 82.2841 76.3661 79.6828 77.8385 77.5537C79.3108 75.4246 81.5236 73.9205 84.0451 73.335L84.4661 73.235C85.9836 72.8832 87.5607 72.8765 89.0811 73.2154C90.6016 73.5544 92.0265 74.2304 93.2509 75.1935C94.4752 76.1566 95.4678 77.3823 96.1552 78.7801C96.8427 80.1779 97.2077 81.7123 97.2231 83.27L97.6741 128.834C97.6814 129.606 97.5357 130.371 97.2456 131.086C96.9555 131.801 96.5266 132.452 95.9838 133C95.441 133.549 94.7949 133.985 94.0828 134.282C93.3707 134.58 92.6068 134.733 91.8351 134.734V134.735Z" fill="#D195CB"/>
<path d="M84.8171 142.378H17.9951L27.3341 76.6581C27.6152 74.6804 28.2945 72.7803 29.3311 71.0727C30.3676 69.3651 31.7398 67.8856 33.3646 66.7236C34.9894 65.5616 36.8331 64.7413 38.7841 64.3124C40.735 63.8834 42.7527 63.8548 44.7151 64.2281L87.9631 72.4581C89.9768 72.8414 91.8886 73.6397 93.5769 74.8021C95.2653 75.9646 96.6931 77.4657 97.7697 79.2101C98.8462 80.9545 99.5478 82.9039 99.8299 84.9342C100.112 86.9645 99.9684 89.0313 99.4081 91.0031L84.8171 142.378Z" fill="#8C317B"/>
<path d="M81.3472 71.257C80.3642 73.295 78.2412 76.7801 74.4582 78.0851C68.2042 80.2421 59.3352 75.7751 54.6782 66.0771C56.3539 63.3921 57.5318 60.427 58.1552 57.3241C59.1772 51.9326 58.5471 46.3582 56.3472 41.3311L90.0302 56.2121C88.2922 57.3121 83.4862 60.6761 81.8752 66.7781C81.4909 68.2391 81.3131 69.7467 81.3472 71.257Z" fill="#F7C2B5"/>
<path d="M58.1542 57.324C58.7635 54.0773 58.7825 50.7474 58.2102 47.494C57.8347 45.374 57.2086 43.3062 56.3452 41.334L90.0282 56.212C88.5375 57.0569 87.1812 58.1196 86.0042 59.365C84.0418 61.4611 82.6234 64.0064 81.8732 66.778C80.4966 67.4477 79.021 67.891 77.5032 68.091C67.2182 69.403 59.0712 58.586 58.1542 57.324Z" fill="#E2AFA6"/>
<path d="M103.796 33.254C104.959 42.39 101.141 52.254 93.7962 57.754C90.3168 60.461 86.1159 62.0812 81.7199 62.4115C77.3239 62.7418 72.9281 61.7677 69.0832 59.611C65.2963 57.4801 62.1506 54.372 59.9742 50.611C59.1433 49.2774 58.4277 47.8753 57.8352 46.42C54.1662 45.943 51.7142 43.011 51.9082 40.21C52.1082 37.38 54.9212 35.799 55.1382 35.681C55.2632 20.752 67.1232 9.28103 79.9542 9.40703C93.2752 9.54303 102.385 22.133 103.796 33.254Z" fill="#F7C2B5"/>
<path d="M56.1102 26.078L102.464 28.149C104.106 32.522 104.445 37.2775 103.438 41.839C97.1776 40.1053 91.3057 37.1918 86.1382 33.255C83.1182 35.0694 79.8387 36.4119 76.4132 37.236C69.3249 38.8567 61.9134 38.3147 55.1362 35.68C55.4629 32.4787 55.7876 29.278 56.1102 26.078Z" fill="#FFC735"/>
<path d="M85.7611 30.1171C102.138 30.1171 115.414 27.4621 115.414 24.1851C115.414 20.9081 102.138 18.2531 85.7611 18.2531C69.3841 18.2531 56.1091 20.9101 56.1091 24.1851C56.1091 27.4601 69.3841 30.1171 85.7611 30.1171Z" fill="#D195CB"/>
<path d="M56.1062 26.078C61.4002 27.929 78.7922 33.257 94.2862 24.516C96.8034 23.0933 99.1436 21.378 101.258 19.406C97.1582 10.278 88.1582 4.52101 78.7212 4.86801C67.5812 5.28501 57.8062 14.153 56.1062 26.078Z" fill="#8C317B"/>
<path d="M49.4042 142.47H30.5152L22.0872 79.546C21.6538 76.3078 22.4436 73.0243 24.3021 70.3373C26.1606 67.6503 28.9543 65.7529 32.1372 65.016L32.6682 64.892C34.5826 64.4482 36.5721 64.4399 38.4901 64.8676C40.4081 65.2953 42.2056 66.1481 43.7501 67.3631C45.2945 68.5782 46.5465 70.1245 47.4136 71.8879C48.2808 73.6514 48.7409 75.587 48.7602 77.552L49.4042 142.47Z" fill="#D195CB"/>
<path d="M74.458 78.086L57.6661 59.329L49.175 65.07L69.9501 87.911C71.4521 84.6356 72.9547 81.3606 74.458 78.086Z" fill="#D195CB"/>
<path d="M79.8201 86.056L74.4531 78.085L81.5641 68.196L84.8271 71.854L79.8201 86.056Z" fill="#D195CB"/>
<path d="M75.6991 43.0431C75.9994 43.0431 76.2929 42.9541 76.5425 42.7873C76.7921 42.6205 76.9867 42.3834 77.1016 42.106C77.2165 41.8286 77.2465 41.5234 77.188 41.2289C77.1294 40.9345 76.9848 40.664 76.7725 40.4517C76.5602 40.2394 76.2897 40.0948 75.9953 40.0362C75.7008 39.9777 75.3956 40.0077 75.1182 40.1226C74.8408 40.2375 74.6038 40.4321 74.437 40.6817C74.2702 40.9314 74.1812 41.2248 74.1812 41.5251C74.1812 41.9277 74.3411 42.3138 74.6258 42.5985C74.9104 42.8832 75.2965 43.0431 75.6991 43.0431Z" fill="#8C317B"/>
<path d="M93.965 44.5601C94.2653 44.5601 94.5587 44.471 94.8084 44.3042C95.058 44.1374 95.2526 43.9003 95.3675 43.623C95.4824 43.3456 95.5124 43.0404 95.4539 42.7459C95.3953 42.4514 95.2507 42.181 95.0384 41.9687C94.8261 41.7564 94.5556 41.6118 94.2612 41.5532C93.9667 41.4946 93.6615 41.5247 93.3841 41.6396C93.1067 41.7545 92.8697 41.9491 92.7029 42.1987C92.5361 42.4483 92.447 42.7418 92.447 43.042C92.447 43.4446 92.607 43.8308 92.8916 44.1154C93.1763 44.4001 93.5624 44.5601 93.965 44.5601Z" fill="#8C317B"/>
<path d="M79.5732 54.4701C79.6731 55.2959 80.0763 56.0551 80.7047 56.6001C81.3331 57.1451 82.1416 57.437 82.9732 57.4191C83.6165 57.3491 84.2245 57.0899 84.7205 56.6742C85.2164 56.2586 85.5779 55.7052 85.7592 55.0841L79.5732 54.4701Z" fill="#8C317B"/>
<path d="M29.6072 65.943L29.3132 65.962L29.4302 67.729L29.7242 67.709L29.6072 65.943Z" fill="#8C317B"/>
<path d="M34.0172 136.986L33.7872 133.53L34.0822 133.51L34.3112 136.973L34.0172 136.986ZM33.5582 130.062L33.3292 126.598L33.6222 126.58L33.8522 130.043L33.5582 130.062ZM33.0992 123.139L32.8702 119.676L33.1652 119.657L33.3942 123.12L33.0992 123.139ZM32.6412 116.213L32.4112 112.747L32.7062 112.727L32.9352 116.19L32.6412 116.213ZM32.1782 109.285L31.9532 105.822L32.2462 105.802L32.4762 109.265L32.1782 109.285ZM31.7232 102.356L31.4942 98.8931L31.7892 98.8731L32.0182 102.336L31.7232 102.356ZM31.2652 95.4331L31.0352 91.9641L31.3302 91.9441L31.5592 95.4071L31.2652 95.4331ZM30.8062 88.507L30.5772 85.0441L30.8702 85.0241L31.1002 88.4871L30.8062 88.507ZM30.3522 81.5831L30.1232 78.1201L30.4182 78.1001L30.6472 81.563L30.3522 81.5831ZM29.8892 74.6571L29.6592 71.1941L29.9542 71.1741L30.1832 74.6371L29.8892 74.6571Z" fill="#8C317B"/>
<path d="M34.5452 140.429L34.2512 140.448L34.3682 142.215L34.6622 142.195L34.5452 140.429Z" fill="#8C317B"/>
<path d="M75.9361 89.26C76.217 89.2602 76.4916 89.1771 76.7253 89.0212C76.9589 88.8653 77.1411 88.6436 77.2487 88.3841C77.3563 88.1247 77.3846 87.8391 77.3299 87.5636C77.2752 87.2881 77.1401 87.035 76.9415 86.8363C76.743 86.6376 76.49 86.5023 76.2145 86.4474C75.939 86.3925 75.6534 86.4206 75.3939 86.528C75.1344 86.6355 74.9125 86.8175 74.7565 87.051C74.6004 87.2846 74.5171 87.5592 74.5171 87.84C74.5171 88.2165 74.6665 88.5775 74.9326 88.8438C75.1987 89.11 75.5596 89.2598 75.9361 89.26Z" fill="#56224F"/>
<path d="M75.9361 97.2651C76.217 97.2653 76.4916 97.1821 76.7253 97.0262C76.9589 96.8703 77.1411 96.6486 77.2487 96.3892C77.3563 96.1297 77.3846 95.8442 77.3299 95.5686C77.2752 95.2931 77.1401 95.04 76.9415 94.8413C76.743 94.6426 76.49 94.5073 76.2145 94.4524C75.939 94.3975 75.6534 94.4256 75.3939 94.5331C75.1344 94.6405 74.9125 94.8225 74.7565 95.056C74.6004 95.2896 74.5171 95.5641 74.5171 95.845C74.5171 96.2215 74.6665 96.5825 74.9326 96.8488C75.1987 97.1151 75.5596 97.2648 75.9361 97.2651Z" fill="#56224F"/>
<path d="M73.5392 29.414C70.042 29.3407 66.561 28.9173 63.1482 28.15C60.7616 27.6125 58.4156 26.9087 56.1272 26.044C58.6192 21.674 65.1632 10.81 71.2922 8.06899C72.1342 7.69399 74.1212 6.80499 75.2242 7.64799C76.5472 8.65899 75.8452 11.59 75.5052 13.125C74.3715 18.4862 73.7136 23.937 73.5392 29.414Z" fill="#B27BAF"/>
<path d="M77.217 6.65706C79.2107 7.84217 81.3821 8.69847 83.648 9.19306C86.6901 9.84897 89.8375 9.84522 92.8781 9.18206C89.7505 7.03776 86.182 5.62203 82.435 5.03906C80.582 5.09665 78.779 5.65434 77.217 6.65306V6.65706Z" fill="#B27BAF"/>
<path d="M74.3725 5.92871C74.2797 4.01525 73.2745 2.82825 72.4313 2.84606C72.0258 2.91226 71.6583 3.11688 71.3957 3.42273C71.1331 3.72858 70.9928 4.11534 71.0003 4.5127C71.1319 5.54068 72.9697 6.23023 74.3738 5.92871C75.9246 5.59538 77.3313 4.01526 76.9311 2.95484C76.7842 2.6227 76.5235 2.34954 76.1928 2.18123C75.862 2.01292 75.4815 1.95971 75.115 2.03055C74.2948 2.31299 73.8531 3.86259 74.3725 5.92871Z" stroke="#D195CB" stroke-width="4" stroke-linecap="round" stroke-linejoin="round"/>
<path d="M78.4981 51.462L76.7891 54.762C78.8226 55.1489 80.8772 55.416 82.9421 55.562C84.6931 55.684 86.3331 55.711 87.8421 55.676L86.8171 52.258C84.0199 52.6415 81.1718 52.369 78.4981 51.462Z" fill="#FFC735"/>
<path d="M75.586 81.11L82.607 85.344L81.724 74.812L75.015 78.372L65.488 74.872L66.125 85.38L75.586 81.11Z" fill="#56224F"/>
<path d="M120.553 33.237C120.484 35.1599 119.739 36.9968 118.449 38.4246C117.159 39.8523 115.407 40.7795 113.501 41.043C115.32 41.2195 117.02 42.0223 118.312 43.314C119.759 44.8231 120.556 46.8402 120.531 48.931C120.538 47.0303 121.245 45.1988 122.519 43.7875C123.792 42.3762 125.541 41.4844 127.431 41.283C125.523 40.9602 123.789 39.9777 122.531 38.5068C121.274 37.0359 120.573 35.1701 120.55 33.235L120.553 33.237Z" fill="#FFC735"/>
<path d="M103.649 75.8151L116.382 81.3581L103.072 127.444C102.418 129.798 100.917 131.828 98.858 133.143C96.7986 134.458 94.3259 134.965 91.915 134.568L91.52 134.498C90.0836 134.22 88.7285 133.621 87.5559 132.746C86.3832 131.871 85.4233 130.742 84.7476 129.444C84.072 128.147 83.6981 126.713 83.6539 125.25C83.6096 123.788 83.8961 122.334 84.492 120.998L103.649 75.8151Z" fill="#D195CB"/>
<path d="M119.185 73.406C118.234 75.862 116.785 79.617 113.398 80.287C112.132 80.4641 110.841 80.2967 109.662 79.8024C108.483 79.3081 107.459 78.5051 106.698 77.478C105.742 76.15 106.313 75.728 104.757 71.239C103.992 69.03 103.684 68.645 103.71 67.588C103.761 66.6503 104.009 65.7337 104.437 64.8978C104.865 64.062 105.464 63.3254 106.195 62.736C109.434 60.117 114.037 61.764 115.287 62.218C116.998 62.6396 118.511 63.6402 119.568 65.05C121.342 67.823 119.982 71.346 119.185 73.406Z" fill="#E2AFA6"/>
<path d="M97.927 34.1071C95.3831 33.3071 92.6406 33.4141 90.1667 34.4096C87.6928 35.4052 85.6406 37.2278 84.3599 39.5668C83.0792 41.9058 82.6491 44.6166 83.1431 47.2372C83.637 49.8577 85.0243 52.2259 87.0686 53.9382C89.113 55.6506 91.6878 56.6011 94.3544 56.6277C97.0209 56.6544 99.6143 55.7556 101.692 54.0845C103.771 52.4134 105.205 50.0734 105.751 47.4632C106.297 44.8531 105.922 42.1342 104.688 39.7701C103.274 37.0607 100.842 35.0237 97.927 34.1071ZM91.749 53.7671C89.7456 53.1377 88.0224 51.833 86.873 50.0755C85.7236 48.3181 85.2192 46.2164 85.4456 44.1287C85.672 42.041 86.6153 40.0963 88.1148 38.6261C89.6143 37.1559 91.5771 36.2511 93.6689 36.0658C95.7606 35.8805 97.852 36.4263 99.5865 37.61C101.321 38.7938 102.591 40.5424 103.181 42.5578C103.771 44.5732 103.644 46.7308 102.821 48.663C101.999 50.5952 100.532 52.1823 98.67 53.1541C97.6132 53.7059 96.4581 54.0441 95.2705 54.1492C94.083 54.2544 92.8864 54.1246 91.749 53.7671Z" fill="#666666"/>
<path d="M101.725 52.7321L100.225 54.1071L115.443 70.6801L116.943 69.3051L101.725 52.7321Z" fill="#666666"/>
<path d="M108.07 58.193L105.061 60.956L116.689 73.62L119.698 70.857L108.07 58.193Z" fill="#333333"/>
<path d="M98.4082 132.716L98.1272 132.633L99.1202 129.233L99.4012 129.316L98.4082 132.716ZM100.396 125.916L100.115 125.833L101.106 122.433L101.387 122.516L100.396 125.916ZM102.386 119.116L102.105 119.033L103.099 115.633L103.38 115.716L102.386 119.116ZM104.371 112.322L104.09 112.239L105.084 108.839L105.365 108.922L104.371 112.322ZM106.359 105.522L106.078 105.439L107.071 102.039L107.352 102.122L106.359 105.522ZM108.347 98.722L108.066 98.639L109.06 95.239L109.341 95.3231L108.347 98.722ZM110.335 91.9221L110.054 91.8391L111.048 88.4391L111.329 88.523L110.335 91.9221ZM112.322 85.122L112.041 85.039L113.035 81.639L113.316 81.722L112.322 85.122Z" fill="#8C317B"/>
<path d="M118.961 74.8141C118.01 77.2701 116.561 81.0251 113.175 81.6951C110.454 82.2301 107.825 80.5001 106.475 78.8801C104.551 76.5731 104.65 73.8251 104.815 69.5801C104.925 66.6621 104.979 65.2031 105.974 64.1371C108.574 61.3451 114.357 63.3621 115.066 63.6171C116.777 64.0399 118.289 65.0411 119.346 66.4511C121.124 69.2301 119.759 72.7541 118.961 74.8141Z" fill="#F7C2B5"/>
<path d="M164.304 80.9934L129.412 80.701L128.868 145.674L163.759 145.966L164.304 80.9934Z" fill="#E4E4E4"/>
<path d="M156.681 72.8915L137.17 72.728L137.103 80.7657L156.614 80.9292L156.681 72.8915Z" fill="#E4E4E4"/>
<path d="M151.978 64.8142L142.293 64.733L142.226 72.7708L151.91 72.8519L151.978 64.8142Z" fill="#E4E4E4"/>
<path d="M142.293 64.733L124.634 64.5851L124.567 72.6228L142.226 72.7707L142.293 64.733Z" fill="#CDCDCD"/>
<path d="M137.169 72.7277L120.151 72.5851L120.084 80.6228L137.102 80.7654L137.169 72.7277Z" fill="#BEBEBE"/>
<path d="M129.413 80.7005L112.892 80.5621L112.348 145.535L128.868 145.673L129.413 80.7005Z" fill="#CDCDCD"/>
<path d="M129.353 87.8202L117.879 87.7241L117.835 93.0059L129.308 93.1021L129.353 87.8202Z" fill="#00A8B2"/>
<path d="M164.245 88.1127L140.649 87.915L140.605 93.1969L164.201 93.3945L164.245 88.1127Z" fill="#5EC0C1"/>
<path d="M156.658 75.4885L144.787 75.389L144.763 78.2319L156.635 78.3314L156.658 75.4885Z" fill="#5EC0C1"/>
<path d="M137.149 75.3252L127.227 75.2421L127.203 78.085L137.125 78.1681L137.149 75.3252Z" fill="#00A8B2"/>
<path d="M129.271 97.4412L117.798 97.3451L117.754 102.627L129.227 102.723L129.271 97.4412Z" fill="#00A8B2"/>
<path d="M164.164 97.7338L140.568 97.5361L140.524 102.818L164.12 103.016L164.164 97.7338Z" fill="#5EC0C1"/>
<path d="M129.191 107.063L117.717 106.967L117.673 112.249L129.146 112.345L129.191 107.063Z" fill="#00A8B2"/>
<path d="M164.083 107.356L140.487 107.158L140.443 112.44L164.039 112.638L164.083 107.356Z" fill="#5EC0C1"/>
<path d="M129.111 116.684L117.637 116.588L117.593 121.87L129.066 121.966L129.111 116.684Z" fill="#00A8B2"/>
<path d="M164.003 116.977L140.407 116.779L140.363 122.061L163.959 122.259L164.003 116.977Z" fill="#5EC0C1"/>
<path d="M129.03 126.305L117.556 126.209L117.512 131.491L128.985 131.587L129.03 126.305Z" fill="#00A8B2"/>
<path d="M163.922 126.598L140.326 126.4L140.282 131.682L163.878 131.88L163.922 126.598Z" fill="#5EC0C1"/>
<path d="M128.948 135.926L117.475 135.83L117.431 141.112L128.904 141.208L128.948 135.926Z" fill="#00A8B2"/>
<path d="M163.841 136.219L140.245 136.021L140.201 141.303L163.797 141.501L163.841 136.219Z" fill="#5EC0C1"/>
<path d="M18.949 145.176L0 155.898L14.769 165.498L13.66 182.698C13.66 182.698 49.266 161.222 50.778 163.67" fill="#5C1F51"/>
<path d="M50.779 163.668C52.618 163.648 45.831 152.08 45.831 152.08L29.731 160.418C29.731 160.418 23.03 163.974 50.779 163.668Z" fill="#8C317B"/>
<path d="M165.345 137.93L182.713 146.812L170.97 157.752L173.642 174.763C173.642 174.763 140.873 156.751 139.817 159.33" fill="#5C1F51"/>
<path d="M139.816 159.33C138.232 159.483 142.916 147.33 142.916 147.33L157.593 154.108C157.593 154.108 163.712 157.018 139.816 159.33Z" fill="#8C317B"/>
<path d="M11.561 139.383L29.775 161.683C29.775 161.683 66.365 146.967 86.465 146.143C106.565 145.319 132.475 148.919 158.605 155.588L172.953 130.342C172.953 130.342 143.003 107.057 89.675 112.693C89.675 112.693 39.734 112.9 11.561 139.383Z" fill="#5C1F51"/>
<path d="M45.9551 142.442C46.1471 143.197 46.2422 143.574 46.4332 144.329C40.6272 145.702 37.7451 146.468 32.0331 148.154C31.7991 147.411 31.6821 147.039 31.4471 146.296C33.9181 145.566 35.1592 145.215 37.6472 144.544C37.2762 143.258 37.0901 142.615 36.7161 141.329C34.9461 141.807 34.0631 142.053 32.3021 142.56C32.0751 141.828 31.9621 141.46 31.7341 140.73C33.5091 140.22 34.3971 139.972 36.1801 139.49C35.8521 138.365 35.6881 137.802 35.3571 136.677C33.9801 137.049 33.2931 137.239 31.9221 137.627C31.7452 138.568 31.4718 139.488 31.1061 140.373C30.4167 140.121 29.7107 139.916 28.9932 139.76C29.8864 137.7 30.2784 135.458 30.1371 133.217C31.0201 133.152 31.4611 133.117 32.3431 133.065C32.3431 133.895 32.2981 134.719 32.2371 135.532C33.2661 135.243 33.7811 135.102 34.8131 134.823C34.4741 133.673 34.3051 133.098 33.9641 131.947C34.8111 131.718 35.2351 131.606 36.0831 131.384C36.4141 132.537 36.5831 133.113 36.9091 134.266C39.1711 133.673 40.3091 133.389 42.5811 132.843C42.7811 133.59 42.8751 133.964 43.0701 134.712C40.8111 135.254 39.6841 135.536 37.4381 136.124C37.7591 137.251 37.9192 137.816 38.2382 138.944C40.2102 138.428 41.1981 138.179 43.1791 137.699C43.3741 138.44 43.4712 138.81 43.6652 139.551C41.6972 140.027 40.7162 140.275 38.7592 140.787C39.1222 142.075 39.3031 142.72 39.6591 144.009C42.1761 143.352 43.4341 143.039 45.9551 142.442Z" fill="white"/>
<path d="M50.879 136.101C50.086 135.776 48.47 135.328 47.355 135.031C47.644 134.365 47.79 134.031 48.085 133.368C49.117 133.601 50.778 133.977 51.616 134.261C51.319 134.998 51.172 135.361 50.879 136.101ZM50.579 131.521C49.4281 131.084 48.2535 130.712 47.061 130.407C47.382 129.75 47.5441 129.421 47.8701 128.764C48.9391 129.009 50.595 129.409 51.433 129.711C51.091 130.435 50.9201 130.797 50.5811 131.522L50.579 131.521ZM49.415 142.55C50.1637 140.659 50.8077 138.729 51.3441 136.767C52.0441 137.167 52.3901 137.367 53.0831 137.767C52.5831 139.653 51.971 141.721 51.348 143.507C50.581 143.12 50.194 142.929 49.418 142.55H49.415ZM58.759 133.222C58.923 134.044 59.004 134.456 59.168 135.278C60.535 135.029 61.2191 134.909 62.5891 134.678C63.0711 137.288 63.31 138.594 63.783 141.206C63.043 141.331 62.673 141.395 61.934 141.525C61.89 141.29 61.8681 141.172 61.8231 140.936C59.8501 141.284 58.865 141.467 56.9 141.85C56.955 142.117 56.9841 142.25 57.0391 142.518C56.3391 142.654 55.9951 142.724 55.2991 142.864C54.7331 140.236 54.446 138.922 53.871 136.296C55.232 136.021 55.913 135.887 57.277 135.63L56.8541 133.578C55.0611 133.917 54.1661 134.094 52.3801 134.461C52.2141 133.721 52.1301 133.35 51.9631 132.61C53.7631 132.24 54.6631 132.061 56.4691 131.72C56.3101 130.957 56.231 130.576 56.069 129.815C54.975 130.191 53.874 130.525 52.824 130.838C52.583 130.284 52.2693 129.766 51.8911 129.295C54.5638 128.546 57.1522 127.524 59.6151 126.244C60.3721 126.744 60.749 127 61.499 127.508C60.3561 128.141 59.1651 128.683 57.9371 129.129C58.1171 130.023 58.207 130.47 58.386 131.364C60.113 131.049 60.9781 130.898 62.7111 130.611C62.8481 131.357 62.917 131.73 63.053 132.477C61.336 132.761 60.477 132.911 58.762 133.222H58.759ZM61.0311 136.769C59.0251 137.122 58.0251 137.309 56.0311 137.699C56.2311 138.656 56.3311 139.135 56.5311 140.092C58.5101 139.706 59.502 139.522 61.488 139.172C61.308 138.211 61.2171 137.73 61.0341 136.769H61.0311Z" fill="white"/>
<path d="M70.459 134.065C70.1735 133.548 69.8597 133.047 69.519 132.565C70 135.62 70.238 137.148 70.707 140.204C70.035 140.304 69.7 140.349 69.028 140.449C68.622 137.915 68.4171 136.649 68.0031 134.114C67.8919 135.17 67.6727 136.211 67.3491 137.222C67.0346 136.588 66.6687 135.981 66.255 135.407C66.8736 133.668 67.1994 131.839 67.2191 129.994C66.6581 130.078 66.378 130.121 65.819 130.207C65.695 129.486 65.6331 129.125 65.5081 128.407C66.1141 128.313 66.417 128.267 67.023 128.177C66.823 126.957 66.717 126.346 66.512 125.126C67.223 125.02 67.579 124.967 68.29 124.865C68.49 126.087 68.59 126.697 68.781 127.919L69.937 127.756L70.218 129.565C69.759 129.628 69.529 129.665 69.07 129.727C69.116 130.016 69.1391 130.16 69.1851 130.449C69.6411 130.905 70.844 132.281 71.124 132.649C70.856 133.214 70.722 133.497 70.459 134.065ZM81.291 133.911C80.9055 134.86 80.3764 135.743 79.722 136.531C80.0182 136.82 80.4089 136.992 80.822 137.015C81.139 137.015 81.277 136.4 81.265 135.232C81.672 135.607 82.1353 135.916 82.6381 136.147C82.4211 138.239 81.818 138.888 81.105 138.907C80.6152 138.91 80.1302 138.811 79.6813 138.615C79.2324 138.419 78.8296 138.13 78.499 137.769C77.7514 138.421 76.931 138.984 76.054 139.447C75.7017 139.032 75.3069 138.655 74.876 138.322C75.8505 137.845 76.7498 137.228 77.545 136.49C77.0631 135.686 76.6612 134.837 76.345 133.954C75.427 134.063 74.9681 134.12 74.0521 134.237C74.0521 134.355 74.07 134.486 74.069 134.604C74.835 135.058 75.893 135.704 76.441 136.119C76.019 136.638 75.81 136.898 75.392 137.419C74.9423 137.048 74.4704 136.705 73.979 136.392C73.7538 137.739 73.1332 138.989 72.196 139.983C71.7526 139.603 71.2569 139.288 70.7241 139.048C71.3368 138.465 71.8035 137.745 72.0864 136.948C72.3692 136.151 72.4602 135.298 72.3521 134.459L71.359 134.594C71.269 133.994 71.2241 133.694 71.1331 133.094C73.0211 132.834 73.966 132.712 75.86 132.484C75.3057 130.609 74.8497 128.707 74.494 126.784C73.9906 128.079 73.3701 129.324 72.64 130.506L73.583 130.283C73.463 130.047 73.357 129.792 73.255 129.571C73.711 129.392 73.94 129.302 74.398 129.125C74.7823 129.865 75.119 130.63 75.406 131.413C74.921 131.62 74.679 131.723 74.196 131.932C74.1472 131.747 74.0871 131.564 74.0161 131.386C73.1211 131.573 72.2504 131.861 71.421 132.246C71.2163 131.813 70.99 131.39 70.743 130.98C71.0803 130.794 71.3432 130.497 71.4871 130.14C71.7264 129.715 71.942 129.278 72.1331 128.829C71.6683 128.917 71.2191 129.073 70.8 129.292C70.67 129.008 70.327 128.384 70.117 128.044C70.3703 127.891 70.5588 127.65 70.647 127.368C71.0073 126.471 71.2643 125.535 71.413 124.58C72.029 124.646 72.3361 124.68 72.951 124.75C72.6792 125.762 72.314 126.746 71.86 127.69L72.627 127.524C72.752 127.172 72.8751 126.805 72.9641 126.441C73.5641 126.552 73.864 126.608 74.4641 126.722C74.319 125.936 74.164 125.084 74.01 124.232C74.696 124.148 75.039 124.107 75.725 124.026C76.1208 126.821 76.7265 129.581 77.537 132.285C78.162 132.214 78.474 132.179 79.1 132.111C78.781 131.895 78.4271 131.682 78.1281 131.498C78.4041 131.22 78.543 131.081 78.821 130.804C78.4094 130.886 78.013 131.031 77.6461 131.235C77.4603 130.79 77.2485 130.356 77.012 129.935C77.3414 129.732 77.6012 129.434 77.757 129.08C78.0084 128.68 78.2246 128.259 78.403 127.821C77.9466 127.897 77.5045 128.042 77.092 128.252C76.95 127.967 76.643 127.352 76.42 126.991C76.6723 126.857 76.8633 126.631 76.9531 126.36C77.297 125.523 77.5416 124.648 77.682 123.754C78.297 123.839 78.604 123.883 79.218 123.973C78.9649 124.903 78.6139 125.804 78.171 126.66L78.945 126.526C79.061 126.18 79.174 125.799 79.274 125.455C79.896 125.577 80.206 125.639 80.826 125.764C80.3176 127.067 79.6864 128.319 78.941 129.503L79.874 129.303C79.761 129.081 79.662 128.841 79.551 128.635C80.004 128.46 80.232 128.373 80.687 128.2C81.0837 128.952 81.438 129.725 81.748 130.516C81.281 130.729 81.0481 130.837 80.5811 131.052C80.5241 130.857 80.4461 130.632 80.3491 130.39C79.9291 130.5 79.5761 130.59 79.2921 130.669C79.7814 130.929 80.254 131.22 80.707 131.539L80.307 131.982C80.851 131.925 81.124 131.897 81.668 131.843C81.735 132.443 81.768 132.743 81.834 133.343C81.048 133.422 80.656 133.462 79.872 133.543C80.447 133.697 80.728 133.768 81.291 133.912V133.911ZM78.057 133.755C78.2376 134.23 78.4491 134.692 78.6901 135.139C79.021 134.657 79.2964 134.139 79.511 133.595C78.928 133.658 78.637 133.691 78.056 133.756L78.057 133.755Z" fill="white"/>
<path d="M90.8992 123.758C91.7674 124.932 92.5546 126.163 93.2552 127.444C92.5552 127.764 92.2022 127.925 91.5032 128.244C91.3782 127.952 91.1962 127.614 90.9912 127.227C86.6332 127.927 85.9442 128.117 85.4632 128.357C85.3222 127.985 84.9062 127.12 84.6472 126.642C85.0109 126.487 85.3208 126.228 85.5382 125.898C86.2636 124.941 86.8651 123.895 87.3282 122.787C88.1952 122.947 88.6282 123.029 89.4902 123.196C88.9402 124.22 88.2993 125.192 87.5752 126.101C88.5852 125.951 89.0912 125.878 90.1042 125.736C89.8042 125.274 89.5212 124.826 89.2602 124.445C89.9142 124.173 90.2422 124.037 90.8992 123.758ZM92.7672 136.129C92.8222 136.942 92.6982 137.37 92.1672 137.664C91.4442 137.96 90.6694 138.108 89.8882 138.101C89.7244 137.567 89.4798 137.061 89.1632 136.601C89.7692 136.589 90.4222 136.544 90.6232 136.53C90.8412 136.515 90.9032 136.444 90.8882 136.23C90.8362 135.554 90.8112 135.217 90.7592 134.54C89.9592 135.193 89.1652 135.817 88.4512 136.356C88.2452 135.905 88.1413 135.68 87.9323 135.229C87.8778 136.354 87.5654 137.452 87.0192 138.437C86.5682 137.976 86.0628 137.571 85.5142 137.231C86.1331 135.77 86.3165 134.162 86.0422 132.599C85.9012 131.109 85.8302 130.365 85.6872 128.875C88.2992 128.656 89.6072 128.561 92.2272 128.401C92.4502 131.494 92.5582 133.037 92.7682 136.13L92.7672 136.129ZM87.7292 130.38L87.8292 131.555C88.1452 131.244 88.3042 131.089 88.6222 130.779C89.2382 131.133 90.0222 131.662 90.5642 132.057C90.5062 131.308 90.4772 130.933 90.4182 130.185C89.3452 130.259 88.8072 130.298 87.7302 130.381L87.7292 130.38ZM87.9122 132.466C87.9734 133.174 87.9954 133.884 87.9782 134.594C88.7082 134.205 89.6652 133.633 90.6422 133.034C90.6262 132.815 90.6172 132.706 90.6002 132.488C90.3002 132.821 90.1462 132.988 89.8452 133.323C89.2106 132.803 88.548 132.318 87.8602 131.871C87.8822 132.109 87.8902 132.229 87.9132 132.467L87.9122 132.466ZM96.1962 129.566C94.1302 129.666 93.5322 128.972 93.4072 127.131C93.2792 125.248 93.2142 124.306 93.0812 122.423C93.9152 122.375 94.3322 122.353 95.1672 122.312C95.2162 123.095 95.2412 123.486 95.2892 124.269C97.0172 124.184 97.8822 124.147 99.6122 124.087L99.6892 125.78C97.9692 125.839 97.1092 125.88 95.3892 125.96C95.4162 126.398 95.4292 126.617 95.4562 127.06C95.4922 127.675 95.6112 127.901 96.1652 127.875C97.1772 127.827 97.6832 127.806 98.6972 127.767C99.2319 127.748 99.7641 127.685 100.288 127.577C100.345 128.09 100.461 128.803 100.548 129.248C99.9804 129.387 99.3979 129.458 98.8132 129.458C97.7692 129.498 97.2452 129.521 96.1982 129.57L96.1962 129.566ZM98.6662 135.813C99.2382 135.79 99.3442 135.504 99.3662 133.974C99.9168 134.289 100.516 134.51 101.139 134.629C101.015 136.811 100.52 137.47 98.9312 137.529C97.9812 137.566 97.5072 137.587 96.5582 137.629C94.5862 137.722 94.0672 137.176 93.9522 135.368C93.8202 133.285 93.7522 132.244 93.6132 130.161C94.4242 130.115 94.8302 130.093 95.6412 130.053C95.6802 130.717 95.6992 131.053 95.7412 131.712C97.4702 131.627 98.3352 131.591 100.068 131.533C100.096 132.233 100.111 132.579 100.14 133.275C98.4192 133.333 97.5602 133.37 95.8402 133.454C95.8812 134.177 95.9022 134.538 95.9402 135.262C95.9722 135.843 96.0952 135.919 96.7502 135.889C97.5172 135.863 97.9002 135.847 98.6682 135.817L98.6662 135.813Z" fill="white"/>
<path d="M111.456 133.597C111.468 134.22 111.517 134.842 111.604 135.459C106.881 136.559 106.134 136.853 105.619 137.176C105.384 136.592 105.061 136.048 104.66 135.563C104.914 135.395 105.122 135.165 105.264 134.896C105.406 134.627 105.478 134.326 105.473 134.021C105.373 129.21 105.318 126.804 105.191 121.993C106.071 121.98 106.511 121.975 107.391 121.968C107.428 123.928 107.445 124.909 107.476 126.868C109.025 126.856 109.8 126.856 111.351 126.868C111.351 127.646 111.351 128.035 111.351 128.813C109.811 128.804 109.042 128.804 107.504 128.813C107.538 131.066 107.554 132.193 107.582 134.445C109.128 134.095 109.898 133.925 111.456 133.597ZM116.975 135.348C117.602 135.365 117.737 134.772 117.895 132.532C118.468 132.947 119.108 133.26 119.787 133.458C119.472 136.274 118.914 137.313 117.114 137.264C116.199 137.239 115.741 137.229 114.826 137.212C112.875 137.175 112.326 136.495 112.339 134.151C112.365 129.266 112.371 126.823 112.367 121.937C113.241 121.945 113.679 121.951 114.554 121.965C114.54 123.94 114.532 124.927 114.513 126.901C116.218 126.93 117.072 126.951 118.779 127.001C118.76 127.779 118.75 128.168 118.73 128.945C117.035 128.891 116.188 128.87 114.494 128.845C114.472 130.992 114.459 132.066 114.43 134.212C114.418 135.159 114.5 135.292 115.144 135.306C115.877 135.32 116.243 135.329 116.975 135.351V135.348Z" fill="white"/>
<path d="M138.908 129.957C138.823 130.81 138.78 131.238 138.693 132.091C132.335 131.437 129.153 131.201 122.802 130.906C122.838 130.049 122.856 129.621 122.891 128.764C129.293 129.06 132.499 129.298 138.908 129.957Z" fill="white"/>
<path d="M149.012 136.366C148.936 136.984 148.899 137.607 148.9 138.23C144.007 138.677 143.217 138.872 142.656 139.123C142.502 138.512 142.254 137.929 141.92 137.394C142.197 137.263 142.437 137.065 142.617 136.817C142.798 136.57 142.913 136.281 142.952 135.977C143.527 131.197 143.807 128.806 144.352 124.022C145.236 124.127 145.678 124.182 146.562 124.294C146.324 126.242 146.204 127.215 145.962 129.162C147.517 129.362 148.295 129.462 149.848 129.683C149.741 130.454 149.687 130.84 149.58 131.61C148.037 131.392 147.265 131.289 145.721 131.092C145.439 133.329 145.297 134.447 145.01 136.683C146.606 136.543 147.406 136.48 149.012 136.366ZM154.306 138.85C154.933 138.95 155.151 138.382 155.623 136.184C156.142 136.674 156.741 137.072 157.394 137.359C156.685 140.107 155.98 141.059 154.178 140.767C153.263 140.618 152.804 140.545 151.889 140.404C149.935 140.104 149.48 139.354 149.82 137.035C150.53 132.198 150.877 129.778 151.556 124.935C152.432 125.061 152.87 125.126 153.746 125.259C153.456 127.214 153.31 128.19 153.015 130.144C154.723 130.404 155.576 130.544 157.282 130.827C157.154 131.595 157.09 131.979 156.961 132.746C155.266 132.462 154.419 132.327 152.724 132.068C152.402 134.192 152.238 135.254 151.91 137.377C151.765 138.313 151.829 138.457 152.474 138.558C153.206 138.673 153.573 138.727 154.306 138.85Z" fill="white"/>
</svg>
