<svg width="190" height="171" viewBox="0 0 190 171" fill="none" xmlns="http://www.w3.org/2000/svg">
<path d="M106.608 154.384C145.544 154.384 177.108 123.268 177.108 84.884C177.108 46.5002 145.544 15.384 106.608 15.384C67.672 15.384 36.108 46.5002 36.108 84.884C36.108 123.268 67.672 154.384 106.608 154.384Z" fill="#BCEBFF"/>
<path d="M65.416 35.621H25.683V117.63H65.416V35.621Z" fill="#F2F2F2"/>
<path d="M67.179 30.364H23.921V35.621H67.179V30.364Z" fill="#9B9B9B"/>
<path d="M67.179 62.816H23.921V69.42H67.179V62.816Z" fill="#9B9B9B"/>
<path d="M107.082 69.249H65.416V75.853H107.082V69.249Z" fill="#777777"/>
<path d="M39.3051 77.089H33.2791V89.223H39.3051V77.089Z" fill="#9B9B9B"/>
<path d="M48.563 77.089H42.537V89.223H48.563V77.089Z" fill="#9B9B9B"/>
<path d="M57.8201 77.089H51.7941V89.223H57.8201V77.089Z" fill="#9B9B9B"/>
<path d="M41.643 95.203H32.475V117.63H41.643V95.203Z" fill="#9B9B9B"/>
<path d="M57.8201 95.203H51.7941V107.337H57.8201V95.203Z" fill="#9B9B9B"/>
<path d="M41.643 95.203H32.475V98.551H41.643V95.203Z" fill="#777777"/>
<path d="M105.149 75.853H65.416V117.63H105.149V75.853Z" fill="#CCCCCC"/>
<path d="M39.3051 43.3721H33.2791V55.5061H39.3051V43.3721Z" fill="#9B9B9B"/>
<path d="M48.563 43.3721H42.537V55.5061H48.563V43.3721Z" fill="#9B9B9B"/>
<path d="M57.8201 43.3721H51.7941V55.5061H57.8201V43.3721Z" fill="#9B9B9B"/>
<path d="M79.0391 81.6171H73.0131V93.7511H79.0391V81.6171Z" fill="#777777"/>
<path d="M88.296 81.6171H82.27V93.7511H88.296V81.6171Z" fill="#777777"/>
<path d="M97.5541 81.6171H91.5281V93.7511H97.5541V81.6171Z" fill="#777777"/>
<path d="M79.0391 99.7311H73.0131V111.865H79.0391V99.7311Z" fill="#777777"/>
<path d="M88.296 99.7311H82.27V111.865H88.296V99.7311Z" fill="#777777"/>
<path d="M97.5541 99.7311H91.5281V111.865H97.5541V99.7311Z" fill="#777777"/>
<path d="M76.094 60.552H79.287V68.025C79.287 68.3946 79.1403 68.7492 78.8791 69.0107C78.6179 69.2723 78.2636 69.4195 77.894 69.42H77.494C77.3104 69.4207 77.1284 69.3851 76.9586 69.3153C76.7888 69.2454 76.6344 69.1428 76.5043 69.0132C76.3743 68.8836 76.2711 68.7296 76.2007 68.56C76.1302 68.3904 76.094 68.2086 76.094 68.025V60.552Z" fill="white"/>
<path d="M93.2109 60.552H96.4039V68.025C96.4039 68.3946 96.2572 68.7492 95.9961 69.0107C95.7349 69.2723 95.3806 69.4195 95.0109 69.42H94.6109C94.4273 69.4207 94.2454 69.3851 94.0756 69.3153C93.9057 69.2454 93.7514 69.1428 93.6213 69.0132C93.4912 68.8836 93.388 68.7296 93.3176 68.56C93.2472 68.3904 93.2109 68.2086 93.2109 68.025V60.552Z" fill="white"/>
<path d="M96.809 39.281H75.689C74.3198 39.281 73.21 40.3909 73.21 41.76V58.08C73.21 59.4491 74.3198 60.559 75.689 60.559H96.809C98.1781 60.559 99.288 59.4491 99.288 58.08V41.76C99.288 40.3909 98.1781 39.281 96.809 39.281Z" fill="#939393"/>
<path d="M95.614 41.135H76.884C75.7165 41.135 74.77 42.0815 74.77 43.249V56.59C74.77 57.7575 75.7165 58.704 76.884 58.704H95.614C96.7815 58.704 97.728 57.7575 97.728 56.59V43.249C97.728 42.0815 96.7815 41.135 95.614 41.135Z" fill="white"/>
<path d="M125.017 62.976C120.633 82.09 116.25 101.204 111.868 120.318L157.254 120.238L157.533 71.996C156.554 68.6337 154.609 65.6326 151.941 63.3644C149.273 61.0962 145.998 59.6604 142.522 59.235L132.169 59.0959C131.629 60.088 130.873 60.9453 129.955 61.604C128.512 62.6081 126.771 63.0919 125.017 62.976Z" fill="#F2F2F2"/>
<path d="M161.74 119.82H149.751V61.5H153.537C155.712 61.5 157.797 62.3639 159.335 63.9017C160.873 65.4395 161.737 67.5252 161.737 69.7V119.82H161.74Z" fill="#E6E6E6"/>
<path d="M131.927 60.165C130.342 61.8445 128.173 62.8511 125.867 62.977C124.593 63.0114 123.326 62.779 122.147 62.2947C120.968 61.8105 119.903 61.085 119.021 60.165C117.732 55.6836 116.443 51.2026 115.153 46.722L135.838 46.574L131.927 60.165Z" fill="#F7C2B5"/>
<path d="M125.867 62.9771L139.018 120.319L93.6322 120.239L93.3572 71.992C94.3366 68.6298 96.2809 65.6287 98.949 63.3605C101.617 61.0922 104.892 59.6565 108.368 59.231L118.718 59.092C119.259 60.0835 120.015 60.9407 120.932 61.6C122.373 62.6053 124.114 63.0909 125.867 62.9771Z" fill="#E6E6E6"/>
<path d="M97.712 61.5H101.498V119.82H89.509V69.703C89.5086 68.6257 89.7205 67.5588 90.1326 66.5634C90.5447 65.568 91.149 64.6635 91.9108 63.9017C92.6726 63.1399 93.577 62.5357 94.5724 62.1236C95.5678 61.7115 96.6347 61.4996 97.712 61.5Z" fill="#F2F2F2"/>
<path d="M167.992 74.369L178.492 78.941L167.522 116.955C166.982 118.896 165.745 120.57 164.047 121.654C162.349 122.739 160.31 123.158 158.322 122.831L157.997 122.773C156.812 122.544 155.695 122.05 154.727 121.328C153.76 120.606 152.968 119.676 152.41 118.606C151.853 117.535 151.544 116.353 151.507 115.147C151.47 113.94 151.706 112.741 152.197 111.639L167.992 74.369Z" fill="#E6E6E6"/>
<path d="M118.68 73.1131L92.3811 79.6021L101.135 115.082L127.435 108.593L118.68 73.1131Z" fill="#ACCD45"/>
<path d="M116.746 75.5464L95.064 80.896L102.862 112.502L124.544 107.153L116.746 75.5464Z" fill="white"/>
<path d="M109.645 74.064C109.471 74.1069 109.287 74.079 109.134 73.9864C108.98 73.8938 108.869 73.7441 108.826 73.57V73.535C108.807 73.4495 108.771 73.3686 108.72 73.2971C108.669 73.2255 108.605 73.1648 108.53 73.1183C108.456 73.0718 108.373 73.0405 108.287 73.0262C108.2 73.0119 108.112 73.0149 108.026 73.035L108.005 73.04L101.705 74.59C101.62 74.6094 101.539 74.6454 101.467 74.6962C101.396 74.747 101.335 74.8114 101.288 74.8858C101.242 74.9602 101.211 75.043 101.196 75.1296C101.182 75.2161 101.185 75.3047 101.205 75.3901L101.21 75.4111V75.4461C101.231 75.5321 101.235 75.6216 101.222 75.7092C101.209 75.7969 101.178 75.881 101.132 75.9569C101.087 76.0328 101.026 76.0988 100.955 76.1514C100.883 76.2039 100.802 76.2418 100.716 76.263L100.57 76.301C100.485 76.3204 100.404 76.3564 100.332 76.4072C100.261 76.458 100.2 76.5224 100.153 76.5968C100.107 76.6712 100.076 76.754 100.061 76.8406C100.047 76.9271 100.05 77.0157 100.07 77.1011L100.075 77.1221L100.708 79.699C100.728 79.7846 100.764 79.8655 100.814 79.937C100.865 80.0086 100.93 80.0693 101.004 80.1158C101.078 80.1623 101.161 80.1936 101.248 80.2079C101.334 80.2222 101.423 80.2192 101.508 80.199L101.529 80.194L110.606 77.958C110.78 77.9148 110.929 77.8045 111.022 77.6514C111.114 77.4984 111.143 77.3149 111.1 77.141L110.467 74.573C110.425 74.3987 110.315 74.2482 110.162 74.1545C110.01 74.0608 109.826 74.0315 109.651 74.073L109.645 74.064Z" fill="#999999"/>
<path d="M113.307 89.068L120.673 97.851L99.9731 121.895C97.7591 124.459 93.6731 124.452 90.5151 121.879L90.2561 121.673C86.3441 118.483 85.6401 112.873 88.8061 110.147L113.307 89.068Z" fill="#F2F2F2"/>
<path d="M180.809 72.3901C180.023 74.4161 178.816 77.513 176.036 78.06C174.99 78.2072 173.923 78.0691 172.949 77.6604C171.975 77.2517 171.129 76.5876 170.501 75.7381C169.713 74.6441 170.184 74.294 168.901 70.593C168.27 68.771 168.016 68.452 168.035 67.582C168.078 66.8088 168.283 66.0532 168.636 65.3641C168.99 64.6751 169.484 64.0679 170.087 63.582C172.757 61.421 176.554 62.7821 177.587 63.1521C178.999 63.4996 180.247 64.3258 181.118 65.49C182.591 67.781 181.473 70.6861 180.809 72.3901Z" fill="#E2AFA6"/>
<path d="M150.181 81.542C145.478 81.4743 140.889 80.084 136.939 77.53C133.412 75.2368 130.378 72.2636 128.013 68.7843C125.648 65.305 124 61.3893 123.166 57.266L123.817 57.129C124.634 61.1648 126.246 64.9974 128.56 68.4036C130.874 71.8097 133.842 74.7211 137.293 76.968C142.828 80.457 149.178 81.69 154.715 80.351C163.051 78.334 169.927 70.505 172.234 60.401L172.883 60.549C170.518 70.895 163.449 78.925 154.872 80.995C153.336 81.3628 151.761 81.5464 150.181 81.542Z" fill="#ACCD45"/>
<path d="M123.943 94.472C122.443 96.048 120.159 98.4569 117.37 97.9009C115.127 97.4579 113.664 95.3109 113.141 93.6499C112.397 91.2849 113.341 89.222 114.79 86.036C115.79 83.844 116.29 82.748 117.383 82.248C120.243 80.935 124.025 84.2869 124.483 84.7059C125.657 85.5618 126.498 86.799 126.861 88.2059C127.344 90.8919 125.198 93.151 123.943 94.472Z" fill="#F7C2B5"/>
<path d="M133.791 53.691C131.23 54.9393 128.43 55.6231 125.582 55.6961C122.734 55.7691 119.903 55.2295 117.281 54.114C116.571 51.6473 115.862 49.1833 115.153 46.722L135.838 46.574C135.157 48.9466 134.474 51.319 133.791 53.691Z" fill="#E2AFA6"/>
<path d="M147.085 24.314C146.954 24.3111 146.822 24.3171 146.691 24.332C145.732 19.3756 143.078 14.9075 139.185 11.6946C135.291 8.48175 130.4 6.72449 125.352 6.72449C120.303 6.72449 115.413 8.48175 111.519 11.6946C107.625 14.9075 104.971 19.3756 104.012 24.332C103.884 24.321 103.753 24.314 103.62 24.314C102.455 24.3315 101.344 24.8065 100.527 25.6364C99.709 26.4663 99.2507 27.5846 99.2507 28.7495C99.2507 29.9145 99.709 31.0327 100.527 31.8626C101.344 32.6925 102.455 33.1675 103.62 33.185C103.791 33.1841 103.962 33.1731 104.131 33.152C105.201 37.9831 107.887 42.3046 111.746 45.4022C115.604 48.4998 120.404 50.1882 125.352 50.1882C130.3 50.1882 135.1 48.4998 138.959 45.4022C142.817 42.3046 145.503 37.9831 146.573 33.152C146.743 33.1732 146.913 33.1842 147.084 33.185C147.672 33.1939 148.256 33.0856 148.802 32.8667C149.348 32.6478 149.845 32.3225 150.264 31.9097C150.683 31.497 151.016 31.005 151.243 30.4625C151.47 29.9199 151.587 29.3377 151.587 28.7495C151.587 28.1614 151.47 27.5791 151.243 27.0366C151.016 26.494 150.683 26.0021 150.264 25.5893C149.845 25.1766 149.348 24.8513 148.802 24.6323C148.256 24.4134 147.672 24.3052 147.084 24.314H147.085Z" fill="#F7C2B5"/>
<path d="M132.648 20.417C127.652 22.7849 122.343 24.4252 116.882 25.288C112.625 25.9482 108.307 26.116 104.012 25.788C102.783 17.118 105.892 8.475 111.962 3.719C119.115 -1.887 129.151 -1.132 136.094 5.827C137.65 5.61536 139.233 5.75719 140.727 6.24196C142.22 6.72673 143.585 7.54195 144.72 8.627C148.52 12.415 149.5 19.515 146.695 25.785C143.573 26.0441 140.44 25.443 137.635 24.047C135.785 23.119 134.1 21.8926 132.648 20.417Z" fill="#36608C"/>
<path d="M124.132 13.561C122.906 13.561 121.707 13.9247 120.688 14.6059C119.668 15.2872 118.873 16.2555 118.404 17.3884C117.935 18.5213 117.812 19.7679 118.051 20.9706C118.29 22.1733 118.881 23.278 119.748 24.1451C120.615 25.0122 121.72 25.6027 122.923 25.8419C124.125 26.0811 125.372 25.9584 126.505 25.4891C127.638 25.0198 128.606 24.2252 129.287 23.2056C129.968 22.186 130.332 20.9873 130.332 19.761C130.332 18.9468 130.172 18.1406 129.86 17.3884C129.549 16.6362 129.092 15.9527 128.516 15.377C127.94 14.8013 127.257 14.3446 126.505 14.033C125.753 13.7214 124.946 13.561 124.132 13.561ZM124.132 22.251C123.638 22.251 123.154 22.1044 122.743 21.8297C122.332 21.555 122.012 21.1646 121.822 20.7077C121.633 20.2509 121.584 19.7483 121.68 19.2633C121.777 18.7784 122.015 18.3329 122.364 17.9833C122.714 17.6336 123.159 17.3955 123.644 17.2991C124.129 17.2026 124.632 17.2521 125.089 17.4413C125.546 17.6306 125.936 17.951 126.211 18.3621C126.486 18.7732 126.632 19.2566 126.632 19.751C126.632 20.4141 126.369 21.05 125.9 21.5188C125.431 21.9876 124.795 22.251 124.132 22.251Z" fill="#ACCD45"/>
<path d="M103.736 21.163C103.696 22.2123 103.658 23.2623 103.621 24.313L118.47 22.25L117.943 19.75L103.736 21.163Z" fill="#ACCD45"/>
<path d="M130.331 19.7531C130.216 20.3021 130.099 20.8601 129.983 21.4001L147.737 24.3601L148.062 21.7501L130.331 19.7531Z" fill="#ACCD45"/>
<path d="M115.953 31.987C116.554 31.987 117.042 31.4994 117.042 30.898C117.042 30.2965 116.554 29.809 115.953 29.809C115.352 29.809 114.864 30.2965 114.864 30.898C114.864 31.4994 115.352 31.987 115.953 31.987Z" fill="#36608C"/>
<path d="M133.616 31.746C134.218 31.746 134.705 31.2584 134.705 30.657C134.705 30.0556 134.218 29.568 133.616 29.568C133.015 29.568 132.527 30.0556 132.527 30.657C132.527 31.2584 133.015 31.746 133.616 31.746Z" fill="#36608C"/>
<path d="M120.33 41.441H129.979C129.459 42.298 127.544 42.916 125.354 42.951C123.024 42.986 120.89 42.355 120.33 41.441Z" fill="#36608C"/>
<path d="M125.543 81.4271C126.322 81.4271 126.953 80.7958 126.953 80.0171C126.953 79.2383 126.322 78.6071 125.543 78.6071C124.764 78.6071 124.133 79.2383 124.133 80.0171C124.133 80.7958 124.764 81.4271 125.543 81.4271Z" fill="#ACCD45"/>
<path d="M128.856 94.0781C129.635 94.0781 130.266 93.4468 130.266 92.6681C130.266 91.8893 129.635 91.2581 128.856 91.2581C128.077 91.2581 127.446 91.8893 127.446 92.6681C127.446 93.4468 128.077 94.0781 128.856 94.0781Z" fill="#ACCD45"/>
<path d="M132.035 107.851C132.814 107.851 133.445 107.22 133.445 106.441C133.445 105.662 132.814 105.031 132.035 105.031C131.256 105.031 130.625 105.662 130.625 106.441C130.625 107.22 131.256 107.851 132.035 107.851Z" fill="#ACCD45"/>
<path d="M102.322 28.454H97.0791V29.809H102.322V28.454Z" fill="#ACCD45"/>
<path d="M153.301 29.131H148.058V30.486H153.301V29.131Z" fill="#ACCD45"/>
<path d="M124.979 57.578C124.479 57.578 123.974 57.56 123.469 57.529C120.096 57.2693 116.808 56.3447 113.794 54.8085C110.78 53.2723 108.1 51.1548 105.908 48.578C101.246 43.2045 98.8958 36.2064 99.3701 29.108L100.034 29.152C99.5734 36.0778 101.869 42.9049 106.421 48.145C108.583 50.7547 111.268 52.8817 114.303 54.3886C117.338 55.8956 120.656 56.7489 124.041 56.8935C127.427 57.0381 130.805 56.4706 133.958 55.2279C137.11 53.9852 139.967 52.0949 142.343 49.679C144.99 47.1106 147.072 44.0173 148.453 40.5974C149.835 37.1774 150.486 33.5065 150.366 29.82L151.03 29.798C151.155 33.579 150.487 37.3443 149.071 40.8521C147.655 44.3599 145.52 47.5328 142.805 50.167C138.043 54.8471 131.655 57.5029 124.979 57.578Z" fill="#ACCD45"/>
<path d="M173.133 61.691C176.378 61.691 179.009 60.5265 179.009 59.09C179.009 57.6535 176.378 56.489 173.133 56.489C169.888 56.489 167.257 57.6535 167.257 59.09C167.257 60.5265 169.888 61.691 173.133 61.691Z" fill="#ACCD45"/>
<path d="M19.657 130.706L0 142.155L15.32 152.401L14.17 170.769C14.17 170.769 51.106 147.838 52.67 150.452" fill="#336988"/>
<path d="M52.6709 150.451C54.5799 150.429 47.539 138.078 47.539 138.078L30.839 146.978C30.839 146.978 23.8909 150.777 52.6709 150.451Z" fill="#214456"/>
<path d="M171.521 122.97L189.539 132.453L177.355 144.133L180.127 162.296C180.127 162.296 146.134 143.065 145.038 145.818" fill="#336988"/>
<path d="M145.038 145.816C143.395 145.98 148.252 133.007 148.252 133.007L163.477 140.245C163.477 140.245 169.827 143.352 145.038 145.816Z" fill="#214456"/>
<path d="M11.995 124.524L30.889 148.324C30.889 148.324 68.845 132.61 89.697 131.731C110.549 130.852 137.425 134.695 164.531 141.815L179.416 114.859C179.416 114.859 148.347 90.003 93.03 96.02C93.026 96.024 41.218 96.245 11.995 124.524Z" fill="#336988"/>
<path d="M46.649 116.265C46.849 117.015 46.942 117.391 47.137 118.141C43.598 118.985 41.837 119.441 38.328 120.397C38.1325 121.671 37.8157 122.923 37.382 124.136C38.332 127.288 38.803 128.865 39.739 132.02C38.981 132.233 38.602 132.341 37.846 132.56C37.156 130.297 36.809 129.165 36.112 126.904C35.8001 127.444 35.4492 127.961 35.062 128.45C34.5947 127.883 34.0834 127.353 33.533 126.866C34.8601 125.159 35.7429 123.15 36.102 121.018C34.682 121.418 33.974 121.625 32.56 122.047C32.324 121.308 32.205 120.939 31.968 120.201C33.739 119.673 34.628 119.416 36.408 118.918C36.457 118.074 36.48 117.257 36.455 116.452C37.345 116.417 37.79 116.401 38.68 116.374C38.673 117.027 38.629 117.674 38.571 118.323C41.789 117.451 43.405 117.039 46.649 116.265ZM45.622 128.089C47.131 127.707 47.887 127.521 49.401 127.16C49.586 127.885 49.677 128.247 49.861 128.973C46.061 129.873 44.169 130.364 40.406 131.409C40.196 130.691 40.091 130.332 39.879 129.614C41.41 129.189 42.179 128.982 43.715 128.58C43.299 127.086 43.091 126.34 42.672 124.847C41.364 125.189 40.71 125.365 39.407 125.724C39.196 125.006 39.09 124.647 38.878 123.93C40.191 123.568 40.849 123.391 42.166 123.047C41.86 121.96 41.707 121.417 41.399 120.33C42.186 120.124 42.58 120.022 43.368 119.821C43.668 120.91 43.817 121.454 44.115 122.543C45.403 122.216 46.047 122.057 47.339 121.743C47.528 122.467 47.621 122.829 47.809 123.553C46.526 123.862 45.886 124.02 44.609 124.345C45.013 125.845 45.218 126.593 45.622 128.089Z" fill="white"/>
<path d="M56.5731 120.803C56.9071 121.47 57.0731 121.803 57.4041 122.472C55.8981 123.662 54.296 124.943 52.998 125.947C52.498 125.222 52.2491 124.86 51.7451 124.137C52.2911 123.787 52.945 123.365 53.658 122.86C53.245 121.106 53.0371 120.229 52.6201 118.476C51.9071 118.631 51.5501 118.711 50.8381 118.871C50.6551 118.125 50.563 117.752 50.379 117.006C51.096 116.844 51.4551 116.764 52.1741 116.606C51.8311 115.17 51.6581 114.453 51.3121 113.018C52.0541 112.856 52.425 112.776 53.168 112.618C53.504 114.056 53.6681 114.774 54.0051 116.212C54.6251 116.081 54.9351 116.017 55.5551 115.89C55.7241 116.64 55.809 117.014 55.978 117.764C55.362 117.89 55.055 117.955 54.439 118.084C54.774 119.535 54.939 120.261 55.272 121.713C55.792 121.349 56.0521 121.166 56.5731 120.803ZM64.814 124.148C65.687 123.995 65.7781 123.584 65.6041 121.855C66.1829 122.109 66.8028 122.256 67.434 122.289C67.597 124.673 67.195 125.56 65.314 125.889C63.944 126.129 63.261 126.253 61.895 126.511C59.732 126.92 58.978 126.438 58.485 124.161C58.113 122.446 57.926 121.589 57.551 119.875L56.751 120.436C56.307 119.798 56.084 119.479 55.636 118.843C56.219 118.431 56.513 118.226 57.1 117.816C56.715 116.069 56.521 115.196 56.132 113.45C56.9 113.295 57.284 113.22 58.053 113.071C58.36 114.495 58.513 115.206 58.816 116.629C59.316 116.29 59.571 116.12 60.077 115.783C59.694 113.945 59.5011 113.026 59.1141 111.189C59.8681 111.047 60.2451 110.977 61.0001 110.84C61.3101 112.36 61.4641 113.119 61.7711 114.64C62.4391 114.194 62.771 113.973 63.446 113.531C64.091 113.619 64.4121 113.664 65.0551 113.756L65.0441 114.068C65.4276 116.548 65.6478 119.051 65.7031 121.56C65.0351 121.488 64.7031 121.452 64.0311 121.384C63.9481 120.001 63.669 117.858 63.35 115.878C62.881 116.195 62.6501 116.354 62.1791 116.678C62.6521 119.032 62.885 120.209 63.35 122.564C62.627 122.694 62.266 122.764 61.545 122.896C61.129 120.864 60.9211 119.848 60.5001 117.817C60.0001 118.16 59.7501 118.333 59.2531 118.677C59.6891 120.732 59.906 121.761 60.337 123.818C60.537 124.782 60.7151 124.903 61.7001 124.718C62.9421 124.482 63.5661 124.368 64.8151 124.148H64.814Z" fill="white"/>
<path d="M85.526 121.435C85.598 122.084 85.634 122.408 85.705 123.056C80.914 123.511 78.525 123.793 73.768 124.466C73.668 123.822 73.616 123.499 73.516 122.855C75.488 122.576 76.477 122.446 78.456 122.203L78.321 121.227C76.931 121.397 76.237 121.486 74.85 121.675C74.776 121.19 74.739 120.948 74.665 120.464C74.4349 120.867 74.1755 121.252 73.889 121.617C73.5874 121.072 73.2416 120.552 72.855 120.064C73.021 121.878 72.7007 123.703 71.927 125.352C71.4145 124.917 70.8419 124.558 70.227 124.287C71.253 122.409 70.996 120.01 70.706 118.287C70.506 117.093 70.406 116.496 70.206 115.303C71.106 115.168 71.562 115.103 72.468 114.974C72.1614 114.734 71.8387 114.516 71.502 114.321C72.682 113.962 73.975 113.543 75.231 113.07C74.126 112.941 72.99 112.855 71.963 112.811C72.294 112.469 72.463 112.298 72.794 111.956C71.627 112.118 71.045 112.202 69.88 112.375C69.774 111.752 69.72 111.441 69.614 110.817C71.983 110.462 73.17 110.298 75.548 109.995C75.3024 109.717 75.0413 109.453 74.766 109.204C75.274 108.87 75.529 108.704 76.04 108.373C76.5411 108.791 77.0003 109.257 77.411 109.764C79.778 109.478 80.964 109.348 83.339 109.114L83.528 110.683C82.538 110.783 82.043 110.832 81.055 110.939C81.408 111.106 81.585 111.19 81.937 111.358C81.361 111.709 80.684 112.072 79.958 112.428C80.993 112.585 81.942 112.758 82.734 112.928C82.393 113.277 82.223 113.452 81.884 113.803C82.876 113.703 83.372 113.648 84.365 113.552C84.44 114.194 84.477 114.515 84.55 115.152C79.675 115.622 77.25 115.913 72.406 116.602L72.633 118.012C72.7305 118.6 72.7973 119.192 72.833 119.787C73.5355 118.806 74.0178 117.685 74.247 116.5C74.947 116.611 75.304 116.667 76.007 116.782C75.956 117.011 75.907 117.241 75.84 117.489C76.611 117.389 76.997 117.341 77.769 117.246C77.711 116.835 77.682 116.63 77.624 116.219C78.406 116.119 78.797 116.077 79.58 115.987C79.635 116.398 79.662 116.603 79.718 117.014C81.363 116.825 82.187 116.736 83.837 116.572L84.022 118.141C82.382 118.304 81.563 118.392 79.927 118.58L80.042 119.457C81.482 119.292 82.202 119.213 83.642 119.068C83.714 119.682 83.751 119.99 83.824 120.605C82.389 120.75 81.674 120.827 80.242 120.992L80.37 121.969C82.429 121.74 83.46 121.631 85.526 121.435ZM80.785 113.923C79.922 113.723 78.871 113.557 77.767 113.4C76.597 113.866 75.411 114.309 74.275 114.719C76.874 114.369 78.176 114.21 80.785 113.923ZM78.108 119.694C78.06 119.343 78.035 119.168 77.986 118.817C76.908 118.949 76.369 119.017 75.293 119.161C75.158 119.488 75.019 119.799 74.865 120.111C76.16 119.937 76.808 119.853 78.107 119.694H78.108ZM74.283 111.75C75.383 111.844 76.546 111.95 77.704 112.088C78.4328 111.796 79.1414 111.457 79.825 111.071C77.604 111.32 76.495 111.456 74.283 111.75Z" fill="white"/>
<path d="M103.125 116.866C103.155 117.532 103.17 117.866 103.2 118.531C100.618 118.603 99.328 118.654 96.752 118.788C96.858 120.335 96.911 121.108 97.015 122.655C96.242 122.695 95.857 122.717 95.085 122.762C94.97 121.216 94.9119 120.443 94.7939 118.896C92.2669 119.046 91.0049 119.136 88.4839 119.345C88.4179 118.682 88.384 118.345 88.318 117.687C90.854 117.475 92.123 117.387 94.667 117.234C94.644 116.934 94.6319 116.787 94.6089 116.488C92.6809 116.603 91.719 116.668 89.795 116.817C89.74 116.235 89.7119 115.944 89.6559 115.362C91.5899 115.212 92.556 115.146 94.496 115.03C94.472 114.724 94.461 114.572 94.436 114.267C92.155 114.402 91.016 114.482 88.741 114.667C88.68 114.058 88.649 113.754 88.588 113.144C89.833 113.044 90.4559 112.996 91.7029 112.91C91.486 112.495 91.2387 112.097 90.963 111.719C91.41 111.585 91.633 111.519 92.081 111.386C90.342 111.504 89.475 111.569 87.739 111.714C87.674 111.084 87.639 110.77 87.574 110.141C88.505 110.063 88.974 110.026 89.902 109.956C89.5204 109.251 89.0833 108.578 88.595 107.943C89.275 107.657 89.616 107.515 90.295 107.233C90.8983 107.925 91.412 108.69 91.824 109.511L91.024 109.873C91.654 109.828 91.97 109.807 92.601 109.766C92.501 108.666 92.457 108.109 92.36 107.005C93.122 106.955 93.503 106.931 94.265 106.887C94.355 107.992 94.3999 108.545 94.4869 109.65C95.0019 109.62 95.259 109.605 95.774 109.578C95.691 108.473 95.649 107.92 95.564 106.815C96.341 106.773 96.73 106.753 97.507 106.715C97.584 107.821 97.622 108.374 97.697 109.48C98.309 109.452 98.614 109.438 99.226 109.413L98.595 109.251C98.9859 108.452 99.3039 107.619 99.545 106.762C100.425 106.924 100.865 107.008 101.745 107.177C101.302 107.977 100.879 108.754 100.484 109.363C101.371 109.331 101.815 109.316 102.703 109.291C102.735 109.923 102.751 110.239 102.782 110.871C100.975 110.923 100.072 110.956 98.2679 111.037C98.9209 111.17 99.247 111.237 99.899 111.376C99.548 111.799 99.2129 112.187 98.9269 112.505C100.239 112.449 100.896 112.424 102.209 112.384C102.24 112.996 102.255 113.301 102.285 113.912C99.936 113.984 98.7629 114.033 96.4189 114.155C96.4409 114.461 96.4519 114.614 96.4739 114.919C98.4949 114.813 99.5059 114.77 101.531 114.702C101.561 115.286 101.576 115.578 101.606 116.162C99.593 116.23 98.586 116.273 96.577 116.377C96.598 116.677 96.609 116.825 96.629 117.123C99.228 116.99 100.526 116.939 103.125 116.866ZM94.49 120.123C93.1557 121.292 91.5944 122.172 89.904 122.709C89.5313 122.205 89.0991 121.748 88.6169 121.347C90.1854 121.011 91.6848 120.409 93.05 119.567C93.627 119.79 93.914 119.899 94.489 120.123H94.49ZM92.985 111.323C93.2847 111.707 93.5482 112.118 93.772 112.551L92.8719 112.828C94.7239 112.707 95.6499 112.655 97.5049 112.566L96.881 112.41C97.126 112.01 97.448 111.479 97.66 111.062C95.788 111.155 94.8529 111.207 92.9839 111.327L92.985 111.323ZM98.8229 119.143C100.336 119.646 101.821 120.229 103.272 120.888C102.737 121.345 102.472 121.574 101.941 122.034C100.517 121.326 99.0545 120.699 97.5599 120.156C98.0629 119.753 98.314 119.551 98.822 119.148L98.8229 119.143Z" fill="white"/>
<path d="M120.198 116.595C119.527 115.866 118.807 115.184 118.044 114.553C117.727 115.078 117.343 115.56 116.903 115.987C116.491 115.651 116.051 115.35 115.588 115.087C117.246 117.249 119.431 118.95 121.934 120.026C121.356 120.556 120.851 121.162 120.434 121.826C118.373 120.715 116.555 119.203 115.087 117.379C115.087 119.358 115.087 120.348 115.087 122.327C114.264 122.313 113.853 122.307 113.031 122.3C113.019 120.361 113.012 119.393 112.994 117.454C111.546 119.196 109.758 120.625 107.739 121.654C107.313 121.04 106.832 120.466 106.301 119.939C109.006 118.786 111.32 116.876 112.965 114.439C112.949 112.868 112.94 112.083 112.92 110.512C110.42 110.491 109.17 110.495 106.673 110.53C106.645 109.735 106.631 109.337 106.602 108.541C109.117 108.505 110.375 108.501 112.893 108.522C112.882 107.685 112.876 107.267 112.863 106.43C113.735 106.437 114.171 106.442 115.043 106.456C115.049 107.293 115.052 107.711 115.057 108.548C117.667 108.59 118.973 108.626 121.585 108.73C121.571 109.53 121.564 109.924 121.55 110.719C118.956 110.619 117.659 110.58 115.068 110.537C115.076 112.06 115.079 112.822 115.083 114.346C115.168 114.484 115.253 114.604 115.338 114.741C116.461 113.648 117.213 112.231 117.491 110.689C118.291 110.852 118.685 110.935 119.48 111.104C119.323 111.716 119.128 112.317 118.896 112.904C119.861 113.682 121.016 114.626 121.63 115.23C121.055 115.774 120.767 116.05 120.198 116.595ZM111.448 110.984C111.289 111.606 111.095 112.219 110.867 112.819C111.49 113.345 112.142 113.911 112.538 114.319C112.002 114.879 111.738 115.161 111.206 115.724C110.847 115.304 110.462 114.906 110.053 114.534C109.559 115.412 108.924 116.202 108.173 116.873C107.683 116.392 107.152 115.955 106.587 115.566C108.106 114.311 109.123 112.552 109.451 110.609C110.255 110.757 110.655 110.832 111.448 110.984Z" fill="white"/>
<path d="M133.244 113.538C133.018 115.62 132.487 117.657 131.666 119.584C133.049 120.85 134.843 121.574 136.717 121.621C137.29 121.686 139.391 121.897 140.123 121.962C139.812 122.451 139.576 122.984 139.423 123.543C138.234 123.412 137.64 123.351 136.451 123.234C134.384 123.195 132.4 122.416 130.858 121.039C130.35 121.779 129.699 122.41 128.943 122.893C128.623 122.417 128.23 121.993 127.779 121.639C127.757 122.108 127.745 122.339 127.723 122.811C127.037 122.766 126.693 122.745 126.008 122.705C126.153 119.287 126.222 117.578 126.351 114.159C126.081 114.536 125.814 114.878 125.551 115.187C125.352 114.419 125.074 113.674 124.722 112.963C126.122 111.182 127.168 109.149 127.802 106.974C128.535 107.223 128.902 107.35 129.631 107.603L129.451 108.119C131.031 108.226 131.821 108.285 133.4 108.419C132.768 109.953 132.008 111.752 131.358 113.237L131.923 113.281L132.232 113.271L133.244 113.538ZM127.782 121.606C128.6 121.121 129.291 120.45 129.801 119.647C129.231 118.649 128.814 117.57 128.566 116.447C129.136 116.274 129.422 116.188 129.994 116.018C130.134 116.689 130.342 117.344 130.616 117.972C130.983 116.934 131.253 115.865 131.424 114.778C130.404 114.7 129.893 114.663 128.874 114.594C129.619 113.08 130.287 111.528 130.874 109.946C130.258 109.901 129.951 109.879 129.335 109.837C129.365 109.185 129.38 108.859 129.409 108.206C129.079 109.122 128.698 110.018 128.268 110.891C128.087 115.176 127.989 117.32 127.782 121.606ZM135.809 110.28C135.062 110.212 134.688 110.18 133.941 110.115C133.976 109.538 133.994 109.25 134.03 108.673C134.781 108.736 135.157 108.773 135.908 108.838C135.943 108.329 135.96 108.075 135.995 107.565C136.68 107.627 137.022 107.66 137.707 107.727C137.669 108.236 137.65 108.49 137.612 108.998C138.612 109.098 139.112 109.147 140.112 109.254C140.038 110.141 140.001 110.585 139.927 111.473C140.32 111.515 140.517 111.536 140.91 111.58C140.859 112.163 140.833 112.454 140.782 113.038C140.39 112.994 140.194 112.973 139.803 112.931C139.726 113.831 139.688 114.283 139.61 115.184C138.63 115.079 138.14 115.029 137.16 114.932C137.136 115.237 137.125 115.39 137.1 115.695C138.153 115.795 138.679 115.853 139.731 115.966C139.676 116.597 139.649 116.912 139.593 117.542C138.546 117.429 138.023 117.375 136.977 117.273C136.951 117.598 136.939 117.76 136.912 118.086C138.137 118.206 138.75 118.27 139.975 118.405C139.919 119.028 139.89 119.34 139.833 119.963C138.616 119.829 138.007 119.763 136.789 119.646C136.741 120.246 136.717 120.546 136.667 121.154C136.015 121.089 135.689 121.054 135.036 120.998C135.081 120.398 135.104 120.092 135.148 119.489C134.225 119.404 133.763 119.363 132.839 119.289C132.879 118.665 132.9 118.352 132.939 117.728C133.869 117.806 134.333 117.847 135.262 117.928C135.286 117.603 135.298 117.44 135.321 117.115C134.521 117.042 134.127 117.007 133.33 116.94C133.371 116.309 133.392 115.993 133.43 115.362C134.23 115.43 134.63 115.462 135.43 115.538C135.452 115.238 135.463 115.08 135.485 114.775C134.749 114.707 134.385 114.675 133.646 114.612C133.683 114.035 133.701 113.747 133.738 113.17C134.477 113.232 134.847 113.27 135.586 113.333C135.609 113.007 135.621 112.845 135.644 112.52C134.607 112.42 134.089 112.38 133.051 112.295C133.086 111.711 133.104 111.419 133.14 110.834C134.182 110.919 134.703 110.965 135.74 111.06C135.777 110.749 135.788 110.593 135.809 110.281V110.28ZM137.509 110.44C137.486 110.752 137.474 110.908 137.451 111.22L138.4 111.314C138.425 111.002 138.437 110.846 138.462 110.534L137.509 110.44ZM138.285 112.773C137.907 112.735 137.718 112.715 137.341 112.679L137.279 113.492L138.22 113.586C138.239 113.261 138.255 113.099 138.281 112.774L138.285 112.773Z" fill="white"/>
<path d="M147.911 118.777C147.734 118.088 147.515 117.41 147.255 116.748C146.889 119.931 146.703 121.522 146.323 124.701C145.71 124.618 145.403 124.577 144.79 124.501C145.115 121.643 145.274 120.214 145.59 117.354C145.144 118.576 144.56 119.743 143.85 120.833C143.719 120.122 143.531 119.423 143.288 118.742C144.37 117.206 145.193 115.504 145.725 113.702C145.135 113.626 144.84 113.589 144.25 113.517C144.325 112.772 144.362 112.4 144.437 111.655C145.137 111.741 145.483 111.785 146.181 111.876C146.315 110.618 146.381 109.988 146.513 108.73C147.163 108.814 147.487 108.857 148.137 108.945C147.998 110.202 147.928 110.831 147.787 112.089L149.099 112.27C149.069 112.527 149.054 112.656 149.024 112.912C150.962 112.231 152.708 111.093 154.115 109.596C154.868 109.996 155.242 110.196 155.99 110.604C155.868 110.764 155.734 110.915 155.59 111.056C156.904 112.411 158.423 113.552 160.09 114.437C159.65 114.971 159.28 115.56 158.99 116.189C158.216 115.679 157.472 115.123 156.764 114.524C156.7 114.962 156.664 115.18 156.603 115.618C154.592 115.277 153.586 115.118 151.573 114.812C151.623 114.42 151.648 114.225 151.698 113.833C151.098 114.121 150.474 114.389 149.873 114.612C149.61 114.163 149.311 113.736 148.98 113.335C148.942 113.652 148.923 113.811 148.885 114.128C148.364 114.054 148.103 114.019 147.585 113.948C147.552 114.238 147.536 114.384 147.503 114.674C147.852 115.274 148.743 117.093 148.93 117.533C148.515 118.028 148.314 118.277 147.911 118.777ZM151.924 120.606C151.774 120.927 151.607 121.24 151.424 121.543C151.942 121.983 152.416 122.473 152.84 123.004C152.372 123.473 152.14 123.704 151.675 124.179C151.337 123.682 150.945 123.223 150.506 122.812C149.764 123.707 148.849 124.443 147.816 124.977C147.503 124.458 147.135 123.975 146.716 123.536C148.292 122.828 149.546 121.556 150.23 119.97C150.908 120.223 151.247 120.35 151.924 120.606ZM149.46 115.356C151.112 115.593 151.938 115.718 153.59 115.98C153.359 117.671 153.243 118.517 153.007 120.208C151.382 119.949 150.568 119.826 148.941 119.592C149.151 117.898 149.255 117.051 149.46 115.357V115.356ZM150.541 118.47L151.672 118.641C151.754 118.021 151.795 117.711 151.878 117.09L150.739 116.918C150.661 117.539 150.621 117.85 150.541 118.47ZM156.161 114.006C155.513 113.436 154.903 112.824 154.335 112.174C153.75 112.636 153.13 113.051 152.48 113.416C153.954 113.641 154.689 113.76 156.161 114.006ZM156.618 121.241C156.454 121.686 156.262 122.12 156.043 122.541C156.859 123.305 157.613 124.132 158.299 125.014C157.741 125.465 157.464 125.691 156.91 126.145C156.369 125.368 155.761 124.639 155.095 123.966C154.511 124.701 153.782 125.307 152.953 125.747C152.66 125.22 152.305 124.729 151.895 124.287C152.612 123.925 153.246 123.418 153.757 122.798C154.267 122.179 154.644 121.46 154.862 120.687C155.566 120.904 155.918 121.016 156.619 121.241H156.618ZM154.34 116.102C156.032 116.375 156.877 116.519 158.567 116.819C158.305 118.507 158.174 119.35 157.907 121.036C156.243 120.736 155.407 120.598 153.745 120.328C153.986 118.637 154.104 117.788 154.341 116.101L154.34 116.102ZM155.385 119.238C155.864 119.318 156.104 119.359 156.585 119.438C156.678 118.819 156.725 118.51 156.817 117.891C156.335 117.809 156.094 117.767 155.617 117.691C155.521 118.309 155.48 118.618 155.386 119.237L155.385 119.238Z" fill="white"/>
</svg>
